<svg xmlns="http://www.w3.org/2000/svg" xmlns:xlink="http://www.w3.org/1999/xlink" contentStyleType="text/css" data-diagram-type="DESCRIPTION" height="1350px" preserveAspectRatio="none" style="width:1499px;height:1350px;background:#FFFFFF;" version="1.1" viewBox="0 0 1499 1350" width="1499px" zoomAndPan="magnify"><title>Arquitectura de la API - ProductManagementAPI</title><defs/><g><g class="title" data-source-line="2"><text fill="#000000" font-family="Verdana" font-size="22" font-weight="bold" lengthAdjust="spacing" textLength="599.3281" x="445.3715" y="35.4209">Arquitectura de la API - ProductManagementAPI</text></g><!--cluster Capa API (Presentacion)--><g class="cluster" data-entity="Capa API .Presentacion." data-source-line="23" data-uid="ent0004" id="cluster_Capa API .Presentacion."><path d="M388.5,304.4994 L580.8174,304.4994 A3.75,3.75 0 0 1 583.3174,306.9994 L590.3174,326.7962 L1449.5,326.7962 A2.5,2.5 0 0 1 1452,329.2962 L1452,611.8894 A2.5,2.5 0 0 1 1449.5,614.3894 L388.5,614.3894 A2.5,2.5 0 0 1 386,611.8894 L386,306.9994 A2.5,2.5 0 0 1 388.5,304.4994" fill="#E3F2FD" style="stroke:#000000;stroke-width:1;"/><line style="stroke:#000000;stroke-width:1;" x1="386" x2="590.3174" y1="326.7962" y2="326.7962"/><text fill="#000000" font-family="Verdana" font-size="14" font-weight="bold" lengthAdjust="spacing" textLength="191.3174" x="390" y="319.4945">Capa API (Presentacion)</text><text fill="#000000" font-family="Verdana" font-size="14" font-style="italic" lengthAdjust="spacing" textLength="38.6367" x="903.6816" y="341.7914">&#171;api&#187;</text></g><!--cluster AuthCtrl--><g class="cluster" data-entity="AuthCtrl" data-source-line="24" data-uid="ent0005" id="cluster_AuthCtrl"><rect fill="#FFFFFF" height="103.3" rx="5" ry="5" style="stroke:#000000;stroke-width:1;" width="460" x="418" y="479.0894"/><text fill="#000000" font-family="Verdana" font-size="14" font-weight="bold" lengthAdjust="spacing" textLength="116.5322" x="589.7339" y="494.0845">AuthController</text></g><!--cluster ProdCtrl--><g class="cluster" data-entity="ProdCtrl" data-source-line="29" data-uid="ent0008" id="cluster_ProdCtrl"><rect fill="#FFFFFF" height="103.3" rx="5" ry="5" style="stroke:#000000;stroke-width:1;" width="502" x="918" y="479.0894"/><text fill="#000000" font-family="Verdana" font-size="14" font-weight="bold" lengthAdjust="spacing" textLength="158.7852" x="1089.6074" y="494.0845">ProductosController</text></g><!--cluster Capa Aplicacion (Negocio)--><g class="cluster" data-entity="Capa Aplicacion .Negocio." data-source-line="38" data-uid="ent0012" id="cluster_Capa Aplicacion .Negocio."><path d="M469.5,655.8394 L676.6855,655.8394 A3.75,3.75 0 0 1 679.1855,658.3394 L686.1855,678.1362 L1444.5,678.1362 A2.5,2.5 0 0 1 1447,680.6362 L1447,855.6294 A2.5,2.5 0 0 1 1444.5,858.1294 L469.5,858.1294 A2.5,2.5 0 0 1 467,855.6294 L467,658.3394 A2.5,2.5 0 0 1 469.5,655.8394" fill="#FFF3E0" style="stroke:#000000;stroke-width:1;"/><line style="stroke:#000000;stroke-width:1;" x1="467" x2="686.1855" y1="678.1362" y2="678.1362"/><text fill="#000000" font-family="Verdana" font-size="14" font-weight="bold" lengthAdjust="spacing" textLength="206.1855" x="471" y="670.8345">Capa Aplicacion (Negocio)</text><text fill="#000000" font-family="Verdana" font-size="14" font-style="italic" lengthAdjust="spacing" textLength="43.6338" x="939.1831" y="693.1314">&#171;app&#187;</text></g><!--cluster AuthSvc--><g class="cluster" data-entity="AuthSvc" data-source-line="39" data-uid="ent0013" id="cluster_AuthSvc"><rect fill="#FFFFFF" height="87.29" rx="5" ry="5" style="stroke:#000000;stroke-width:1;" width="152" x="491" y="730.8394"/><text fill="#000000" font-family="Verdana" font-size="14" font-weight="bold" lengthAdjust="spacing" textLength="95.6621" x="519.1689" y="745.8345">AuthService</text></g><!--cluster JwtSvc--><g class="cluster" data-entity="JwtSvc" data-source-line="43" data-uid="ent0015" id="cluster_JwtSvc"><rect fill="#FFFFFF" height="87.29" rx="5" ry="5" style="stroke:#000000;stroke-width:1;" width="172" x="667" y="730.8394"/><text fill="#000000" font-family="Verdana" font-size="14" font-weight="bold" lengthAdjust="spacing" textLength="83.0361" x="711.4819" y="745.8345">JwtService</text></g><!--cluster ProdSvc--><g class="cluster" data-entity="ProdSvc" data-source-line="47" data-uid="ent0017" id="cluster_ProdSvc"><rect fill="#FFFFFF" height="103.29" rx="5" ry="5" style="stroke:#000000;stroke-width:1;" width="319" x="871" y="722.8394"/><text fill="#000000" font-family="Verdana" font-size="14" font-weight="bold" lengthAdjust="spacing" textLength="129.582" x="965.709" y="737.8345">ProductoService</text></g><!--cluster Capa Dominio (Entidades)--><g class="cluster" data-entity="Capa Dominio .Entidades." data-source-line="60" data-uid="ent0023" id="cluster_Capa Dominio .Entidades."><path d="M13.5,647.3894 L219.585,647.3894 A3.75,3.75 0 0 1 222.085,649.8894 L229.085,669.6862 L440.5,669.6862 A2.5,2.5 0 0 1 443,672.1862 L443,1081.1194 A2.5,2.5 0 0 1 440.5,1083.6194 L13.5,1083.6194 A2.5,2.5 0 0 1 11,1081.1194 L11,649.8894 A2.5,2.5 0 0 1 13.5,647.3894" fill="#E8F5E9" style="stroke:#000000;stroke-width:1;"/><line style="stroke:#000000;stroke-width:1;" x1="11" x2="229.085" y1="669.6862" y2="669.6862"/><text fill="#000000" font-family="Verdana" font-size="14" font-weight="bold" lengthAdjust="spacing" textLength="205.085" x="15" y="662.3845">Capa Dominio (Entidades)</text><text fill="#000000" font-family="Verdana" font-size="14" font-style="italic" lengthAdjust="spacing" textLength="69.7129" x="196.1436" y="684.6814">&#171;domain&#187;</text></g><!--cluster Entities--><g class="cluster" data-entity="Entities" data-source-line="61" data-uid="ent0024" id="cluster_Entities"><rect fill="#FFFFFF" height="152.49" rx="5" ry="5" style="stroke:#000000;stroke-width:1;" width="384" x="35" y="907.1294"/><text fill="#000000" font-family="Verdana" font-size="14" font-weight="bold" lengthAdjust="spacing" textLength="78.3398" x="187.8301" y="922.1245">Entidades</text></g><!--cluster DTOs--><g class="cluster" data-entity="DTOs" data-source-line="66" data-uid="ent0027" id="cluster_DTOs"><rect fill="#FFFFFF" height="136.19" rx="5" ry="5" style="stroke:#000000;stroke-width:1;" width="372" x="35" y="706.3894"/><text fill="#000000" font-family="Verdana" font-size="14" font-weight="bold" lengthAdjust="spacing" textLength="41.4053" x="200.2974" y="721.3845">DTOs</text></g><!--cluster Infraestructura (Data)--><g class="cluster" data-entity="Infraestructura .Data." data-source-line="73" data-uid="ent0030" id="cluster_Infraestructura .Data."><path d="M702.5,915.5794 L878.6982,915.5794 A3.75,3.75 0 0 1 881.1982,918.0794 L888.1982,937.8762 L1016.5,937.8762 A2.5,2.5 0 0 1 1019,940.3762 L1019,1205.7094 A2.5,2.5 0 0 1 1016.5,1208.2094 L702.5,1208.2094 A2.5,2.5 0 0 1 700,1205.7094 L700,918.0794 A2.5,2.5 0 0 1 702.5,915.5794" fill="#F3E5F5" style="stroke:#000000;stroke-width:1;"/><line style="stroke:#000000;stroke-width:1;" x1="700" x2="888.1982" y1="937.8762" y2="937.8762"/><text fill="#000000" font-family="Verdana" font-size="14" font-weight="bold" lengthAdjust="spacing" textLength="175.1982" x="704" y="930.5745">Infraestructura (Data)</text><text fill="#000000" font-family="Verdana" font-size="14" font-style="italic" lengthAdjust="spacing" textLength="49.3076" x="838.8462" y="952.8714">&#171;infra&#187;</text></g><!--entity JWTMiddleware--><g class="entity" data-entity="JWTMiddleware" data-source-line="34" data-uid="ent0011" id="entity_JWTMiddleware"><rect fill="#90CAF9" height="52.5938" rx="5" ry="5" style="stroke:#000000;stroke-width:1;" width="153.7451" x="940.13" y="355.4994"/><text fill="#000000" font-family="Verdana" font-size="14" lengthAdjust="spacing" textLength="133.7451" x="950.13" y="378.4945">JWT Authentication</text><text fill="#000000" font-family="Verdana" font-size="14" lengthAdjust="spacing" textLength="80.6436" x="950.13" y="394.7914">Middleware</text></g><!--entity LoginEndpoint--><g class="entity" data-entity="LoginEndpoint" data-source-line="25" data-uid="ent0006" id="entity_LoginEndpoint"><rect fill="#BBDEFB" height="36.2969" rx="5" ry="5" style="stroke:#000000;stroke-width:1;" width="168.791" x="441.6" y="522.0894"/><text fill="#000000" font-family="Verdana" font-size="14" lengthAdjust="spacing" textLength="148.791" x="451.6" y="545.0845">POST /api/users/login</text></g><!--entity MeEndpoint--><g class="entity" data-entity="MeEndpoint" data-source-line="26" data-uid="ent0007" id="entity_MeEndpoint"><rect fill="#BBDEFB" height="36.2969" rx="5" ry="5" style="stroke:#000000;stroke-width:1;" width="190.1807" x="644.91" y="522.0894"/><text fill="#000000" font-family="Verdana" font-size="14" lengthAdjust="spacing" textLength="170.1807" x="654.91" y="545.0845">GET /api/users/me [JWT]</text></g><!--entity AddProdEndpoint--><g class="entity" data-entity="AddProdEndpoint" data-source-line="30" data-uid="ent0009" id="entity_AddProdEndpoint"><rect fill="#BBDEFB" height="36.2969" rx="5" ry="5" style="stroke:#000000;stroke-width:1;" width="204.0508" x="941.97" y="522.0894"/><text fill="#000000" font-family="Verdana" font-size="14" lengthAdjust="spacing" textLength="184.0508" x="951.97" y="545.0845">POST /api/productos [JWT]</text></g><!--entity GetProdEndpoint--><g class="entity" data-entity="GetProdEndpoint" data-source-line="31" data-uid="ent0010" id="entity_GetProdEndpoint"><rect fill="#BBDEFB" height="36.2969" rx="5" ry="5" style="stroke:#000000;stroke-width:1;" width="195.3965" x="1181.3" y="522.0894"/><text fill="#000000" font-family="Verdana" font-size="14" lengthAdjust="spacing" textLength="175.3965" x="1191.3" y="545.0845">GET /api/productos [JWT]</text></g><g class="entity" data-entity="GMN20" data-source-line="53" data-uid="ent0021" id="entity_GMN20"><path d="M1217.12,756.2794 L1217.12,811.6778 L1430.8729,811.6778 L1430.8729,766.2794 L1420.8729,756.2794 L1217.12,756.2794" fill="#FFFFFF" style="stroke:#000000;stroke-width:1;"/><path d="M1420.8729,756.2794 L1420.8729,766.2794 L1430.8729,766.2794 L1420.8729,756.2794" fill="#FFFFFF" style="stroke:#000000;stroke-width:1;"/><text fill="#000000" font-family="Verdana" font-size="13" lengthAdjust="spacing" textLength="61.2549" x="1223.12" y="773.3463">Singleton</text><text fill="#000000" font-family="Verdana" font-size="13" lengthAdjust="spacing" textLength="192.7529" x="1223.12" y="788.4791">Almacenamiento en memoria</text><text fill="#000000" font-family="Verdana" font-size="13" lengthAdjust="spacing" textLength="126.9277" x="1223.12" y="803.6119">Valida codigo unico</text></g><!--entity ValidateUser--><g class="entity" data-entity="ValidateUser" data-source-line="40" data-uid="ent0014" id="entity_ValidateUser"><rect fill="#FFE0B2" height="36.2969" rx="5" ry="5" style="stroke:#000000;stroke-width:1;" width="120.3379" x="506.83" y="765.8394"/><text fill="#000000" font-family="Verdana" font-size="14" lengthAdjust="spacing" textLength="100.3379" x="516.83" y="788.8345">ValidateUser()</text></g><!--entity GenToken--><g class="entity" data-entity="GenToken" data-source-line="44" data-uid="ent0016" id="entity_GenToken"><rect fill="#FFE0B2" height="36.2969" rx="5" ry="5" style="stroke:#000000;stroke-width:1;" width="139.0205" x="683.49" y="765.8394"/><text fill="#000000" font-family="Verdana" font-size="14" lengthAdjust="spacing" textLength="119.0205" x="693.49" y="788.8345">GenerateToken()</text></g><!--entity AddProd--><g class="entity" data-entity="AddProd" data-source-line="48" data-uid="ent0018" id="entity_AddProd"><rect fill="#FFE0B2" height="36.2969" rx="5" ry="5" style="stroke:#000000;stroke-width:1;" width="86.9785" x="894.51" y="765.8394"/><text fill="#000000" font-family="Verdana" font-size="14" lengthAdjust="spacing" textLength="66.9785" x="904.51" y="788.8345">Agregar()</text></g><!--entity GetProds--><g class="entity" data-entity="GetProds" data-source-line="49" data-uid="ent0019" id="entity_GetProds"><rect fill="#FFE0B2" height="36.2969" rx="5" ry="5" style="stroke:#000000;stroke-width:1;" width="130.0381" x="1016.98" y="765.8394"/><text fill="#000000" font-family="Verdana" font-size="14" lengthAdjust="spacing" textLength="110.0381" x="1026.98" y="788.8345">ObtenerTodos()</text></g><!--entity ProductoModel--><g class="entity" data-entity="ProductoModel" data-source-line="62" data-uid="ent0025" id="entity_ProductoModel"><rect fill="#C8E6C9" height="85.1875" rx="5" ry="5" style="stroke:#000000;stroke-width:1;" width="136.8262" x="50.59" y="950.2794"/><text fill="#000000" font-family="Verdana" font-size="14" lengthAdjust="spacing" textLength="62.2754" x="60.59" y="973.2745">Producto</text><text fill="#000000" font-family="Verdana" font-size="14" lengthAdjust="spacing" textLength="107.4268" x="60.59" y="989.5714">- Codigo: string</text><text fill="#000000" font-family="Verdana" font-size="14" lengthAdjust="spacing" textLength="114.7891" x="60.59" y="1005.8682">- Nombre: string</text><text fill="#000000" font-family="Verdana" font-size="14" lengthAdjust="spacing" textLength="116.8262" x="60.59" y="1022.1651">- Precio: decimal</text></g><!--entity UserModel--><g class="entity" data-entity="UserModel" data-source-line="63" data-uid="ent0026" id="entity_UserModel"><rect fill="#C8E6C9" height="101.4844" rx="5" ry="5" style="stroke:#000000;stroke-width:1;" width="180.3984" x="222.8" y="942.1294"/><text fill="#000000" font-family="Verdana" font-size="14" lengthAdjust="spacing" textLength="31.9102" x="232.8" y="965.1245">User</text><text fill="#000000" font-family="Verdana" font-size="14" lengthAdjust="spacing" textLength="49.9365" x="232.8" y="981.4214">- Id: int</text><text fill="#000000" font-family="Verdana" font-size="14" lengthAdjust="spacing" textLength="130.4707" x="232.8" y="997.7182">- Username: string</text><text fill="#000000" font-family="Verdana" font-size="14" lengthAdjust="spacing" textLength="97.6992" x="232.8" y="1014.0151">- Email: string</text><text fill="#000000" font-family="Verdana" font-size="14" lengthAdjust="spacing" textLength="160.3984" x="232.8" y="1030.312">- PasswordHash: string</text></g><!--entity ProdDTO--><g class="entity" data-entity="ProdDTO" data-source-line="67" data-uid="ent0028" id="entity_ProdDTO"><rect fill="#A5D6A7" height="85.1875" rx="5" ry="5" style="stroke:#000000;stroke-width:1;" width="154.5518" x="50.72" y="741.3894"/><text fill="#000000" font-family="Verdana" font-size="14" lengthAdjust="spacing" textLength="87.1104" x="60.72" y="764.3845">ProductoDto</text><text fill="#000000" font-family="Verdana" font-size="14" lengthAdjust="spacing" textLength="127.1895" x="60.72" y="780.6814">[Required] Codigo</text><text fill="#000000" font-family="Verdana" font-size="14" lengthAdjust="spacing" textLength="134.5518" x="60.72" y="796.9782">[Required] Nombre</text><text fill="#000000" font-family="Verdana" font-size="14" lengthAdjust="spacing" textLength="132.5557" x="60.72" y="813.2751">[Range] Precio &gt; 0</text></g><!--entity AuthDTO--><g class="entity" data-entity="AuthDTO" data-source-line="68" data-uid="ent0029" id="entity_AuthDTO"><rect fill="#A5D6A7" height="52.5938" rx="5" ry="5" style="stroke:#000000;stroke-width:1;" width="150.7168" x="240.64" y="757.6894"/><text fill="#000000" font-family="Verdana" font-size="14" lengthAdjust="spacing" textLength="120.3467" x="250.64" y="780.6845">LoginRequestDto</text><text fill="#000000" font-family="Verdana" font-size="14" lengthAdjust="spacing" textLength="130.7168" x="250.64" y="796.9814">LoginResponseDto</text></g><!--entity SQLite--><g class="entity" data-entity="SQLite" data-source-line="74" data-uid="ent0031" id="entity_SQLite"><path d="M736.97,1140.6194 C736.97,1130.6194 776.9969,1130.6194 776.9969,1130.6194 C776.9969,1130.6194 817.0237,1130.6194 817.0237,1140.6194 L817.0237,1182.2131 C817.0237,1192.2131 776.9969,1192.2131 776.9969,1192.2131 C776.9969,1192.2131 736.97,1192.2131 736.97,1182.2131 L736.97,1140.6194" fill="#E1BEE7" style="stroke:#000000;stroke-width:1;"/><path d="M736.97,1140.6194 C736.97,1150.6194 776.9969,1150.6194 776.9969,1150.6194 C776.9969,1150.6194 817.0237,1150.6194 817.0237,1140.6194" fill="none" style="stroke:#000000;stroke-width:1;"/><text fill="#000000" font-family="Verdana" font-size="14" lengthAdjust="spacing" textLength="45.6982" x="746.97" y="1167.6145">SQLite</text><text fill="#000000" font-family="Verdana" font-size="14" lengthAdjust="spacing" textLength="60.0537" x="746.97" y="1183.9114">users.db</text></g><!--entity Memory--><g class="entity" data-entity="Memory" data-source-line="75" data-uid="ent0032" id="entity_Memory"><rect fill="#CE93D8" height="52.5938" rx="35" ry="35" style="stroke:#000000;stroke-width:1;" width="130.209" x="872.9" y="966.5794"/><text fill="#000000" font-family="Verdana" font-size="14" lengthAdjust="spacing" textLength="74.9902" x="882.9" y="989.5745">In-Memory</text><text fill="#000000" font-family="Verdana" font-size="14" lengthAdjust="spacing" textLength="110.209" x="882.9" y="1005.8714">List&lt;Producto&gt;</text></g><!--entity DataLayer--><g class="entity" data-entity="DataLayer" data-source-line="76" data-uid="ent0033" id="entity_DataLayer"><rect fill="#E1BEE7" height="52.5938" rx="5" ry="5" style="stroke:#000000;stroke-width:1;" width="122.1084" x="715.95" y="966.5794"/><text fill="#000000" font-family="Verdana" font-size="14" lengthAdjust="spacing" textLength="102.1084" x="725.95" y="989.5745">AppDbContext</text><text fill="#000000" font-family="Verdana" font-size="14" lengthAdjust="spacing" textLength="84.0137" x="725.95" y="1005.8714">DbInitializer</text></g><!--entity Client--><g class="entity" data-entity="Client" data-source-line="19" data-uid="ent0002" id="entity_Client"><ellipse cx="1017.0035" cy="65.6094" fill="#FFFFFF" rx="8" ry="8" style="stroke:#000000;stroke-width:1;"/><path d="M1017.0035,73.6094 L1017.0035,100.6094 M1004.0035,81.6094 L1030.0035,81.6094 M1017.0035,100.6094 L1004.0035,115.6094 M1017.0035,100.6094 L1030.0035,115.6094" fill="none" style="stroke:#000000;stroke-width:1;"/><text fill="#000000" font-family="Verdana" font-size="14" lengthAdjust="spacing" textLength="89.667" x="972.17" y="130.6045">Cliente HTTP</text></g><!--entity Swagger--><g class="entity" data-entity="Swagger" data-source-line="20" data-uid="ent0003" id="entity_Swagger"><path d="M905.0561,204.6625 C910.5491,197.1911 916.9789,195.6154 922.3178,204.8221 C927.2314,195.8898 932.6151,195.2616 938.9893,203.3954 C943.1717,196.4944 949.3988,197.5044 953.0238,203.9801 C957.5681,194.1505 966.9569,195.8873 971.9012,203.5485 C975.4205,196.4667 980.1497,195.3338 985.451,201.7611 C991.0447,192.7054 997.5856,192.7113 1003.4432,201.4949 C1008.2971,195.8198 1014.1984,196.6226 1017.8545,202.9349 C1021.4191,196.3832 1028.3381,194.3968 1033.0311,201.6989 C1039.2833,192.5464 1044.9361,192.6903 1050.3469,202.4686 C1055.3026,195.9043 1061.8105,196.0179 1065.808,203.5217 C1069.9999,195.0208 1078.3913,194.8198 1083.0854,203.0017 C1086.379,195.7505 1093.1736,195.0827 1097.126,202.3652 C1104.5345,193.1612 1110.9287,195.5406 1115.7102,204.9833 C1119.4962,198.5158 1125.5778,197.2129 1129.6865,204.6592 C1145.5997,206.5582 1148.8193,214.9958 1140.4167,228.0496 C1149.2593,240.5075 1143.4881,247.0507 1131.0344,250.6791 C1126.6685,259.9692 1120.7623,260.4524 1114.3842,252.6378 C1109.2888,259.9773 1104.8625,258.5652 1099.8343,252.5645 C1095.8922,259.7847 1088.3764,260.2826 1083.3416,253.8883 C1077.848,262.4782 1072.3284,261.5286 1066.9374,253.7853 C1062.0563,262.7733 1056.2358,262.95 1049.3126,256.0507 C1044.7403,263.4268 1039.8065,263.3215 1034.5318,256.7976 C1029.7326,265.3168 1023.7307,264.0529 1018.3785,257.3858 C1013.0355,264.5277 1007.4293,264.5191 1003.1495,256.3297 C996.4854,264.5532 989.7152,264.0484 984.9968,254.358 C981.4618,261.737 974.8804,262.3386 969.7773,256.112 C964.0567,263.7306 957.3786,262.4094 953.2844,254.3961 C947.851,262.4044 942.289,262.0953 937.7253,253.5773 C933.8335,259.9075 926.9354,260.6873 923.6127,253.0042 C917.2856,261.4423 911.1921,261.8989 905.3862,252.4724 C892.0815,246.4734 893.7221,237.3318 903.1689,229.1681 C892.9732,221.9763 892.035,210.0664 905.0561,204.6625" fill="#FFFFFF" style="stroke:#000000;stroke-width:1;"/><text fill="#000000" font-family="Verdana" font-size="14" lengthAdjust="spacing" textLength="79.8848" x="911.87" y="222.9045">Swagger UI</text><text fill="#000000" font-family="Verdana" font-size="14" lengthAdjust="spacing" textLength="210.2598" x="911.87" y="239.2014">http://localhost:5112/swagger</text></g><!--link ProdSvc to GMN20--><g class="link" data-entity-1="ProdSvc" data-entity-2="GMN20" data-source-line="53" data-uid="lnk22" id="link_ProdSvc_GMN20"><path d="M1190.1185,783.9794 C1190.1626,783.9794 1190.2068,783.9794 1190.251,783.9794 C1190.6043,783.9794 1190.9576,783.9794 1191.3109,783.9794 C1194.1375,783.9794 1196.9638,783.9794 1199.79,783.9794 C1205.4425,783.9794 1211.095,783.9794 1216.75,783.9794" fill="none" id="ProdSvc-GMN20" style="stroke:#000000;stroke-width:1;stroke-dasharray:7,7;"/></g><!--link Client to Swagger--><g class="link" data-entity-1="Client" data-entity-2="Swagger" data-source-line="80" data-uid="lnk34" id="link_Client_Swagger"><path d="M1017,134.2494 C1017,153.4094 1017,170.3594 1017,188.4094" fill="none" id="Client-to-Swagger" style="stroke:#000000;stroke-width:1;"/><polygon fill="#000000" points="1017,194.4094,1021,185.4094,1017,189.4094,1013,185.4094,1017,194.4094" style="stroke:#000000;stroke-width:1;"/></g><!--link Swagger to JWTMiddleware--><g class="link" data-entity-1="Swagger" data-entity-2="JWTMiddleware" data-source-line="81" data-uid="lnk35" id="link_Swagger_JWTMiddleware"><path d="M1017,257.9194 C1017,286.4494 1017,322.4694 1017,349.2294" fill="none" id="Swagger-to-JWTMiddleware" style="stroke:#000000;stroke-width:1;"/><polygon fill="#000000" points="1017,355.2294,1021,346.2294,1017,350.2294,1013,346.2294,1017,355.2294" style="stroke:#000000;stroke-width:1;"/></g><!--link JWTMiddleware to AuthCtrl--><g class="link" data-entity-1="JWTMiddleware" data-entity-2="AuthCtrl" data-source-line="83" data-uid="lnk36" id="link_JWTMiddleware_AuthCtrl"><path d="M984.73,408.3794 C966.6,423.4294 944.06,443.3494 926,463.0894 C912.265,478.1044 898.6975,496.4394 888.3575,511.3556 C885.7725,515.0847 883.3892,518.6001 881.2555,521.7965 C880.1886,523.3947 879.1841,524.9132 878.248,526.3388 C878.1895,526.4279 881.4224,521.4998 881.3644,521.5882" fill="none" id="JWTMiddleware-to-AuthCtrl" style="stroke:#000000;stroke-width:1;"/><polygon fill="#000000" points="878.0732,526.605,886.3545,521.2739,880.8159,522.4243,879.6655,516.8857,878.0732,526.605" style="stroke:#000000;stroke-width:1;"/><text fill="#000000" font-family="Verdana" font-size="13" lengthAdjust="spacing" textLength="95.0942" x="950.44" y="451.1563">Rutas publicas</text></g><!--link JWTMiddleware to ProdCtrl--><g class="link" data-entity-1="JWTMiddleware" data-entity-2="ProdCtrl" data-source-line="84" data-uid="lnk37" id="link_JWTMiddleware_ProdCtrl"><path d="M1094.33,389.7194 C1191.63,400.0094 1351.12,422.6194 1393,463.0894 C1396.0375,466.0256 1398.618,469.3673 1400.8076,472.9733 C1401.9024,474.7762 1402.8994,476.6453 1403.8071,478.5627 C1403.8638,478.6825 1401.3854,473.3643 1401.4415,473.4845" fill="none" id="JWTMiddleware-to-ProdCtrl" style="stroke:#000000;stroke-width:1;"/><polygon fill="#000000" points="1403.9762,478.9228,1403.7996,469.0755,1401.8639,474.3909,1396.5486,472.4551,1403.9762,478.9228" style="stroke:#000000;stroke-width:1;"/><text fill="#000000" font-family="Verdana" font-size="13" lengthAdjust="spacing" textLength="110.7412" x="1380.33" y="451.1563">Rutas protegidas</text></g><!--link LoginEndpoint to ValidateUser--><g class="link" data-entity-1="LoginEndpoint" data-entity-2="ValidateUser" data-source-line="86" data-uid="lnk38" id="link_LoginEndpoint_ValidateUser"><path d="M528.95,558.6294 C536.5,603.1194 555.4477,714.8337 563.0177,759.5137" fill="none" id="LoginEndpoint-to-ValidateUser" style="stroke:#000000;stroke-width:1;"/><polygon fill="#000000" points="564.02,765.4294,566.4604,755.8876,563.1848,760.4996,558.5728,757.224,564.02,765.4294" style="stroke:#000000;stroke-width:1;"/></g><!--link MeEndpoint to GenToken--><g class="link" data-entity-1="MeEndpoint" data-entity-2="GenToken" data-source-line="87" data-uid="lnk39" id="link_MeEndpoint_GenToken"><path d="M740.93,558.6294 C743.33,603.1194 749.3268,714.7581 751.7368,759.4381" fill="none" id="MeEndpoint-to-GenToken" style="stroke:#000000;stroke-width:1;"/><polygon fill="#000000" points="752.06,765.4294,755.5694,756.227,751.7907,760.4366,747.5811,756.6579,752.06,765.4294" style="stroke:#000000;stroke-width:1;"/></g><!--link AddProdEndpoint to AddProd--><g class="link" data-entity-1="AddProdEndpoint" data-entity-2="AddProd" data-source-line="88" data-uid="lnk40" id="link_AddProdEndpoint_AddProd"><path d="M1035.89,558.5494 C1026.76,578.1094 1011.57,610.9194 999,639.3894 C978.98,684.7294 958.7123,733.0887 947.4723,760.1387" fill="none" id="AddProdEndpoint-to-AddProd" style="stroke:#000000;stroke-width:1;"/><polygon fill="#000000" points="945.17,765.6794,952.3173,758.9032,947.0886,761.0621,944.9297,755.8335,945.17,765.6794" style="stroke:#000000;stroke-width:1;"/></g><!--link GetProdEndpoint to GetProds--><g class="link" data-entity-1="GetProdEndpoint" data-entity-2="GetProds" data-source-line="89" data-uid="lnk41" id="link_GetProdEndpoint_GetProds"><path d="M1248.55,558.7794 C1220.32,576.2694 1178.63,605.3794 1151,639.3894 C1118.56,679.3194 1098.726,731.3335 1089.266,759.9035" fill="none" id="GetProdEndpoint-to-GetProds" style="stroke:#000000;stroke-width:1;"/><polygon fill="#000000" points="1087.38,765.5994,1094.0062,758.3129,1088.9517,760.8528,1086.4117,755.7982,1087.38,765.5994" style="stroke:#000000;stroke-width:1;"/></g><!--link ValidateUser to DataLayer--><g class="link" data-entity-1="ValidateUser" data-entity-2="DataLayer" data-source-line="91" data-uid="lnk42" id="link_ValidateUser_DataLayer"><path d="M577.74,802.2894 C591.84,824.2894 618.12,862.8094 646,891.1294 C674.18,919.7594 705.7835,943.7745 733.1135,962.7745" fill="none" id="ValidateUser-to-DataLayer" style="stroke:#000000;stroke-width:1;"/><polygon fill="#000000" points="738.04,966.1994,732.9336,957.7777,733.9346,963.3453,728.367,964.3463,738.04,966.1994" style="stroke:#000000;stroke-width:1;"/></g><!--link DataLayer to SQLite--><g class="link" data-entity-1="DataLayer" data-entity-2="SQLite" data-source-line="92" data-uid="lnk43" id="link_DataLayer_SQLite"><path d="M777,1019.5294 C777,1049.3694 777,1092.5594 777,1124.2094" fill="none" id="DataLayer-to-SQLite" style="stroke:#000000;stroke-width:1;"/><polygon fill="#000000" points="777,1130.2094,781,1121.2094,777,1125.2094,773,1121.2094,777,1130.2094" style="stroke:#000000;stroke-width:1;"/></g><!--link AddProd to Memory--><g class="link" data-entity-1="AddProd" data-entity-2="Memory" data-source-line="94" data-uid="lnk44" id="link_AddProd_Memory"><path d="M938,802.6194 C938,839.2694 938,917.7594 938,960.3494" fill="none" id="AddProd-to-Memory" style="stroke:#000000;stroke-width:1;"/><polygon fill="#000000" points="938,966.3494,942,957.3494,938,961.3494,934,957.3494,938,966.3494" style="stroke:#000000;stroke-width:1;"/></g><!--link GetProds to Memory--><g class="link" data-entity-1="GetProds" data-entity-2="Memory" data-source-line="95" data-uid="lnk45" id="link_GetProds_Memory"><path d="M1069.72,802.6194 C1044.22,839.2694 988.8373,918.8346 959.1973,961.4246" fill="none" id="GetProds-to-Memory" style="stroke:#000000;stroke-width:1;"/><polygon fill="#000000" points="955.77,966.3494,964.1942,961.2471,958.6261,962.2454,957.6278,956.6773,955.77,966.3494" style="stroke:#000000;stroke-width:1;"/></g><!--link ProdDTO to ProductoModel--><g class="link" data-entity-1="ProdDTO" data-entity-2="ProductoModel" data-source-line="97" data-uid="lnk46" id="link_ProdDTO_ProductoModel"><path d="M126.18,826.8494 C124.62,862.7494 122.6406,908.195 121.0806,944.075" fill="none" id="ProdDTO-to-ProductoModel" style="stroke:#000000;stroke-width:1;stroke-dasharray:7,7;"/><polygon fill="#000000" points="120.82,950.0694,125.2072,941.2516,121.0372,945.0741,117.2147,940.9041,120.82,950.0694" style="stroke:#000000;stroke-width:1;"/><text fill="#000000" font-family="Verdana" font-size="13" lengthAdjust="spacing" textLength="56.9448" x="125.04" y="887.1963">mapea a</text></g><!--link AuthDTO to UserModel--><g class="link" data-entity-1="AuthDTO" data-entity-2="UserModel" data-source-line="98" data-uid="lnk47" id="link_AuthDTO_UserModel"><path d="M315.63,810.7694 C315.15,843.4794 314.407,894.61 313.807,935.98" fill="none" id="AuthDTO-to-UserModel" style="stroke:#000000;stroke-width:1;stroke-dasharray:7,7;"/><polygon fill="#000000" points="313.72,941.9794,317.8501,933.0383,313.7925,936.9799,309.8509,932.9223,313.72,941.9794" style="stroke:#000000;stroke-width:1;"/><text fill="#000000" font-family="Verdana" font-size="13" lengthAdjust="spacing" textLength="61.3628" x="315.68" y="887.1963">autentica</text></g><!--link GenToken to UserModel--><g class="link" data-entity-1="GenToken" data-entity-2="UserModel" data-source-line="100" data-uid="lnk48" id="link_GenToken_UserModel"><path d="M733.05,802.3194 C711.83,820.0994 676.74,847.7094 643,866.1294 C565.78,908.2994 477.1462,940.8449 409.1462,962.9449" fill="none" id="GenToken-to-UserModel" style="stroke:#000000;stroke-width:1;stroke-dasharray:7,7;"/><polygon fill="#000000" points="403.44,964.7994,413.2357,965.8217,408.1952,963.2539,410.763,958.2135,403.44,964.7994" style="stroke:#000000;stroke-width:1;"/><text fill="#000000" font-family="Verdana" font-size="13" lengthAdjust="spacing" textLength="74.5596" x="627.22" y="887.1963">genera JWT</text></g><g class="legend" data-source-line="103"><rect fill="none" height="95.4844" rx="7.5" ry="7.5" style="stroke:#000000;stroke-width:1;" width="235.1279" x="1244.9433" y="1219.2094"/><text fill="#000000" font-family="Verdana" font-size="14" font-weight="bold" lengthAdjust="spacing" textLength="41.2139" x="1254.8173" y="1239.2045">Color</text><text fill="#000000" font-family="Verdana" font-size="14" font-weight="bold" lengthAdjust="spacing" textLength="39.1904" x="1305.7792" y="1239.2045">Capa</text><rect fill="#E3F2FD" height="16.2969" style="stroke:none;stroke-width:1;" width="50.9619" x="1249.9433" y="1242.5063"/><text fill="#000000" font-family="Verdana" font-size="14" lengthAdjust="spacing" textLength="4.4502" x="1249.9433" y="1255.5014">&#160;</text><text fill="#000000" font-family="Verdana" font-size="14" lengthAdjust="spacing" textLength="113.9893" x="1305.3554" y="1255.5014">API (Controllers)</text><rect fill="#FFF3E0" height="16.2969" style="stroke:none;stroke-width:1;" width="50.9619" x="1249.9433" y="1258.8031"/><text fill="#000000" font-family="Verdana" font-size="14" lengthAdjust="spacing" textLength="4.4502" x="1249.9433" y="1271.7982">&#160;</text><text fill="#000000" font-family="Verdana" font-size="14" lengthAdjust="spacing" textLength="145.9541" x="1305.3554" y="1271.7982">Aplicacion (Services)</text><rect fill="#E8F5E9" height="16.2969" style="stroke:none;stroke-width:1;" width="50.9619" x="1249.9433" y="1275.1"/><text fill="#000000" font-family="Verdana" font-size="14" lengthAdjust="spacing" textLength="4.4502" x="1249.9433" y="1288.0951">&#160;</text><text fill="#000000" font-family="Verdana" font-size="14" lengthAdjust="spacing" textLength="165.2656" x="1305.3554" y="1288.0951">Dominio (Models/DTOs)</text><rect fill="#F3E5F5" height="16.2969" style="stroke:none;stroke-width:1;" width="50.9619" x="1249.9433" y="1291.3969"/><text fill="#000000" font-family="Verdana" font-size="14" lengthAdjust="spacing" textLength="4.4502" x="1249.9433" y="1304.392">&#160;</text><text fill="#000000" font-family="Verdana" font-size="14" lengthAdjust="spacing" textLength="153.4873" x="1305.3554" y="1304.392">Infraestructura (Data)</text><line style="stroke:#000000;stroke-width:1;" x1="1249.9433" x2="1475.0712" y1="1226.2094" y2="1226.2094"/><line style="stroke:#000000;stroke-width:1;" x1="1249.9433" x2="1475.0712" y1="1242.5063" y2="1242.5063"/><line style="stroke:#000000;stroke-width:1;" x1="1249.9433" x2="1475.0712" y1="1258.8031" y2="1258.8031"/><line style="stroke:#000000;stroke-width:1;" x1="1249.9433" x2="1475.0712" y1="1275.1" y2="1275.1"/><line style="stroke:#000000;stroke-width:1;" x1="1249.9433" x2="1475.0712" y1="1291.3969" y2="1291.3969"/><line style="stroke:#000000;stroke-width:1;" x1="1249.9433" x2="1475.0712" y1="1307.6938" y2="1307.6938"/><line style="stroke:#000000;stroke-width:1;" x1="1249.9433" x2="1249.9433" y1="1226.2094" y2="1307.6938"/><line style="stroke:#000000;stroke-width:1;" x1="1300.9052" x2="1300.9052" y1="1226.2094" y2="1307.6938"/><line style="stroke:#000000;stroke-width:1;" x1="1475.0712" x2="1475.0712" y1="1226.2094" y2="1307.6938"/></g><g class="footer" data-source-line="3"><text fill="#000000" font-family="Verdana" font-size="10" lengthAdjust="spacing" textLength="261.2402" x="614.4155" y="1334.976">Prueba Tecnica .NET Core - Arquitectura de 3 Capas</text></g><!--SRC=[bLPRSwCs57xdLvmw3tMcapYNoJRnf9x1WBFk-5QRTDlPv4461JF14Yl4fjlk_lSUIO31nhtu2Hzzv_xf77qdDtHB8Kr8p2mPouI2BJxbiQI1p0M1a492m5wCuGmMWeTv8AU4aGYLc4InzSAvf0BFShecuDE0nG61yvddWyC5HRLzUzVWa9HabfMznYmbWcn1u2bX4Jh_omBy3Kdm6WcUiz3X2HVmOOC6p0aN8HL6EamGfgLB0nKC8xcyiBxLRQS8mdZRBT_VapGU3E34knvTZTnZa5H1HgFHjNVH3Wdv5Wke3TsERhoxTbJCNWJHfgwzcz6DYlDx-4d_m9cClPdl5Nyj4aZCiECaCTQPmdlVNtI0P604Lf3mF8JEwer44URyE7vY6odJVg-Ny80a6vx9_itbvLKlCmYjMw3hJks5hPlRTJYJWYS95Tbf6KDPkOxgbu4j1CtGFmbYpauxK9RFr7RNnOwToytEfFQkHL8a1NXFOJ5V-T13QxqymnWmZIXcMc-YlZmMfZnc4aw6GzSR3TjCF7WD2yZgZpz_y9-raIbjjO0Ds8_3S9ndUz4h-N-9FYtrQyxjC5Jg_ok7DZiFL1wrSvW9gkcQOxlmHafis1ERnc6Oq3SYg3Q8a9q4Jkuk77jqrsIb8SXaxDZEU3w3xegApt50Zv8aJT2POWTqPpJY-5NG93r6ay9YnP7Lvw2zoB-I90w9f8_OtkwfnjT5we9w5yEhO-LuatLFwkynHmyKvmXQzVahPOKdbEc__-Abf4_TbP8TzML7WaQapATWIiF9di9yBLLuFWzvLiMcUP6rnSPmEeE8euq4_bA6KjbTnSgevAoIsCcM19IHhHep733XBTro4PCAOMeE0G_ZY4EEuvxhCyf2xUsGF-vyEfwDvz2Tyf0c6Vm0hZy_nY2NRsCMS-XwoDkGX4WrHQ1gm1vmgCBfMgX_CgRPaNjQjEU9dU5sKWdq8PC2gw0aCxvT2rgNuBX31lTnQmNnbYHLEvKDdGoSEBVUE-UkpPaYfJ8o3lk0rrLzAX7Mjk73myIIXbEIPM-uvjwJR5FAjMUbVUZra8Igkbf1VVnp8LnLYuzBYXjQqF2vA4f3PAgYHAXBdukQm00kgdAW7pYnRzntzezjplG4LmPf9hN3Gf2bd6KK9TNTtpVqhK6cyMoqjBsLltnq_CUbVS2ViLglw4FavgtHTOaacZtbuZMrm8b1rYH3ZTKl4tnOF36zCSx3jLcJMeYR_7BeUIQE39TnuU9igkx35qmYpkHzMST1iMNK4NR7kxjsRm-6NPgwQxLMw1z81dSzPiXKl4n_5Yj6HJiXNzGaArmtRj9yvls68zXRbNcRfm2SdGsgpLw-1vIiCTmjgpdh5Q1Qo7rOvX83IFErcjvP2xPQVnLMu5MFyEBXEwwveHMyFfUjskvLP-KajVRNeex9oApzLMSKpPYphCROLqTLwQnT4NLTT2kjqfMMcIPPrT2ioQoIpEVdWxrxteSjIIa1OfKyLPZTZUm3oQLPjPPLBOjzJAGtYsfDhRCJxtTlvbPqJcYaHgcUsPf2Nx7v-hshFjI8_6h4S5-yMWVuVVY8sw7CmrMZQkjvjybhzlJZLI6hCMncTizCx9fD_O9LoFPRXr3CmkHY_Gq0]--></g></svg>