<svg xmlns="http://www.w3.org/2000/svg" xmlns:xlink="http://www.w3.org/1999/xlink" contentStyleType="text/css" data-diagram-type="CLASS" height="821px" preserveAspectRatio="none" style="width:2084px;height:821px;background:#FFFFFF;" version="1.1" viewBox="0 0 2084 821" width="2084px" zoomAndPan="magnify"><title>Diagrama de Clases - ProductManagementAPI</title><defs/><g><g class="title" data-source-line="1"><text fill="#000000" font-family="sans-serif" font-size="14" font-weight="bold" lengthAdjust="spacing" textLength="362.8994" x="853.5503" y="22.9951">Diagrama de Clases - ProductManagementAPI</text></g><!--cluster Models--><g class="cluster" data-entity="Models" data-source-line="10" data-uid="ent0002" id="cluster_Models"><path d="M890.5,650.2669 L947.6982,650.2669 A3.75,3.75 0 0 1 950.1982,652.7669 L957.1982,672.5637 L1267.5,672.5637 A2.5,2.5 0 0 1 1270,675.0637 L1270,811.9569 A2.5,2.5 0 0 1 1267.5,814.4569 L890.5,814.4569 A2.5,2.5 0 0 1 888,811.9569 L888,652.7669 A2.5,2.5 0 0 1 890.5,650.2669" fill="#ADD8E6" style="stroke:#000000;stroke-width:1.5;"/><line style="stroke:#000000;stroke-width:1.5;" x1="888" x2="957.1982" y1="672.5637" y2="672.5637"/><text fill="#000000" font-family="sans-serif" font-size="14" font-weight="bold" lengthAdjust="spacing" textLength="56.1982" x="892" y="665.262">Models</text></g><!--cluster DTOs--><g class="cluster" data-entity="DTOs" data-source-line="25" data-uid="ent0005" id="cluster_DTOs"><path d="M8.5,453.3769 L50.9053,453.3769 A3.75,3.75 0 0 1 53.4053,455.8769 L60.4053,475.6738 L704.5,475.6738 A2.5,2.5 0 0 1 707,478.1738 L707,598.7669 A2.5,2.5 0 0 1 704.5,601.2669 L8.5,601.2669 A2.5,2.5 0 0 1 6,598.7669 L6,455.8769 A2.5,2.5 0 0 1 8.5,453.3769" fill="#90EE90" style="stroke:#000000;stroke-width:1.5;"/><line style="stroke:#000000;stroke-width:1.5;" x1="6" x2="60.4053" y1="475.6738" y2="475.6738"/><text fill="#000000" font-family="sans-serif" font-size="14" font-weight="bold" lengthAdjust="spacing" textLength="41.4053" x="10" y="468.372">DTOs</text></g><!--cluster Controllers--><g class="cluster" data-entity="Controllers" data-source-line="42" data-uid="ent0009" id="cluster_Controllers"><path d="M1194.5,43.2969 L1282.9043,43.2969 A3.75,3.75 0 0 1 1285.4043,45.7969 L1292.4043,65.5938 L2074.5,65.5938 A2.5,2.5 0 0 1 2077,68.0938 L2077,204.9869 A2.5,2.5 0 0 1 2074.5,207.4869 L1194.5,207.4869 A2.5,2.5 0 0 1 1192,204.9869 L1192,45.7969 A2.5,2.5 0 0 1 1194.5,43.2969" fill="#FFFFE0" style="stroke:#000000;stroke-width:1.5;"/><line style="stroke:#000000;stroke-width:1.5;" x1="1192" x2="1292.4043" y1="65.5938" y2="65.5938"/><text fill="#000000" font-family="sans-serif" font-size="14" font-weight="bold" lengthAdjust="spacing" textLength="87.4043" x="1196" y="58.292">Controllers</text></g><!--cluster Services--><g class="cluster" data-entity="Services" data-source-line="57" data-uid="ent0012" id="cluster_Services"><path d="M1111.5,256.4869 L1179.0342,256.4869 A3.75,3.75 0 0 1 1181.5342,258.9869 L1188.5342,278.7837 L2018.5,278.7837 A2.5,2.5 0 0 1 2021,281.2837 L2021,401.8769 A2.5,2.5 0 0 1 2018.5,404.3769 L1111.5,404.3769 A2.5,2.5 0 0 1 1109,401.8769 L1109,258.9869 A2.5,2.5 0 0 1 1111.5,256.4869" fill="#FFB6C1" style="stroke:#000000;stroke-width:1.5;"/><line style="stroke:#000000;stroke-width:1.5;" x1="1109" x2="1188.5342" y1="278.7837" y2="278.7837"/><text fill="#000000" font-family="sans-serif" font-size="14" font-weight="bold" lengthAdjust="spacing" textLength="66.5342" x="1113" y="271.482">Services</text></g><!--cluster Data--><g class="cluster" data-entity="Data" data-source-line="75" data-uid="ent0016" id="cluster_Data"><path d="M817.5,260.5069 L855.708,260.5069 A3.75,3.75 0 0 1 858.208,263.0069 L865.208,282.8037 L1082.5,282.8037 A2.5,2.5 0 0 1 1085,285.3037 L1085,590.6169 A2.5,2.5 0 0 1 1082.5,593.1169 L817.5,593.1169 A2.5,2.5 0 0 1 815,590.6169 L815,263.0069 A2.5,2.5 0 0 1 817.5,260.5069" fill="#D3D3D3" style="stroke:#000000;stroke-width:1.5;"/><line style="stroke:#000000;stroke-width:1.5;" x1="815" x2="865.208" y1="282.8037" y2="282.8037"/><text fill="#000000" font-family="sans-serif" font-size="14" font-weight="bold" lengthAdjust="spacing" textLength="37.208" x="819" y="275.502">Data</text></g><!--class User--><g class="entity" data-entity="User" data-source-line="11" data-uid="ent0003" id="entity_User"><rect fill="#FFFFFF" height="113.1875" rx="2.5" ry="2.5" style="stroke:#000000;stroke-width:0.5;" width="179.0771" x="904.46" y="685.2669"/><ellipse cx="973.7935" cy="701.2669" fill="#ADD1B2" rx="11" ry="11" style="stroke:#181818;stroke-width:1;"/><path d="M976.7622,706.9075 Q976.1841,707.2044 975.5435,707.345 Q974.9029,707.5012 974.1997,707.5012 Q971.6997,707.5012 970.3716,705.8606 Q969.0591,704.2044 969.0591,701.0794 Q969.0591,697.9544 970.3716,696.2981 Q971.6997,694.6419 974.1997,694.6419 Q974.9029,694.6419 975.5435,694.7981 Q976.1997,694.9544 976.7622,695.2512 L976.7622,697.97 Q976.1372,697.3919 975.5435,697.1262 Q974.9497,696.845 974.3247,696.845 Q972.981,696.845 972.2935,697.9231 Q971.606,698.9856 971.606,701.0794 Q971.606,703.1731 972.2935,704.2512 Q972.981,705.3137 974.3247,705.3137 Q974.9497,705.3137 975.5435,705.0481 Q976.1372,704.7669 976.7622,704.1887 L976.7622,706.9075 Z " fill="#000000"/><text fill="#000000" font-family="sans-serif" font-size="14" lengthAdjust="spacing" textLength="31.9102" x="994.2935" y="706.1136">User</text><line style="stroke:#000000;stroke-width:0.5;" x1="905.46" x2="1082.5371" y1="717.2669" y2="717.2669"/><text fill="#000000" font-family="sans-serif" font-size="14" lengthAdjust="spacing" textLength="56.6152" x="910.46" y="734.262">+Id : int</text><text fill="#000000" font-family="sans-serif" font-size="14" lengthAdjust="spacing" textLength="137.1494" x="910.46" y="750.5589">+Username : string</text><text fill="#000000" font-family="sans-serif" font-size="14" lengthAdjust="spacing" textLength="104.3779" x="910.46" y="766.8557">+Email : string</text><text fill="#000000" font-family="sans-serif" font-size="14" lengthAdjust="spacing" textLength="167.0771" x="910.46" y="783.1526">+PasswordHash : string</text><line style="stroke:#000000;stroke-width:0.5;" x1="905.46" x2="1082.5371" y1="790.4544" y2="790.4544"/></g><!--class Producto--><g class="entity" data-entity="Producto" data-source-line="18" data-uid="ent0004" id="entity_Producto"><rect fill="#FFFFFF" height="96.8906" rx="2.5" ry="2.5" style="stroke:#000000;stroke-width:0.5;" width="135.5049" x="1118.25" y="693.4169"/><ellipse cx="1151.8033" cy="709.4169" fill="#ADD1B2" rx="11" ry="11" style="stroke:#181818;stroke-width:1;"/><path d="M1154.772,715.0575 Q1154.1939,715.3544 1153.5533,715.495 Q1152.9126,715.6513 1152.2095,715.6513 Q1149.7095,715.6513 1148.3814,714.0106 Q1147.0689,712.3544 1147.0689,709.2294 Q1147.0689,706.1044 1148.3814,704.4481 Q1149.7095,702.7919 1152.2095,702.7919 Q1152.9126,702.7919 1153.5533,702.9481 Q1154.2095,703.1044 1154.772,703.4013 L1154.772,706.12 Q1154.147,705.5419 1153.5533,705.2763 Q1152.9595,704.995 1152.3345,704.995 Q1150.9908,704.995 1150.3033,706.0731 Q1149.6158,707.1356 1149.6158,709.2294 Q1149.6158,711.3231 1150.3033,712.4013 Q1150.9908,713.4638 1152.3345,713.4638 Q1152.9595,713.4638 1153.5533,713.1981 Q1154.147,712.9169 1154.772,712.3388 L1154.772,715.0575 Z " fill="#000000"/><text fill="#000000" font-family="sans-serif" font-size="14" lengthAdjust="spacing" textLength="62.2754" x="1169.9262" y="714.2636">Producto</text><line style="stroke:#000000;stroke-width:0.5;" x1="1119.25" x2="1252.7549" y1="725.4169" y2="725.4169"/><text fill="#000000" font-family="sans-serif" font-size="14" lengthAdjust="spacing" textLength="114.1055" x="1124.25" y="742.412">+Codigo : string</text><text fill="#000000" font-family="sans-serif" font-size="14" lengthAdjust="spacing" textLength="121.4678" x="1124.25" y="758.7089">+Nombre : string</text><text fill="#000000" font-family="sans-serif" font-size="14" lengthAdjust="spacing" textLength="123.5049" x="1124.25" y="775.0057">+Precio : decimal</text><line style="stroke:#000000;stroke-width:0.5;" x1="1119.25" x2="1252.7549" y1="782.3075" y2="782.3075"/></g><!--class LoginRequestDto--><g class="entity" data-entity="LoginRequestDto" data-source-line="26" data-uid="ent0006" id="entity_LoginRequestDto"><rect fill="#FFFFFF" height="80.5938" rx="2.5" ry="2.5" style="stroke:#000000;stroke-width:0.5;" width="152.3467" x="21.83" y="496.5269"/><ellipse cx="36.83" cy="512.5269" fill="#ADD1B2" rx="11" ry="11" style="stroke:#181818;stroke-width:1;"/><path d="M39.7988,518.1675 Q39.2206,518.4644 38.58,518.605 Q37.9394,518.7613 37.2363,518.7613 Q34.7363,518.7613 33.4081,517.1206 Q32.0956,515.4644 32.0956,512.3394 Q32.0956,509.2144 33.4081,507.5581 Q34.7363,505.9019 37.2363,505.9019 Q37.9394,505.9019 38.58,506.0581 Q39.2363,506.2144 39.7988,506.5113 L39.7988,509.23 Q39.1738,508.6519 38.58,508.3863 Q37.9863,508.105 37.3613,508.105 Q36.0175,508.105 35.33,509.1831 Q34.6425,510.2456 34.6425,512.3394 Q34.6425,514.4331 35.33,515.5113 Q36.0175,516.5738 37.3613,516.5738 Q37.9863,516.5738 38.58,516.3081 Q39.1738,516.0269 39.7988,515.4488 L39.7988,518.1675 Z " fill="#000000"/><text fill="#000000" font-family="sans-serif" font-size="14" lengthAdjust="spacing" textLength="120.3467" x="50.83" y="517.3736">LoginRequestDto</text><line style="stroke:#000000;stroke-width:0.5;" x1="22.83" x2="173.1767" y1="528.5269" y2="528.5269"/><text fill="#000000" font-family="sans-serif" font-size="14" lengthAdjust="spacing" textLength="137.1494" x="27.83" y="545.522">+Username : string</text><text fill="#000000" font-family="sans-serif" font-size="14" lengthAdjust="spacing" textLength="131.8037" x="27.83" y="561.8189">+Password : string</text><line style="stroke:#000000;stroke-width:0.5;" x1="22.83" x2="173.1767" y1="569.1206" y2="569.1206"/></g><!--class LoginResponseDto--><g class="entity" data-entity="LoginResponseDto" data-source-line="31" data-uid="ent0007" id="entity_LoginResponseDto"><rect fill="#FFFFFF" height="64.2969" rx="2.5" ry="2.5" style="stroke:#000000;stroke-width:0.5;" width="162.7168" x="209.64" y="504.6769"/><ellipse cx="224.64" cy="520.6769" fill="#ADD1B2" rx="11" ry="11" style="stroke:#181818;stroke-width:1;"/><path d="M227.6088,526.3175 Q227.0306,526.6144 226.39,526.755 Q225.7494,526.9113 225.0463,526.9113 Q222.5463,526.9113 221.2181,525.2706 Q219.9056,523.6144 219.9056,520.4894 Q219.9056,517.3644 221.2181,515.7081 Q222.5463,514.0519 225.0463,514.0519 Q225.7494,514.0519 226.39,514.2081 Q227.0463,514.3644 227.6088,514.6613 L227.6088,517.38 Q226.9838,516.8019 226.39,516.5363 Q225.7963,516.255 225.1713,516.255 Q223.8275,516.255 223.14,517.3331 Q222.4525,518.3956 222.4525,520.4894 Q222.4525,522.5831 223.14,523.6613 Q223.8275,524.7238 225.1713,524.7238 Q225.7963,524.7238 226.39,524.4581 Q226.9838,524.1769 227.6088,523.5988 L227.6088,526.3175 Z " fill="#000000"/><text fill="#000000" font-family="sans-serif" font-size="14" lengthAdjust="spacing" textLength="130.7168" x="238.64" y="525.5236">LoginResponseDto</text><line style="stroke:#000000;stroke-width:0.5;" x1="210.64" x2="371.3568" y1="536.6769" y2="536.6769"/><text fill="#000000" font-family="sans-serif" font-size="14" lengthAdjust="spacing" textLength="108.2471" x="215.64" y="553.672">+Token : string</text><line style="stroke:#000000;stroke-width:0.5;" x1="210.64" x2="371.3568" y1="560.9738" y2="560.9738"/></g><!--class ProductoDto--><g class="entity" data-entity="ProductoDto" data-source-line="35" data-uid="ent0008" id="entity_ProductoDto"><rect fill="#FFFFFF" height="96.8906" rx="2.5" ry="2.5" style="stroke:#000000;stroke-width:0.5;" width="283.2637" x="407.37" y="488.3769"/><ellipse cx="501.1967" cy="504.3769" fill="#ADD1B2" rx="11" ry="11" style="stroke:#181818;stroke-width:1;"/><path d="M504.1654,510.0175 Q503.5873,510.3144 502.9467,510.455 Q502.306,510.6113 501.6029,510.6113 Q499.1029,510.6113 497.7748,508.9706 Q496.4623,507.3144 496.4623,504.1894 Q496.4623,501.0644 497.7748,499.4081 Q499.1029,497.7519 501.6029,497.7519 Q502.306,497.7519 502.9467,497.9081 Q503.6029,498.0644 504.1654,498.3613 L504.1654,501.08 Q503.5404,500.5019 502.9467,500.2363 Q502.3529,499.955 501.7279,499.955 Q500.3842,499.955 499.6967,501.0331 Q499.0092,502.0956 499.0092,504.1894 Q499.0092,506.2831 499.6967,507.3613 Q500.3842,508.4238 501.7279,508.4238 Q502.3529,508.4238 502.9467,508.1581 Q503.5404,507.8769 504.1654,507.2988 L504.1654,510.0175 Z " fill="#000000"/><text fill="#000000" font-family="sans-serif" font-size="14" lengthAdjust="spacing" textLength="87.1104" x="521.6967" y="509.2236">ProductoDto</text><line style="stroke:#000000;stroke-width:0.5;" x1="408.37" x2="689.6337" y1="520.3769" y2="520.3769"/><text fill="#000000" font-family="sans-serif" font-size="14" lengthAdjust="spacing" textLength="198.9326" x="413.37" y="537.372">+Codigo : string &#171;Required&#187;</text><text fill="#000000" font-family="sans-serif" font-size="14" lengthAdjust="spacing" textLength="206.2949" x="413.37" y="553.6689">+Nombre : string &#171;Required&#187;</text><line style="stroke:#000000;stroke-width:0.5;" x1="408.37" x2="689.6337" y1="560.9706" y2="560.9706"/><text fill="#000000" font-family="sans-serif" font-size="14" lengthAdjust="spacing" textLength="271.2637" x="413.37" y="577.9657">+Precio : decimal &#171;Range(0.01, max)&#187;</text></g><!--class AuthController--><g class="entity" data-entity="AuthController" data-source-line="43" data-uid="ent0010" id="entity_AuthController"><rect fill="#FFFFFF" height="113.1875" rx="2.5" ry="2.5" style="stroke:#000000;stroke-width:0.5;" width="448.7891" x="1207.61" y="78.2969"/><ellipse cx="1376.7619" cy="94.2969" fill="#ADD1B2" rx="11" ry="11" style="stroke:#181818;stroke-width:1;"/><path d="M1379.7306,99.9375 Q1379.1525,100.2344 1378.5119,100.375 Q1377.8712,100.5313 1377.1681,100.5313 Q1374.6681,100.5313 1373.34,98.8906 Q1372.0275,97.2344 1372.0275,94.1094 Q1372.0275,90.9844 1373.34,89.3281 Q1374.6681,87.6719 1377.1681,87.6719 Q1377.8712,87.6719 1378.5119,87.8281 Q1379.1681,87.9844 1379.7306,88.2813 L1379.7306,91 Q1379.1056,90.4219 1378.5119,90.1563 Q1377.9181,89.875 1377.2931,89.875 Q1375.9494,89.875 1375.2619,90.9531 Q1374.5744,92.0156 1374.5744,94.1094 Q1374.5744,96.2031 1375.2619,97.2813 Q1375.9494,98.3438 1377.2931,98.3438 Q1377.9181,98.3438 1378.5119,98.0781 Q1379.1056,97.7969 1379.7306,97.2188 L1379.7306,99.9375 Z " fill="#000000"/><text fill="#000000" font-family="sans-serif" font-size="14" lengthAdjust="spacing" textLength="101.9854" x="1397.2619" y="99.1436">AuthController</text><line style="stroke:#000000;stroke-width:0.5;" x1="1208.61" x2="1655.3991" y1="110.2969" y2="110.2969"/><text fill="#000000" font-family="sans-serif" font-size="14" lengthAdjust="spacing" textLength="193.7783" x="1213.61" y="127.292">-_authService : AuthService</text><text fill="#000000" font-family="sans-serif" font-size="14" lengthAdjust="spacing" textLength="171.0488" x="1213.61" y="143.5889">-_jwtService : JwtService</text><line style="stroke:#000000;stroke-width:0.5;" x1="1208.61" x2="1655.3991" y1="150.8906" y2="150.8906"/><text fill="#000000" font-family="sans-serif" font-size="14" lengthAdjust="spacing" textLength="436.7891" x="1213.61" y="167.8857">+Login(LoginRequestDto) : ActionResult&lt;LoginResponseDto&gt;</text><text fill="#000000" font-family="sans-serif" font-size="14" lengthAdjust="spacing" textLength="169.8936" x="1213.61" y="184.1826">+GetMe() : ActionResult</text></g><!--class ProductosController--><g class="entity" data-entity="ProductosController" data-source-line="50" data-uid="ent0011" id="entity_ProductosController"><rect fill="#FFFFFF" height="96.8906" rx="2.5" ry="2.5" style="stroke:#000000;stroke-width:0.5;" width="369.0342" x="1691.48" y="86.4469"/><ellipse cx="1802.376" cy="102.4469" fill="#ADD1B2" rx="11" ry="11" style="stroke:#181818;stroke-width:1;"/><path d="M1805.3447,108.0875 Q1804.7666,108.3844 1804.126,108.525 Q1803.4854,108.6812 1802.7822,108.6812 Q1800.2822,108.6812 1798.9541,107.0406 Q1797.6416,105.3844 1797.6416,102.2594 Q1797.6416,99.1344 1798.9541,97.4781 Q1800.2822,95.8219 1802.7822,95.8219 Q1803.4854,95.8219 1804.126,95.9781 Q1804.7822,96.1344 1805.3447,96.4312 L1805.3447,99.15 Q1804.7197,98.5719 1804.126,98.3062 Q1803.5322,98.025 1802.9072,98.025 Q1801.5635,98.025 1800.876,99.1031 Q1800.1885,100.1656 1800.1885,102.2594 Q1800.1885,104.3531 1800.876,105.4312 Q1801.5635,106.4937 1802.9072,106.4937 Q1803.5322,106.4937 1804.126,106.2281 Q1804.7197,105.9469 1805.3447,105.3687 L1805.3447,108.0875 Z " fill="#000000"/><text fill="#000000" font-family="sans-serif" font-size="14" lengthAdjust="spacing" textLength="138.7422" x="1822.876" y="107.2936">ProductosController</text><line style="stroke:#000000;stroke-width:0.5;" x1="1692.48" x2="2059.5142" y1="118.4469" y2="118.4469"/><text fill="#000000" font-family="sans-serif" font-size="14" lengthAdjust="spacing" textLength="254.1465" x="1697.48" y="135.442">-_productoService : ProductoService</text><line style="stroke:#000000;stroke-width:0.5;" x1="1692.48" x2="2059.5142" y1="142.7437" y2="142.7437"/><text fill="#000000" font-family="sans-serif" font-size="14" lengthAdjust="spacing" textLength="353.1514" x="1697.48" y="159.7389">+Agregar(ProductoDto) : ActionResult&lt;Producto&gt;</text><text fill="#000000" font-family="sans-serif" font-size="14" lengthAdjust="spacing" textLength="357.0342" x="1697.48" y="176.0357">+ObtenerTodos() : ActionResult&lt;List&lt;Producto&gt;&gt;</text></g><!--class AuthService--><g class="entity" data-entity="AuthService" data-source-line="58" data-uid="ent0013" id="entity_AuthService"><rect fill="#FFFFFF" height="80.5938" rx="2.5" ry="2.5" style="stroke:#000000;stroke-width:0.5;" width="322.8779" x="1124.56" y="299.6369"/><ellipse cx="1239.4721" cy="315.6369" fill="#ADD1B2" rx="11" ry="11" style="stroke:#181818;stroke-width:1;"/><path d="M1242.4409,321.2775 Q1241.8627,321.5744 1241.2221,321.715 Q1240.5815,321.8712 1239.8784,321.8712 Q1237.3784,321.8712 1236.0502,320.2306 Q1234.7377,318.5744 1234.7377,315.4494 Q1234.7377,312.3244 1236.0502,310.6681 Q1237.3784,309.0119 1239.8784,309.0119 Q1240.5815,309.0119 1241.2221,309.1681 Q1241.8784,309.3244 1242.4409,309.6212 L1242.4409,312.34 Q1241.8159,311.7619 1241.2221,311.4962 Q1240.6284,311.215 1240.0034,311.215 Q1238.6596,311.215 1237.9721,312.2931 Q1237.2846,313.3556 1237.2846,315.4494 Q1237.2846,317.5431 1237.9721,318.6212 Q1238.6596,319.6837 1240.0034,319.6837 Q1240.6284,319.6837 1241.2221,319.4181 Q1241.8159,319.1369 1242.4409,318.5587 L1242.4409,321.2775 Z " fill="#000000"/><text fill="#000000" font-family="sans-serif" font-size="14" lengthAdjust="spacing" textLength="84.5537" x="1259.9721" y="320.4836">AuthService</text><line style="stroke:#000000;stroke-width:0.5;" x1="1125.56" x2="1446.4379" y1="331.6369" y2="331.6369"/><text fill="#000000" font-family="sans-serif" font-size="14" lengthAdjust="spacing" textLength="180.79" x="1130.56" y="348.632">-_context : AppDbContext</text><line style="stroke:#000000;stroke-width:0.5;" x1="1125.56" x2="1446.4379" y1="355.9337" y2="355.9337"/><text fill="#000000" font-family="sans-serif" font-size="14" lengthAdjust="spacing" textLength="310.8779" x="1130.56" y="372.9289">+ValidateUser(username, password) : User?</text></g><!--class JwtService--><g class="entity" data-entity="JwtService" data-source-line="63" data-uid="ent0014" id="entity_JwtService"><rect fill="#FFFFFF" height="80.5938" rx="2.5" ry="2.5" style="stroke:#000000;stroke-width:0.5;" width="229.6084" x="1482.2" y="299.6369"/><ellipse cx="1556.3494" cy="315.6369" fill="#ADD1B2" rx="11" ry="11" style="stroke:#181818;stroke-width:1;"/><path d="M1559.3182,321.2775 Q1558.74,321.5744 1558.0994,321.715 Q1557.4588,321.8712 1556.7557,321.8712 Q1554.2557,321.8712 1552.9275,320.2306 Q1551.615,318.5744 1551.615,315.4494 Q1551.615,312.3244 1552.9275,310.6681 Q1554.2557,309.0119 1556.7557,309.0119 Q1557.4588,309.0119 1558.0994,309.1681 Q1558.7557,309.3244 1559.3182,309.6212 L1559.3182,312.34 Q1558.6932,311.7619 1558.0994,311.4962 Q1557.5057,311.215 1556.8807,311.215 Q1555.5369,311.215 1554.8494,312.2931 Q1554.1619,313.3556 1554.1619,315.4494 Q1554.1619,317.5431 1554.8494,318.6212 Q1555.5369,319.6837 1556.8807,319.6837 Q1557.5057,319.6837 1558.0994,319.4181 Q1558.6932,319.1369 1559.3182,318.5587 L1559.3182,321.2775 Z " fill="#000000"/><text fill="#000000" font-family="sans-serif" font-size="14" lengthAdjust="spacing" textLength="72.8096" x="1576.8494" y="320.4836">JwtService</text><line style="stroke:#000000;stroke-width:0.5;" x1="1483.2" x2="1710.8084" y1="331.6369" y2="331.6369"/><text fill="#000000" font-family="sans-serif" font-size="14" lengthAdjust="spacing" textLength="217.6084" x="1488.2" y="348.632">-_configuration : IConfiguration</text><line style="stroke:#000000;stroke-width:0.5;" x1="1483.2" x2="1710.8084" y1="355.9337" y2="355.9337"/><text fill="#000000" font-family="sans-serif" font-size="14" lengthAdjust="spacing" textLength="216.4668" x="1488.2" y="372.9289">+GenerateToken(User) : string</text></g><!--class ProductoService--><g class="entity" data-entity="ProductoService" data-source-line="68" data-uid="ent0015" id="entity_ProductoService"><rect fill="#FFFFFF" height="96.8906" rx="2.5" ry="2.5" style="stroke:#000000;stroke-width:0.5;" width="257.5947" x="1747.2" y="291.4869"/><ellipse cx="1814.7391" cy="307.4869" fill="#ADD1B2" rx="11" ry="11" style="stroke:#181818;stroke-width:1;"/><path d="M1817.7078,313.1275 Q1817.1297,313.4244 1816.4891,313.565 Q1815.8484,313.7212 1815.1453,313.7212 Q1812.6453,313.7212 1811.3172,312.0806 Q1810.0047,310.4244 1810.0047,307.2994 Q1810.0047,304.1744 1811.3172,302.5181 Q1812.6453,300.8619 1815.1453,300.8619 Q1815.8484,300.8619 1816.4891,301.0181 Q1817.1453,301.1744 1817.7078,301.4712 L1817.7078,304.19 Q1817.0828,303.6119 1816.4891,303.3462 Q1815.8953,303.065 1815.2703,303.065 Q1813.9266,303.065 1813.2391,304.1431 Q1812.5516,305.2056 1812.5516,307.2994 Q1812.5516,309.3931 1813.2391,310.4712 Q1813.9266,311.5337 1815.2703,311.5337 Q1815.8953,311.5337 1816.4891,311.2681 Q1817.0828,310.9869 1817.7078,310.4087 L1817.7078,313.1275 Z " fill="#000000"/><text fill="#000000" font-family="sans-serif" font-size="14" lengthAdjust="spacing" textLength="114.0166" x="1835.2391" y="312.3336">ProductoService</text><line style="stroke:#000000;stroke-width:0.5;" x1="1748.2" x2="2003.7947" y1="323.4869" y2="323.4869"/><text fill="#000000" font-family="sans-serif" font-size="14" lengthAdjust="spacing" textLength="205.8916" x="1753.2" y="340.482">-_productos : List&lt;Producto&gt;</text><line style="stroke:#000000;stroke-width:0.5;" x1="1748.2" x2="2003.7947" y1="347.7837" y2="347.7837"/><text fill="#000000" font-family="sans-serif" font-size="14" lengthAdjust="spacing" textLength="244.5215" x="1753.2" y="364.7789">+Agregar(Producto) : (bool, string)</text><text fill="#000000" font-family="sans-serif" font-size="14" lengthAdjust="spacing" textLength="245.5947" x="1753.2" y="381.0757">+ObtenerTodos() : List&lt;Producto&gt;</text></g><!--class AppDbContext--><g class="entity" data-entity="AppDbContext" data-source-line="76" data-uid="ent0017" id="entity_AppDbContext"><rect fill="#FFFFFF" height="80.5938" rx="2.5" ry="2.5" style="stroke:#000000;stroke-width:0.5;" width="174.5791" x="894.71" y="496.5269"/><ellipse cx="927.9218" cy="512.5269" fill="#ADD1B2" rx="11" ry="11" style="stroke:#181818;stroke-width:1;"/><path d="M930.8906,518.1675 Q930.3124,518.4644 929.6718,518.605 Q929.0312,518.7613 928.3281,518.7613 Q925.8281,518.7613 924.4999,517.1206 Q923.1874,515.4644 923.1874,512.3394 Q923.1874,509.2144 924.4999,507.5581 Q925.8281,505.9019 928.3281,505.9019 Q929.0312,505.9019 929.6718,506.0581 Q930.3281,506.2144 930.8906,506.5113 L930.8906,509.23 Q930.2656,508.6519 929.6718,508.3863 Q929.0781,508.105 928.4531,508.105 Q927.1093,508.105 926.4218,509.1831 Q925.7343,510.2456 925.7343,512.3394 Q925.7343,514.4331 926.4218,515.5113 Q927.1093,516.5738 928.4531,516.5738 Q929.0781,516.5738 929.6718,516.3081 Q930.2656,516.0269 930.8906,515.4488 L930.8906,518.1675 Z " fill="#000000"/><text fill="#000000" font-family="sans-serif" font-size="14" lengthAdjust="spacing" textLength="102.1084" x="945.9689" y="517.3736">AppDbContext</text><line style="stroke:#000000;stroke-width:0.5;" x1="895.71" x2="1068.2891" y1="528.5269" y2="528.5269"/><text fill="#000000" font-family="sans-serif" font-size="14" lengthAdjust="spacing" textLength="162.5791" x="900.71" y="545.522">+Users : DbSet&lt;User&gt;</text><line style="stroke:#000000;stroke-width:0.5;" x1="895.71" x2="1068.2891" y1="552.8238" y2="552.8238"/><text fill="#000000" font-family="sans-serif" font-size="14" lengthAdjust="spacing" textLength="123.7441" x="900.71" y="569.8189">+OnConfiguring()</text></g><!--class DbInitializer--><g class="entity" data-entity="DbInitializer" data-source-line="81" data-uid="ent0018" id="entity_DbInitializer"><rect fill="#FFFFFF" height="88.8594" rx="2.5" ry="2.5" style="stroke:#000000;stroke-width:0.5;" width="238.5977" x="830.7" y="295.5069"/><ellipse cx="903.742" cy="315.6397" fill="#ADD1B2" rx="11" ry="11" style="stroke:#181818;stroke-width:1;"/><path d="M906.7107,321.2803 Q906.1326,321.5772 905.492,321.7178 Q904.8514,321.8741 904.1482,321.8741 Q901.6482,321.8741 900.3201,320.2334 Q899.0076,318.5772 899.0076,315.4522 Q899.0076,312.3272 900.3201,310.6709 Q901.6482,309.0147 904.1482,309.0147 Q904.8514,309.0147 905.492,309.1709 Q906.1482,309.3272 906.7107,309.6241 L906.7107,312.3428 Q906.0857,311.7647 905.492,311.4991 Q904.8982,311.2178 904.2732,311.2178 Q902.9295,311.2178 902.242,312.2959 Q901.5545,313.3584 901.5545,315.4522 Q901.5545,317.5459 902.242,318.6241 Q902.9295,319.6866 904.2732,319.6866 Q904.8982,319.6866 905.492,319.4209 Q906.0857,319.1397 906.7107,318.5616 L906.7107,321.2803 Z " fill="#000000"/><text fill="#000000" font-family="sans-serif" font-size="12" font-style="italic" lengthAdjust="spacing" textLength="47.7598" x="942.3689" y="311.6455">&#171;static&#187;</text><text fill="#000000" font-family="sans-serif" font-size="14" lengthAdjust="spacing" textLength="84.0137" x="924.242" y="327.4707">DbInitializer</text><line style="stroke:#000000;stroke-width:0.5;" x1="831.7" x2="1068.2977" y1="335.7725" y2="335.7725"/><line style="stroke:#000000;stroke-width:0.5;" x1="831.7" x2="1068.2977" y1="343.7725" y2="343.7725"/><text fill="#000000" font-family="sans-serif" font-size="14" lengthAdjust="spacing" text-decoration="underline" textLength="226.5977" x="836.7" y="360.7676">+Initialize(AppDbContext) : void</text><text fill="#000000" font-family="sans-serif" font-size="14" lengthAdjust="spacing" text-decoration="underline" textLength="218.1895" x="836.7" y="377.0645">+HashPassword(string) : string</text></g><!--link AuthController to AuthService--><g class="link" data-entity-1="AuthController" data-entity-2="AuthService" data-source-line="88" data-uid="lnk19" id="link_AuthController_AuthService"><path codeLine="88" d="M1391.72,191.9169 C1367.24,225.9569 1340.0829,263.7256 1318.0929,294.3056" fill="none" id="AuthController-to-AuthService" style="stroke:#000000;stroke-width:1;"/><polygon fill="#000000" points="1314.59,299.1769,1323.0919,294.2052,1317.5091,295.1175,1316.5969,289.5347,1314.59,299.1769" style="stroke:#000000;stroke-width:1;"/><text fill="#000000" font-family="sans-serif" font-size="13" lengthAdjust="spacing" textLength="22.9785" x="1368.74" y="236.5538">usa</text></g><!--link AuthController to JwtService--><g class="link" data-entity-1="AuthController" data-entity-2="JwtService" data-source-line="89" data-uid="lnk20" id="link_AuthController_JwtService"><path codeLine="89" d="M1477.52,191.9169 C1505.19,225.9569 1536.0561,263.9405 1560.9061,294.5205" fill="none" id="AuthController-to-JwtService" style="stroke:#000000;stroke-width:1;"/><polygon fill="#000000" points="1564.69,299.1769,1562.1184,289.6697,1561.5368,295.2965,1555.9099,294.7149,1564.69,299.1769" style="stroke:#000000;stroke-width:1;"/><text fill="#000000" font-family="sans-serif" font-size="13" lengthAdjust="spacing" textLength="22.9785" x="1515.5" y="236.5538">usa</text></g><!--link ProductosController to ProductoService--><g class="link" data-entity-1="ProductosController" data-entity-2="ProductoService" data-source-line="90" data-uid="lnk21" id="link_ProductosController_ProductoService"><path codeLine="90" d="M1876,183.7569 C1876,216.1169 1876,252.6769 1876,285.0469" fill="none" id="ProductosController-to-ProductoService" style="stroke:#000000;stroke-width:1;"/><polygon fill="#000000" points="1876,291.0469,1880,282.0469,1876,286.0469,1872,282.0469,1876,291.0469" style="stroke:#000000;stroke-width:1;"/><text fill="#000000" font-family="sans-serif" font-size="13" lengthAdjust="spacing" textLength="22.9785" x="1877" y="236.5538">usa</text></g><!--link AuthService to AppDbContext--><g class="link" data-entity-1="AuthService" data-entity-2="AppDbContext" data-source-line="93" data-uid="lnk22" id="link_AuthService_AppDbContext"><path codeLine="93" d="M1163.2,380.7169 C1137.59,391.6369 1111.55,404.8469 1089,420.3769 C1058.96,441.0769 1034.9179,466.9175 1015.1879,491.3675" fill="none" id="AuthService-to-AppDbContext" style="stroke:#000000;stroke-width:1;"/><polygon fill="#000000" points="1011.42,496.0369,1020.1848,491.5448,1014.5599,492.1458,1013.959,486.5209,1011.42,496.0369" style="stroke:#000000;stroke-width:1;"/><text fill="#000000" font-family="sans-serif" font-size="13" lengthAdjust="spacing" textLength="22.9785" x="1090" y="433.4438">usa</text></g><!--link AppDbContext to User--><g class="link" data-entity-1="AppDbContext" data-entity-2="User" data-source-line="94" data-uid="lnk23" id="link_AppDbContext_User"><path codeLine="94" d="M984.34,577.4569 C986.15,608.0369 988.315,644.7474 990.335,678.8274" fill="none" id="AppDbContext-to-User" style="stroke:#000000;stroke-width:1;"/><polygon fill="#000000" points="990.69,684.8169,994.1505,675.596,990.3942,679.8256,986.1645,676.0693,990.69,684.8169" style="stroke:#000000;stroke-width:1;"/><text fill="#000000" font-family="sans-serif" font-size="13" lengthAdjust="spacing" textLength="55.8911" x="988.64" y="630.3338">gestiona</text></g><!--link ProductoService to Producto--><g class="link" data-entity-1="ProductoService" data-entity-2="Producto" data-source-line="97" data-uid="lnk24" id="link_ProductoService_Producto"><path codeLine="97" d="M1826.76,388.7369 C1764.36,447.2169 1651.43,546.2169 1540,609.2669 C1446.41,662.2269 1333.213,699.6671 1259.803,720.9371" fill="none" id="ProductoService-to-Producto" style="stroke:#000000;stroke-width:1;"/><polygon fill="#000000" points="1254.04,722.6069,1263.7976,723.9442,1258.8425,721.2154,1261.5713,716.2602,1254.04,722.6069" style="stroke:#000000;stroke-width:1;"/><text fill="#000000" font-family="sans-serif" font-size="13" lengthAdjust="spacing" textLength="55.8911" x="1762.83" y="541.3938">gestiona</text></g><!--link JwtService to User--><g class="link" data-entity-1="JwtService" data-entity-2="User" data-source-line="98" data-uid="lnk25" id="link_JwtService_User"><path codeLine="98" d="M1528.03,380.5569 C1410.55,448.4169 1176.97,585.0869 1101,642.2669 C1083.85,655.1769 1070.7035,666.3223 1054.8935,680.8823" fill="none" id="JwtService-to-User" style="stroke:#000000;stroke-width:1;"/><polygon fill="#000000" points="1050.48,684.9469,1059.81,681.7924,1054.1579,681.5597,1054.3906,675.9077,1050.48,684.9469" style="stroke:#000000;stroke-width:1;"/><text fill="#000000" font-family="sans-serif" font-size="13" lengthAdjust="spacing" textLength="120.4087" x="1410.67" y="541.3938">genera token para</text></g><!--link ProductoDto to Producto--><g class="link" data-entity-1="ProductoDto" data-entity-2="Producto" data-source-line="101" data-uid="lnk26" id="link_ProductoDto_Producto"><path codeLine="101" d="M644.82,585.6469 C668.21,595.2569 693.55,604.0069 718,609.2669 C790.8,624.9369 980.89,598.6969 1053,617.2669 C1095.12,628.1169 1126.767,658.4738 1150.417,688.4938" fill="none" id="ProductoDto-to-Producto" style="stroke:#000000;stroke-width:1;stroke-dasharray:7,7;"/><polygon fill="#000000" points="1154.13,693.2069,1151.7025,683.6619,1151.0358,689.2793,1145.4184,688.6126,1154.13,693.2069" style="stroke:#000000;stroke-width:1;"/><text fill="#000000" font-family="sans-serif" font-size="13" lengthAdjust="spacing" textLength="92.0854" x="1089.59" y="630.3338">se convierte a</text></g><!--link LoginRequestDto to User--><g class="link" data-entity-1="LoginRequestDto" data-entity-2="User" data-source-line="102" data-uid="lnk27" id="link_LoginRequestDto_User"><path codeLine="102" d="M141.07,577.5469 C156.19,589.4969 173.92,601.4969 192,609.2669 C434.7,713.6769 745.4424,735.5871 898.0524,739.9071" fill="none" id="LoginRequestDto-to-User" style="stroke:#000000;stroke-width:1;stroke-dasharray:7,7;"/><polygon fill="#000000" points="904.05,740.0769,895.1668,735.8238,899.052,739.9354,894.9404,743.8206,904.05,740.0769" style="stroke:#000000;stroke-width:1;"/><text fill="#000000" font-family="sans-serif" font-size="13" lengthAdjust="spacing" textLength="61.3628" x="254.09" y="630.3338">autentica</text></g><!--link DbInitializer to AppDbContext--><g class="link" data-entity-1="DbInitializer" data-entity-2="AppDbContext" data-source-line="105" data-uid="lnk28" id="link_DbInitializer_AppDbContext"><path codeLine="105" d="M957.18,384.6669 C962.67,418.1169 969.207,457.9163 974.527,490.2863" fill="none" id="DbInitializer-to-AppDbContext" style="stroke:#000000;stroke-width:1;"/><polygon fill="#000000" points="975.5,496.2069,977.9875,486.6773,974.6891,491.2731,970.0934,487.9747,975.5,496.2069" style="stroke:#000000;stroke-width:1;"/><text fill="#000000" font-family="sans-serif" font-size="13" lengthAdjust="spacing" textLength="56.2021" x="966.04" y="433.4438">inicializa</text></g><!--link DbInitializer to User--><g class="link" data-entity-1="DbInitializer" data-entity-2="User" data-source-line="106" data-uid="lnk29" id="link_DbInitializer_User"><path codeLine="106" d="M840.44,384.6669 C815.58,400.0069 792.31,419.9569 778,445.3769 C742.28,508.8569 742.33,545.7669 778,609.2669 C805.04,657.4169 852.1588,687.5662 898.6688,708.2762" fill="none" id="DbInitializer-to-User" style="stroke:#000000;stroke-width:1;"/><polygon fill="#000000" points="904.15,710.7169,897.5554,703.4018,899.5824,708.683,894.3011,710.71,904.15,710.7169" style="stroke:#000000;stroke-width:1;"/><text fill="#000000" font-family="sans-serif" font-size="13" lengthAdjust="spacing" textLength="97.0239" x="779" y="541.3938">crea seed data</text></g><!--SRC=[ZLRVRzem47xFNs5r3mjQgRhN2Z5Hc3ggTaMbsxIdoKbkmSFOp7PArwh_- -x08SuFs7X1EN- -xxlludESS1BOHF3Sy1Ld6R2nv1OiwxEPqLcHkbkkU0uhK6uqcqQHNGgrvWXcAGBjo3aZaiB1DDLgBfw1dJSXx2LY-BlawJ8tkb3PM4jjsBU5SB1RqIO3iujUIeHjeoDZz2OClaRH6lzH33kvrHb8UyBUt8XyuIvb0Pvbn_Z5Wl41-hsRPko22UMg224KNm76BLQWychfuueBsH6VOUODIlt4xQA-ZCegRc-R3ld7EXEvxiZvMQyIqoLYPY0Lj2F3_nMNdYVqOF9mjtVWoW2ecWKtEXVg7duNODsahkP8xMMDH-hpYUrQAmkDp0zwYJB-xStag3riC23Xma0s71xqwW2gQHp1kCeXFZyxVt_ALlofv-5rDyTQEQEb1BCtzJj8gJSrLqU5MrJ8e8R-3uvBSp2F8YMDe-efmFpQk0folN-er6_DZHkzwr6-r0bDjXVI3Pej2Cg_0dSBSNF7uKxO0zMi_NebTrQFL9IZt43EJHmqjwMuN0kKtYKE59W7dMaRjqiKDjZLrJ2lOz-jcL3BLgzA-M5fEAWSF3bYNAydoNZtM0dxogN8k0Cw9d7XpyefM_kZGL9fwKFRrAgZJSAV8YyCf_fmztGS1iBUeHz8l3r5CN7q_kCiTJ6MtREul-xauROHLvneBKyzPUz8hpgIDeOJTxmQJlnFlJE1xyt1H98doHpSW9x2zqMLjg6skDSsP99CbN02k_UCB_DWO1twcmw78SFBBlZAAcWSgg7Q7hN8EdRGs2_7O-mTQhO7zRnbzu3N5JOMBz5WgB3-a9MlRDGO8trS6zN6Hs5v5-Wwd1-4wJh619orZY-Xw-9ADQICsXM54hQImZPvJM68CDkRzeBbEAamwp6AtPKTDPM5QiD4GQar7ZeYp6tl6Vh6Q13IdTX1HlVDsLcDo0B3S_aem3XWF6fUbuJsd3ZOyUD7f2qkygp-qdMu9fH8jyjTMC-G6k0e23AMKSw_]--></g></svg>