<svg xmlns="http://www.w3.org/2000/svg" xmlns:xlink="http://www.w3.org/1999/xlink" contentStyleType="text/css" data-diagram-type="DESCRIPTION" height="1225px" preserveAspectRatio="none" style="width:1068px;height:1225px;background:#FFFFFF;" version="1.1" viewBox="0 0 1068 1225" width="1068px" zoomAndPan="magnify"><title>Diagrama de Componentes - ProductManagementAPI</title><defs/><g><g class="title" data-source-line="1"><text fill="#000000" font-family="sans-serif" font-size="14" font-weight="bold" lengthAdjust="spacing" textLength="420.2871" x="316.8564" y="22.9951">Diagrama de Componentes - ProductManagementAPI</text></g><!--cluster Internet--><g class="cluster" data-entity="Internet" data-source-line="14" data-uid="ent0003" id="cluster_Internet"><path d="M265.0607,190.3856 C268.1614,185.8373 271.8595,186.8739 274.4464,190.945 C277.0527,183.9813 283.0491,183.8896 287.2967,189.2311 C289.911,184.7193 294.2795,183.515 297.5552,188.5181 C301.4897,182.7645 305.8214,183.7519 309.0544,189.2359 C311.9488,183.909 316.0573,184.1382 319.6927,188.415 C322.5066,181.8015 329.0108,181.5852 332.7254,187.4762 C336.3185,182.3351 340.0804,183.6036 343.1608,188.0352 C346.7376,182.6891 351.0823,182.9052 354.1092,188.5814 C358.1196,183.3227 362.8268,183.1548 366.6919,188.7498 C370.0554,185.1134 374.5875,185.3576 376.5581,190.3437 C380.1705,184.1998 386.1768,185.2652 389.5619,190.6011 C393.4281,185.6998 397.8208,187.2083 400.3527,192.075 C406.3729,195.8551 405.2693,201.8754 399.8295,205.1986 C405.3888,208.3371 406.4639,214.6824 400.524,218.4247 C407.4727,221.8016 408.3121,227.9136 402.209,232.8184 C408.2614,236.9306 407.3473,242.303 400.8514,245.0189 C408.2949,249.0588 407.0188,254.0754 401.2876,258.5403 C406.5263,263.8193 406.2918,267.8156 399.6053,271.553 C397.0292,278.2337 392.889,278.3065 388.3062,273.5325 C384.6593,278.9309 380.5836,279.7406 376.728,273.7445 C373.8588,279.9358 370.4558,279.6222 366.178,275.1364 C363.4337,282.5441 359.3782,281.6645 354.1958,277.707 C350.5038,282.3479 346.8621,281.6197 343.8891,276.9142 C342.1813,283.15 337.8066,283.7587 333.1901,280.0406 C327.7464,286.002 322.5861,283.8014 320.401,276.8205 C316.3596,282.3361 312.9627,280.88 309.5996,276.1082 C306.1151,281.1416 301.6911,281.9821 298.0927,276.2297 C293.9331,281.2043 288.3974,280.325 286.3117,274.0565 C282.4718,279.3885 277.1542,279.5222 274.5585,272.8394 C271.2648,277.1573 267.9173,278.3175 264.1818,273.332 C256.2011,269.5983 256.791,263.8018 263.2728,259.1416 C257.3237,255.6591 255.9062,249.7649 262.929,245.9444 C255.1704,242.5261 255.0605,236.0981 261.21,231.0723 C255.2368,226.2076 257.3638,221.816 263.1781,218.8493 C257.6334,213.9616 257.9688,208.9047 263.9214,204.6174 C257.9636,200.1893 258.0514,193.7756 265.0607,190.3856" fill="#F5F5F5" style="stroke:#181818;stroke-width:1;"/><text fill="#000000" font-family="sans-serif" font-size="14" font-weight="bold" lengthAdjust="spacing" textLength="64.4219" x="298.7891" y="208.082">Internet</text></g><!--cluster ProductManagementAPI--><g class="cluster" data-entity="ProductManagementAPI" data-source-line="18" data-uid="ent0005" id="cluster_ProductManagementAPI"><path d="M8.5,312.3869 L200.6191,312.3869 A3.75,3.75 0 0 1 203.1191,314.8869 L210.1191,334.6837 L821.5,334.6837 A2.5,2.5 0 0 1 824,337.1837 L824,1004.3669 A2.5,2.5 0 0 1 821.5,1006.8669 L8.5,1006.8669 A2.5,2.5 0 0 1 6,1004.3669 L6,314.8869 A2.5,2.5 0 0 1 8.5,312.3869" fill="#F5F5F5" style="stroke:#000000;stroke-width:1.5;"/><line style="stroke:#000000;stroke-width:1.5;" x1="6" x2="210.1191" y1="334.6837" y2="334.6837"/><text fill="#000000" font-family="sans-serif" font-size="14" font-weight="bold" lengthAdjust="spacing" textLength="191.1191" x="10" y="327.382">ProductManagementAPI</text></g><!--cluster Presentation Layer--><g class="cluster" data-entity="Presentation Layer" data-source-line="20" data-uid="ent0006" id="cluster_Presentation Layer"><path d="M32.5,592.9769 L183.9385,592.9769 A3.75,3.75 0 0 1 186.4385,595.4769 L193.4385,615.2737 L797.5,615.2737 A2.5,2.5 0 0 1 800,617.7737 L800,687.7769 A2.5,2.5 0 0 1 797.5,690.2769 L32.5,690.2769 A2.5,2.5 0 0 1 30,687.7769 L30,595.4769 A2.5,2.5 0 0 1 32.5,592.9769" fill="#FFFFE0" style="stroke:#000000;stroke-width:1.5;"/><line style="stroke:#000000;stroke-width:1.5;" x1="30" x2="193.4385" y1="615.2737" y2="615.2737"/><text fill="#000000" font-family="sans-serif" font-size="14" font-weight="bold" lengthAdjust="spacing" textLength="150.4385" x="34" y="607.972">Presentation Layer</text></g><!--cluster Security--><g class="cluster" data-entity="Security" data-source-line="35" data-uid="ent0015" id="cluster_Security"><path d="M208.5,355.3869 L274.8652,355.3869 A3.75,3.75 0 0 1 277.3652,357.8869 L284.3652,377.6837 L453.5,377.6837 A2.5,2.5 0 0 1 456,380.1837 L456,557.4769 A2.5,2.5 0 0 1 453.5,559.9769 L208.5,559.9769 A2.5,2.5 0 0 1 206,557.4769 L206,357.8869 A2.5,2.5 0 0 1 208.5,355.3869" fill="#F08080" style="stroke:#000000;stroke-width:1.5;"/><line style="stroke:#000000;stroke-width:1.5;" x1="206" x2="284.3652" y1="377.6837" y2="377.6837"/><text fill="#000000" font-family="sans-serif" font-size="14" font-weight="bold" lengthAdjust="spacing" textLength="65.3652" x="210" y="370.382">Security</text></g><!--cluster Business Layer--><g class="cluster" data-entity="Business Layer" data-source-line="40" data-uid="ent0018" id="cluster_Business Layer"><path d="M92.5,723.2769 L212.165,723.2769 A3.75,3.75 0 0 1 214.665,725.7769 L221.665,745.5737 L580.5,745.5737 A2.5,2.5 0 0 1 583,748.0737 L583,818.0769 A2.5,2.5 0 0 1 580.5,820.5769 L92.5,820.5769 A2.5,2.5 0 0 1 90,818.0769 L90,725.7769 A2.5,2.5 0 0 1 92.5,723.2769" fill="#FFB6C1" style="stroke:#000000;stroke-width:1.5;"/><line style="stroke:#000000;stroke-width:1.5;" x1="90" x2="221.665" y1="745.5737" y2="745.5737"/><text fill="#000000" font-family="sans-serif" font-size="14" font-weight="bold" lengthAdjust="spacing" textLength="118.665" x="94" y="738.272">Business Layer</text></g><!--cluster Data Layer--><g class="cluster" data-entity="Data Layer" data-source-line="46" data-uid="ent0022" id="cluster_Data Layer"><path d="M146.5,885.5769 L233.4756,885.5769 A3.75,3.75 0 0 1 235.9756,888.0769 L242.9756,907.8738 L474.5,907.8738 A2.5,2.5 0 0 1 477,910.3738 L477,980.3669 A2.5,2.5 0 0 1 474.5,982.8669 L146.5,982.8669 A2.5,2.5 0 0 1 144,980.3669 L144,888.0769 A2.5,2.5 0 0 1 146.5,885.5769" fill="#D3D3D3" style="stroke:#000000;stroke-width:1.5;"/><line style="stroke:#000000;stroke-width:1.5;" x1="144" x2="242.9756" y1="907.8738" y2="907.8738"/><text fill="#000000" font-family="sans-serif" font-size="14" font-weight="bold" lengthAdjust="spacing" textLength="85.9756" x="148" y="900.572">Data Layer</text></g><!--cluster sqlite--><g class="cluster" data-entity="sqlite" data-source-line="52" data-uid="ent0025" id="cluster_sqlite"><path d="M148,1073.8669 C148,1063.8669 242.5,1063.8669 242.5,1063.8669 C242.5,1063.8669 337,1063.8669 337,1073.8669 L337,1198.1669 C337,1208.1669 242.5,1208.1669 242.5,1208.1669 C242.5,1208.1669 148,1208.1669 148,1198.1669 L148,1073.8669" fill="#F5F5F5" style="stroke:#181818;stroke-width:1;"/><path d="M148,1073.8669 C148,1083.8669 242.5,1083.8669 242.5,1083.8669 C242.5,1083.8669 337,1083.8669 337,1073.8669" fill="none" style="stroke:#181818;stroke-width:1;"/><text fill="#000000" font-family="sans-serif" font-size="14" font-weight="bold" lengthAdjust="spacing" textLength="51.8916" x="216.5542" y="1098.862">SQLite</text><text fill="#000000" font-family="sans-serif" font-size="14" font-weight="bold" lengthAdjust="spacing" textLength="81.1904" x="201.9048" y="1115.1589">(users.db)</text></g><!--cluster memory--><g class="cluster" data-entity="memory" data-source-line="56" data-uid="ent0027" id="cluster_memory"><rect fill="#F5F5F5" height="113.29" rx="35" ry="35" style="stroke:#181818;stroke-width:1;" width="206" x="856" y="877.5769"/><text fill="#000000" font-family="sans-serif" font-size="14" font-weight="bold" lengthAdjust="spacing" textLength="151.7852" x="883.1074" y="897.572">In-Memory Storage</text></g><!--entity swagger--><g class="entity" data-entity="swagger" data-source-line="15" data-uid="ent0004" id="entity_swagger"><rect fill="#FFFFFF" height="46.2969" rx="2.5" ry="2.5" style="stroke:#000000;stroke-width:0.5;" width="119.8848" x="271.06" y="217.0869"/><rect fill="#FFFFFF" height="10" style="stroke:#000000;stroke-width:0.5;" width="15" x="370.9448" y="222.0869"/><rect fill="#FFFFFF" height="2" style="stroke:#000000;stroke-width:0.5;" width="4" x="368.9448" y="224.0869"/><rect fill="#FFFFFF" height="2" style="stroke:#000000;stroke-width:0.5;" width="4" x="368.9448" y="228.0869"/><text fill="#000000" font-family="sans-serif" font-size="14" lengthAdjust="spacing" textLength="79.8848" x="286.06" y="250.082">Swagger UI</text></g><!--entity auth_ctrl--><g class="entity" data-entity="auth_ctrl" data-source-line="21" data-uid="ent0007" id="entity_auth_ctrl"><rect fill="#FFFFFF" height="46.2969" rx="2.5" ry="2.5" style="stroke:#000000;stroke-width:0.5;" width="141.9854" x="46.01" y="627.9769"/><rect fill="#FFFFFF" height="10" style="stroke:#000000;stroke-width:0.5;" width="15" x="167.9954" y="632.9769"/><rect fill="#FFFFFF" height="2" style="stroke:#000000;stroke-width:0.5;" width="4" x="165.9954" y="634.9769"/><rect fill="#FFFFFF" height="2" style="stroke:#000000;stroke-width:0.5;" width="4" x="165.9954" y="638.9769"/><text fill="#000000" font-family="sans-serif" font-size="14" lengthAdjust="spacing" textLength="101.9854" x="61.01" y="660.972">AuthController</text></g><!--entity prod_ctrl--><g class="entity" data-entity="prod_ctrl" data-source-line="22" data-uid="ent0008" id="entity_prod_ctrl"><rect fill="#FFFFFF" height="46.2969" rx="2.5" ry="2.5" style="stroke:#000000;stroke-width:0.5;" width="178.7422" x="417.63" y="627.9769"/><rect fill="#FFFFFF" height="10" style="stroke:#000000;stroke-width:0.5;" width="15" x="576.3722" y="632.9769"/><rect fill="#FFFFFF" height="2" style="stroke:#000000;stroke-width:0.5;" width="4" x="574.3722" y="634.9769"/><rect fill="#FFFFFF" height="2" style="stroke:#000000;stroke-width:0.5;" width="4" x="574.3722" y="638.9769"/><text fill="#000000" font-family="sans-serif" font-size="14" lengthAdjust="spacing" textLength="138.7422" x="432.63" y="660.972">ProductosController</text></g><g class="entity" data-entity="GMN9" data-source-line="25" data-uid="ent0010" id="entity_GMN9"><path d="M223.42,630.9969 L223.42,647.1269 L188.2,651.1269 L223.42,655.1269 L223.42,671.2625 A0,0 0 0 0 223.42,671.2625 L382.5831,671.2625 A0,0 0 0 0 382.5831,671.2625 L382.5831,640.9969 L372.5831,630.9969 L223.42,630.9969 A0,0 0 0 0 223.42,630.9969" fill="#FEFFDD" style="stroke:#181818;stroke-width:0.5;"/><path d="M372.5831,630.9969 L372.5831,640.9969 L382.5831,640.9969 L372.5831,630.9969" fill="#FEFFDD" style="stroke:#181818;stroke-width:0.5;"/><text fill="#000000" font-family="sans-serif" font-size="13" lengthAdjust="spacing" textLength="138.1631" x="229.42" y="648.0638">POST /api/users/login</text><text fill="#000000" font-family="sans-serif" font-size="13" lengthAdjust="spacing" textLength="119.1201" x="229.42" y="663.1966">GET /api/users/me</text></g><g class="entity" data-entity="GMN12" data-source-line="30" data-uid="ent0013" id="entity_GMN12"><path d="M631.5,630.9969 L631.5,647.1269 L596.51,651.1269 L631.5,655.1269 L631.5,671.2625 A0,0 0 0 0 631.5,671.2625 L784.4995,671.2625 A0,0 0 0 0 784.4995,671.2625 L784.4995,640.9969 L774.4995,630.9969 L631.5,630.9969 A0,0 0 0 0 631.5,630.9969" fill="#FEFFDD" style="stroke:#181818;stroke-width:0.5;"/><path d="M774.4995,630.9969 L774.4995,640.9969 L784.4995,640.9969 L774.4995,630.9969" fill="#FEFFDD" style="stroke:#181818;stroke-width:0.5;"/><text fill="#000000" font-family="sans-serif" font-size="13" lengthAdjust="spacing" textLength="131.9995" x="637.5" y="648.0638">POST /api/productos</text><text fill="#000000" font-family="sans-serif" font-size="13" lengthAdjust="spacing" textLength="123.9634" x="637.5" y="663.1966">GET /api/productos</text></g><!--entity jwt_auth--><g class="entity" data-entity="jwt_auth" data-source-line="36" data-uid="ent0016" id="entity_jwt_auth"><rect fill="#FFFFFF" height="46.2969" rx="2.5" ry="2.5" style="stroke:#000000;stroke-width:0.5;" width="173.7451" x="244.13" y="390.3869"/><rect fill="#FFFFFF" height="10" style="stroke:#000000;stroke-width:0.5;" width="15" x="397.8751" y="395.3869"/><rect fill="#FFFFFF" height="2" style="stroke:#000000;stroke-width:0.5;" width="4" x="395.8751" y="397.3869"/><rect fill="#FFFFFF" height="2" style="stroke:#000000;stroke-width:0.5;" width="4" x="395.8751" y="401.3869"/><text fill="#000000" font-family="sans-serif" font-size="14" lengthAdjust="spacing" textLength="133.7451" x="259.13" y="423.382">JWT Authentication</text></g><!--entity auth_middleware--><g class="entity" data-entity="auth_middleware" data-source-line="37" data-uid="ent0017" id="entity_auth_middleware"><rect fill="#FFFFFF" height="46.2969" rx="2.5" ry="2.5" style="stroke:#000000;stroke-width:0.5;" width="218.8623" x="221.57" y="497.6869"/><rect fill="#FFFFFF" height="10" style="stroke:#000000;stroke-width:0.5;" width="15" x="420.4323" y="502.6869"/><rect fill="#FFFFFF" height="2" style="stroke:#000000;stroke-width:0.5;" width="4" x="418.4323" y="504.6869"/><rect fill="#FFFFFF" height="2" style="stroke:#000000;stroke-width:0.5;" width="4" x="418.4323" y="508.6869"/><text fill="#000000" font-family="sans-serif" font-size="14" lengthAdjust="spacing" textLength="178.8623" x="236.57" y="530.682">Authorization Middleware</text></g><!--entity auth_svc--><g class="entity" data-entity="auth_svc" data-source-line="41" data-uid="ent0019" id="entity_auth_svc"><rect fill="#FFFFFF" height="46.2969" rx="2.5" ry="2.5" style="stroke:#000000;stroke-width:0.5;" width="124.5537" x="105.72" y="758.2769"/><rect fill="#FFFFFF" height="10" style="stroke:#000000;stroke-width:0.5;" width="15" x="210.2737" y="763.2769"/><rect fill="#FFFFFF" height="2" style="stroke:#000000;stroke-width:0.5;" width="4" x="208.2737" y="765.2769"/><rect fill="#FFFFFF" height="2" style="stroke:#000000;stroke-width:0.5;" width="4" x="208.2737" y="769.2769"/><text fill="#000000" font-family="sans-serif" font-size="14" lengthAdjust="spacing" textLength="84.5537" x="120.72" y="791.272">AuthService</text></g><!--entity jwt_svc--><g class="entity" data-entity="jwt_svc" data-source-line="42" data-uid="ent0020" id="entity_jwt_svc"><rect fill="#FFFFFF" height="46.2969" rx="2.5" ry="2.5" style="stroke:#000000;stroke-width:0.5;" width="112.8096" x="265.6" y="758.2769"/><rect fill="#FFFFFF" height="10" style="stroke:#000000;stroke-width:0.5;" width="15" x="358.4096" y="763.2769"/><rect fill="#FFFFFF" height="2" style="stroke:#000000;stroke-width:0.5;" width="4" x="356.4096" y="765.2769"/><rect fill="#FFFFFF" height="2" style="stroke:#000000;stroke-width:0.5;" width="4" x="356.4096" y="769.2769"/><text fill="#000000" font-family="sans-serif" font-size="14" lengthAdjust="spacing" textLength="72.8096" x="280.6" y="791.272">JwtService</text></g><!--entity prod_svc--><g class="entity" data-entity="prod_svc" data-source-line="43" data-uid="ent0021" id="entity_prod_svc"><rect fill="#FFFFFF" height="46.2969" rx="2.5" ry="2.5" style="stroke:#000000;stroke-width:0.5;" width="154.0166" x="412.99" y="758.2769"/><rect fill="#FFFFFF" height="10" style="stroke:#000000;stroke-width:0.5;" width="15" x="547.0066" y="763.2769"/><rect fill="#FFFFFF" height="2" style="stroke:#000000;stroke-width:0.5;" width="4" x="545.0066" y="765.2769"/><rect fill="#FFFFFF" height="2" style="stroke:#000000;stroke-width:0.5;" width="4" x="545.0066" y="769.2769"/><text fill="#000000" font-family="sans-serif" font-size="14" lengthAdjust="spacing" textLength="114.0166" x="427.99" y="791.272">ProductoService</text></g><!--entity db_ctx--><g class="entity" data-entity="db_ctx" data-source-line="47" data-uid="ent0023" id="entity_db_ctx"><rect fill="#FFFFFF" height="46.2969" rx="2.5" ry="2.5" style="stroke:#000000;stroke-width:0.5;" width="142.1084" x="159.95" y="920.5769"/><rect fill="#FFFFFF" height="10" style="stroke:#000000;stroke-width:0.5;" width="15" x="282.0584" y="925.5769"/><rect fill="#FFFFFF" height="2" style="stroke:#000000;stroke-width:0.5;" width="4" x="280.0584" y="927.5769"/><rect fill="#FFFFFF" height="2" style="stroke:#000000;stroke-width:0.5;" width="4" x="280.0584" y="931.5769"/><text fill="#000000" font-family="sans-serif" font-size="14" lengthAdjust="spacing" textLength="102.1084" x="174.95" y="953.572">AppDbContext</text></g><!--entity db_init--><g class="entity" data-entity="db_init" data-source-line="48" data-uid="ent0024" id="entity_db_init"><rect fill="#FFFFFF" height="46.2969" rx="2.5" ry="2.5" style="stroke:#000000;stroke-width:0.5;" width="124.0137" x="336.99" y="920.5769"/><rect fill="#FFFFFF" height="10" style="stroke:#000000;stroke-width:0.5;" width="15" x="441.0037" y="925.5769"/><rect fill="#FFFFFF" height="2" style="stroke:#000000;stroke-width:0.5;" width="4" x="439.0037" y="927.5769"/><rect fill="#FFFFFF" height="2" style="stroke:#000000;stroke-width:0.5;" width="4" x="439.0037" y="931.5769"/><text fill="#000000" font-family="sans-serif" font-size="14" lengthAdjust="spacing" textLength="84.0137" x="351.99" y="953.572">DbInitializer</text></g><!--entity Users Table--><g class="entity" data-entity="Users Table" data-source-line="53" data-uid="ent0026" id="entity_Users Table"><rect fill="#FFFFFF" height="46.2969" rx="2.5" ry="2.5" style="stroke:#000000;stroke-width:0.5;" width="122.1748" x="171.91" y="1137.8669"/><rect fill="#FFFFFF" height="10" style="stroke:#000000;stroke-width:0.5;" width="15" x="274.0848" y="1142.8669"/><rect fill="#FFFFFF" height="2" style="stroke:#000000;stroke-width:0.5;" width="4" x="272.0848" y="1144.8669"/><rect fill="#FFFFFF" height="2" style="stroke:#000000;stroke-width:0.5;" width="4" x="272.0848" y="1148.8669"/><text fill="#000000" font-family="sans-serif" font-size="14" lengthAdjust="spacing" textLength="82.1748" x="186.91" y="1170.862">Users Table</text></g><!--entity Productos List--><g class="entity" data-entity="Productos List" data-source-line="57" data-uid="ent0028" id="entity_Productos List"><rect fill="#FFFFFF" height="46.2969" rx="2.5" ry="2.5" style="stroke:#000000;stroke-width:0.5;" width="138.4922" x="879.75" y="920.5769"/><rect fill="#FFFFFF" height="10" style="stroke:#000000;stroke-width:0.5;" width="15" x="998.2422" y="925.5769"/><rect fill="#FFFFFF" height="2" style="stroke:#000000;stroke-width:0.5;" width="4" x="996.2422" y="927.5769"/><rect fill="#FFFFFF" height="2" style="stroke:#000000;stroke-width:0.5;" width="4" x="996.2422" y="931.5769"/><text fill="#000000" font-family="sans-serif" font-size="14" lengthAdjust="spacing" textLength="98.4922" x="894.75" y="953.572">Productos List</text></g><!--entity client--><g class="entity" data-entity="client" data-source-line="12" data-uid="ent0002" id="entity_client"><ellipse cx="331.0035" cy="51.2969" fill="#F1F1F1" rx="8" ry="8" style="stroke:#181818;stroke-width:0.5;"/><path d="M331.0035,59.2969 L331.0035,86.2969 M318.0035,67.2969 L344.0035,67.2969 M331.0035,86.2969 L318.0035,101.2969 M331.0035,86.2969 L344.0035,101.2969" fill="none" style="stroke:#181818;stroke-width:0.5;"/><text fill="#000000" font-family="sans-serif" font-size="14" lengthAdjust="spacing" textLength="89.667" x="286.17" y="115.792">Cliente HTTP</text></g><!--link client to swagger--><g class="link" data-entity-1="client" data-entity-2="swagger" data-source-line="61" data-uid="lnk29" id="link_client_swagger"><path d="M331,119.2169 C331,149.5569 331,185.3869 331,210.8069" fill="none" id="client-to-swagger" style="stroke:#181818;stroke-width:1;"/><polygon fill="#181818" points="331,216.8069,335,207.8069,331,211.8069,327,207.8069,331,216.8069" style="stroke:#181818;stroke-width:1;"/><text fill="#000000" font-family="sans-serif" font-size="13" lengthAdjust="spacing" textLength="91.019" x="332" y="162.1538">HTTP Request</text></g><!--link swagger to jwt_auth--><g class="link" data-entity-1="swagger" data-entity-2="jwt_auth" data-source-line="62" data-uid="lnk30" id="link_swagger_jwt_auth"><path d="M331,263.6269 C331,296.4569 331,351.3069 331,384.1369" fill="none" id="swagger-to-jwt_auth" style="stroke:#181818;stroke-width:1;"/><polygon fill="#181818" points="331,390.1369,335,381.1369,331,385.1369,327,381.1369,331,390.1369" style="stroke:#181818;stroke-width:1;"/></g><!--link jwt_auth to auth_middleware--><g class="link" data-entity-1="jwt_auth" data-entity-2="auth_middleware" data-source-line="65" data-uid="lnk31" id="link_jwt_auth_auth_middleware"><path d="M331,437.1269 C331,454.8869 331,473.5269 331,491.2769" fill="none" id="jwt_auth-to-auth_middleware" style="stroke:#181818;stroke-width:1;"/><polygon fill="#181818" points="331,497.2769,335,488.2769,331,492.2769,327,488.2769,331,497.2769" style="stroke:#181818;stroke-width:1;"/></g><!--link auth_middleware to auth_ctrl--><g class="link" data-entity-1="auth_middleware" data-entity-2="auth_ctrl" data-source-line="66" data-uid="lnk32" id="link_auth_middleware_auth_ctrl"><path d="M281.61,544.4669 C258.21,555.7669 230.15,570.1769 206,584.9769 C184.78,597.9869 166.9153,610.9281 149.7853,624.1081" fill="none" id="auth_middleware-to-auth_ctrl" style="stroke:#181818;stroke-width:1;"/><polygon fill="#181818" points="145.03,627.7669,154.6022,625.4489,148.9928,624.7179,149.7238,619.1085,145.03,627.7669" style="stroke:#181818;stroke-width:1;"/></g><!--link auth_middleware to prod_ctrl--><g class="link" data-entity-1="auth_middleware" data-entity-2="prod_ctrl" data-source-line="67" data-uid="lnk33" id="link_auth_middleware_prod_ctrl"><path d="M362.06,544.4769 C394.13,567.8569 439.0422,600.5816 471.1022,623.9616" fill="none" id="auth_middleware-to-prod_ctrl" style="stroke:#181818;stroke-width:1;"/><polygon fill="#181818" points="475.95,627.4969,471.0351,618.962,471.9101,624.5508,466.3214,625.4258,475.95,627.4969" style="stroke:#181818;stroke-width:1;"/></g><!--link auth_ctrl to auth_svc--><g class="link" data-entity-1="auth_ctrl" data-entity-2="auth_svc" data-source-line="70" data-uid="lnk34" id="link_auth_ctrl_auth_svc"><path d="M126,674.7669 C135.32,698.2169 147.5828,729.0716 156.8728,752.4316" fill="none" id="auth_ctrl-to-auth_svc" style="stroke:#181818;stroke-width:1;"/><polygon fill="#181818" points="159.09,758.0069,159.481,748.1658,157.2423,753.3608,152.0473,751.1221,159.09,758.0069" style="stroke:#181818;stroke-width:1;"/></g><!--link auth_ctrl to jwt_svc--><g class="link" data-entity-1="auth_ctrl" data-entity-2="jwt_svc" data-source-line="71" data-uid="lnk35" id="link_auth_ctrl_jwt_svc"><path d="M158.26,674.5469 C173.15,682.3669 190.19,690.9969 206,698.2769 C224.29,706.6969 230.87,704.6969 248,715.2769 C267.37,727.2369 282.3016,740.1605 296.2916,753.8505" fill="none" id="auth_ctrl-to-jwt_svc" style="stroke:#181818;stroke-width:1;"/><polygon fill="#181818" points="300.58,758.0469,296.9451,748.8933,297.0064,754.5499,291.3498,754.6112,300.58,758.0469" style="stroke:#181818;stroke-width:1;"/></g><!--link prod_ctrl to prod_svc--><g class="link" data-entity-1="prod_ctrl" data-entity-2="prod_svc" data-source-line="72" data-uid="lnk36" id="link_prod_ctrl_prod_svc"><path d="M504,674.7669 C500.89,698.2169 496.8593,728.699 493.7593,752.059" fill="none" id="prod_ctrl-to-prod_svc" style="stroke:#181818;stroke-width:1;"/><polygon fill="#181818" points="492.97,758.0069,498.1192,749.6113,493.6278,753.0503,490.1887,748.5589,492.97,758.0069" style="stroke:#181818;stroke-width:1;"/></g><!--link auth_svc to db_ctx--><g class="link" data-entity-1="auth_svc" data-entity-2="db_ctx" data-source-line="75" data-uid="lnk37" id="link_auth_svc_db_ctx"><path d="M176.89,805.0469 C188.9,835.5969 207.9758,884.1325 219.9558,914.6225" fill="none" id="auth_svc-to-db_ctx" style="stroke:#181818;stroke-width:1;"/><polygon fill="#181818" points="222.15,920.2069,222.5816,910.3675,220.3215,915.5532,215.1358,913.2931,222.15,920.2069" style="stroke:#181818;stroke-width:1;"/></g><!--link jwt_svc to db_ctx--><g class="link" data-entity-1="jwt_svc" data-entity-2="db_ctx" data-source-line="76" data-uid="lnk38" id="link_jwt_svc_db_ctx"><path d="M309.15,805.0469 C291.81,835.5969 264.0523,884.4991 246.7423,914.9891" fill="none" id="jwt_svc-to-db_ctx" style="stroke:#181818;stroke-width:1;stroke-dasharray:7,7;"/><polygon fill="#181818" points="243.78,920.2069,251.7019,914.3551,246.2486,915.8587,244.7449,910.4054,243.78,920.2069" style="stroke:#181818;stroke-width:1;"/><text fill="#000000" font-family="sans-serif" font-size="13" lengthAdjust="spacing" textLength="112.0234" x="290.97" y="849.6438">lee configuracion</text></g><!--link db_ctx to sqlite--><g class="link" data-entity-1="db_ctx" data-entity-2="sqlite" data-source-line="79" data-uid="lnk39" id="link_db_ctx_sqlite"><path d="M253.47,967.1769 C271.69,986.7669 296.49,1016.8469 310,1047.8669 C311.2419,1050.7188 312.4029,1053.6442 313.4882,1056.6234 C314.0308,1058.113 314.5546,1059.6161 315.0601,1061.1301 C315.3129,1061.8871 313.7337,1056.9319 313.9774,1057.694" fill="none" id="db_ctx-to-sqlite" style="stroke:#181818;stroke-width:1;"/><polygon fill="#181818" points="315.8047,1063.409,316.8736,1053.6183,314.2819,1058.6465,309.2537,1056.0548,315.8047,1063.409" style="stroke:#181818;stroke-width:1;"/></g><!--link db_init to sqlite--><g class="link" data-entity-1="db_init" data-entity-2="sqlite" data-source-line="80" data-uid="lnk40" id="link_db_init_sqlite"><path d="M391.64,967.3569 C382.795,994.5619 367.4825,1041.6594 354.2112,1082.4769 C350.8934,1092.6812 347.7032,1102.4931 344.7735,1111.5036 C343.3086,1116.0088 341.9089,1120.3136 340.5909,1124.367 C339.932,1126.3937 339.2934,1128.3575 338.6774,1130.2521 C338.3694,1131.1993 338.067,1132.1293 337.7705,1133.0412 C337.6222,1133.4971 337.4755,1133.9485 337.3302,1134.3952 C337.2575,1134.6186 339.0406,1129.1349 338.9688,1129.356" fill="none" id="db_init-to-sqlite" style="stroke:#181818;stroke-width:1;"/><polygon fill="#181818" points="337.1134,1135.0619,343.7004,1127.7399,338.6595,1130.307,336.0925,1125.2661,337.1134,1135.0619" style="stroke:#181818;stroke-width:1;"/><text fill="#000000" font-family="sans-serif" font-size="13" lengthAdjust="spacing" textLength="64.4351" x="373.33" y="1035.9338">seed data</text></g><!--link prod_svc to memory--><g class="link" data-entity-1="prod_svc" data-entity-2="memory" data-source-line="81" data-uid="lnk41" id="link_prod_svc_memory"><path d="M567.5,783.3769 C701.12,786.6369 967.03,800.8069 1034,861.5769 C1037.3313,864.5994 1040.1491,868.0797 1042.5289,871.8626 C1043.1239,872.8083 1043.6915,873.773 1044.2329,874.7541 C1044.5036,875.2447 1044.7677,875.7394 1045.0255,876.2379 C1045.1544,876.4871 1045.2816,876.7374 1045.4073,876.9885 C1045.4702,877.114 1042.8819,871.8571 1042.9439,871.9832" fill="none" id="prod_svc-to-memory" style="stroke:#181818;stroke-width:1;"/><polygon fill="#181818" points="1045.5947,877.3659,1045.207,867.5246,1043.3857,872.8803,1038.0301,871.059,1045.5947,877.3659" style="stroke:#181818;stroke-width:1;"/></g><!--SRC=[VLHDSzCm4BtxL-o40t18U-V0J9j02PCEWOJfCD3fRAojgqQMN4bkcZBzxwnaox53m3U_VNfljH_oqYk2gSJ2OeaW22Qch8mcxSd161RMY3htbwYne9BHiyKiozn6wWhv1EI93RypuEySyqrXJQt5n2XZuUfEUceYnWgo3Ngkc9Qzz8KgHjZYVpBBqcmedCBSCpQQA1dIX4-hrM84w22FG9RbojG2HZCEMar-r8h-N6wnACZ2zzbreBlcDoWczz6n-uRpKQ378iSnzD9ecEEEx0XUpMLnvt-GKcRR6aRJizhVJOpsrYX5DXeZGpUvjshFQdsDEw1MZ3VKZgiDtza6Cp2tHxJ2j_YoNC4fLlAqTcJTgJA5r0F6nOS1eQGkIbf4ZtyvxbCwxbYbgnpt-plS6OQVbuDIBoclhVIxLE29iQZwzVryjO9GO-w7p6D7Ok7kj_ucr6RO26FbSzErIoc4eYrQshUaxB2ZgPpNJcfoRjZnXTIRmtuloJxAlAVi7lDUnblV9uHC1_4q2trIB7fY7IOsHO_3f2uixWP9LTLq7KQBddpK4sjkuTEUC5tFjFGIbNnk9uyPag7Ma2q5kwpHXPvydVCw_j9lukoSYFNRk7xkGJ6SbkrxYC4ArugkuwhppiPiPtfyIQMnErWsK3nSDb1xk5i7c4ldu_dN_39fUkBUySF4r-3LHfSrAm_ZyVkqpl0kFWZmZHvgSZvBSA1qGy5g7rLzRyA3vwZW2HCeiXIEtCE9EFZVS-8g78lsTZSc7_OQXU6t0n2QvafUWqvaBnaQFOJJa7IQUuS0iq4doE8y44cOev7QDhpLWPEJ176z514_vFfMSY6G9NJGYneXqQP9MSkEbOwDpje9wK6ivOW4X579Kd8nthGt-mC0]--></g></svg>