<svg xmlns="http://www.w3.org/2000/svg" xmlns:xlink="http://www.w3.org/1999/xlink" contentStyleType="text/css" data-diagram-type="DESCRIPTION" height="1227px" preserveAspectRatio="none" style="width:1099px;height:1227px;background:#FFFFFF;" version="1.1" viewBox="0 0 1099 1227" width="1099px" zoomAndPan="magnify"><title>Diagrama de Despliegue - ProductManagementAPI</title><defs/><g><g class="title" data-source-line="1"><text fill="#000000" font-family="sans-serif" font-size="14" font-weight="bold" lengthAdjust="spacing" textLength="400.2646" x="342.3677" y="22.9951">Diagrama de Despliegue - ProductManagementAPI</text></g><!--cluster Cliente--><g class="cluster" data-entity="Cliente" data-source-line="8" data-uid="ent0002" id="cluster_Cliente"><polygon fill="#FFFFFF" points="473,53.2969,483,43.2969,888,43.2969,888,135.5869,878,145.5869,473,145.5869,473,53.2969" style="stroke:#000000;stroke-width:1;"/><line style="stroke:#000000;stroke-width:1;" x1="878" x2="888" y1="53.2969" y2="43.2969"/><line style="stroke:#000000;stroke-width:1;" x1="473" x2="878" y1="53.2969" y2="53.2969"/><line style="stroke:#000000;stroke-width:1;" x1="878" x2="878" y1="53.2969" y2="145.5869"/><text fill="#000000" font-family="sans-serif" font-size="14" font-weight="bold" lengthAdjust="spacing" textLength="55.5215" x="648.7393" y="69.292">Cliente</text></g><!--cluster Servidor de Aplicacion--><g class="cluster" data-entity="Servidor de Aplicacion" data-source-line="15" data-uid="ent0006" id="cluster_Servidor de Aplicacion"><polygon fill="#FFFFFF" points="429,295.8869,439,285.8869,1082,285.8869,1082,1200.7469,1072,1210.7469,429,1210.7469,429,295.8869" style="stroke:#000000;stroke-width:1;"/><line style="stroke:#000000;stroke-width:1;" x1="1072" x2="1082" y1="295.8869" y2="285.8869"/><line style="stroke:#000000;stroke-width:1;" x1="429" x2="1072" y1="295.8869" y2="295.8869"/><line style="stroke:#000000;stroke-width:1;" x1="1072" x2="1072" y1="295.8869" y2="1210.7469"/><text fill="#000000" font-family="sans-serif" font-size="14" font-weight="bold" lengthAdjust="spacing" textLength="177.0986" x="662.9507" y="311.882">Servidor de Aplicacion</text></g><!--cluster ASP.NET Core Runtime\n(.NET 8)--><g class="cluster" data-entity="ASP.NET Core Runtime.n..NET 8." data-source-line="16" data-uid="ent0007" id="cluster_ASP.NET Core Runtime.n..NET 8."><polygon fill="#FFFFFF" points="453,343.8869,463,333.8869,900,333.8869,900,1077.4469,890,1087.4469,453,1087.4469,453,343.8869" style="stroke:#000000;stroke-width:1;"/><line style="stroke:#000000;stroke-width:1;" x1="890" x2="900" y1="343.8869" y2="333.8869"/><line style="stroke:#000000;stroke-width:1;" x1="453" x2="890" y1="343.8869" y2="343.8869"/><line style="stroke:#000000;stroke-width:1;" x1="890" x2="890" y1="343.8869" y2="1087.4469"/><text fill="#000000" font-family="sans-serif" font-size="14" font-weight="bold" lengthAdjust="spacing" textLength="179.6553" x="582.6724" y="359.882">ASP.NET Core Runtime</text><text fill="#000000" font-family="sans-serif" font-size="14" font-weight="bold" lengthAdjust="spacing" textLength="63.5605" x="640.7197" y="376.1789">(.NET 8)</text></g><!--cluster ProductManagementAPI.dll--><g class="cluster" data-entity="ProductManagementAPI.dll" data-source-line="19" data-uid="ent0009" id="cluster_ProductManagementAPI.dll"><path d="M479.5,483.1869 L696.5566,483.1869 A3.75,3.75 0 0 1 699.0566,485.6869 L706.0566,505.4838 L873.5,505.4838 A2.5,2.5 0 0 1 876,507.9838 L876,922.5069 A2.5,2.5 0 0 1 873.5,925.0069 L479.5,925.0069 A2.5,2.5 0 0 1 477,922.5069 L477,485.6869 A2.5,2.5 0 0 1 479.5,483.1869" fill="none" style="stroke:#000000;stroke-width:1.5;"/><line style="stroke:#000000;stroke-width:1.5;" x1="477" x2="706.0566" y1="505.4838" y2="505.4838"/><text fill="#000000" font-family="sans-serif" font-size="14" font-weight="bold" lengthAdjust="spacing" textLength="216.0566" x="481" y="498.182">ProductManagementAPI.dll</text></g><!--cluster SQLite--><g class="cluster" data-entity="SQLite" data-source-line="30" data-uid="ent0015" id="cluster_SQLite"><path d="M924,984.0069 C924,974.0069 991,974.0069 991,974.0069 C991,974.0069 1058,974.0069 1058,984.0069 L1058,1176.7469 C1058,1186.7469 991,1186.7469 991,1186.7469 C991,1186.7469 924,1186.7469 924,1176.7469 L924,984.0069" fill="none" style="stroke:#181818;stroke-width:1;"/><path d="M924,984.0069 C924,994.0069 991,994.0069 991,994.0069 C991,994.0069 1058,994.0069 1058,984.0069" fill="none" style="stroke:#181818;stroke-width:1;"/><text fill="#000000" font-family="sans-serif" font-size="14" font-weight="bold" lengthAdjust="spacing" textLength="51.8916" x="965.0542" y="1009.002">SQLite</text></g><!--cluster Configuracion--><g class="cluster" data-entity="Configuracion" data-source-line="36" data-uid="ent0018" id="cluster_Configuracion"><polygon fill="#FFFFFF" points="16,637.7769,26,627.7769,405,627.7769,405,789.7069,395,799.7069,16,799.7069,16,637.7769" style="stroke:#000000;stroke-width:1;"/><line style="stroke:#000000;stroke-width:1;" x1="395" x2="405" y1="637.7769" y2="627.7769"/><line style="stroke:#000000;stroke-width:1;" x1="16" x2="395" y1="637.7769" y2="637.7769"/><line style="stroke:#000000;stroke-width:1;" x1="395" x2="395" y1="637.7769" y2="799.7069"/><text fill="#000000" font-family="sans-serif" font-size="14" font-weight="bold" lengthAdjust="spacing" textLength="109.7715" x="151.6143" y="653.772">Configuracion</text></g><!--entity browser--><g class="entity" data-entity="browser" data-source-line="9" data-uid="ent0003" id="entity_browser"><rect fill="#F1F1F1" height="46.2969" rx="2.5" ry="2.5" style="stroke:#181818;stroke-width:0.5;" width="152.417" x="488.79" y="83.2969"/><rect fill="#F1F1F1" height="10" style="stroke:#181818;stroke-width:0.5;" width="15" x="621.207" y="88.2969"/><rect fill="#F1F1F1" height="2" style="stroke:#181818;stroke-width:0.5;" width="4" x="619.207" y="90.2969"/><rect fill="#F1F1F1" height="2" style="stroke:#181818;stroke-width:0.5;" width="4" x="619.207" y="94.2969"/><text fill="#000000" font-family="sans-serif" font-size="14" lengthAdjust="spacing" textLength="112.417" x="503.79" y="116.292">Navegador Web</text></g><!--entity postman--><g class="entity" data-entity="postman" data-source-line="10" data-uid="ent0004" id="entity_postman"><rect fill="#F1F1F1" height="46.2969" rx="2.5" ry="2.5" style="stroke:#181818;stroke-width:0.5;" width="195.5518" x="676.22" y="83.2969"/><rect fill="#F1F1F1" height="10" style="stroke:#181818;stroke-width:0.5;" width="15" x="851.7718" y="88.2969"/><rect fill="#F1F1F1" height="2" style="stroke:#181818;stroke-width:0.5;" width="4" x="849.7718" y="90.2969"/><rect fill="#F1F1F1" height="2" style="stroke:#181818;stroke-width:0.5;" width="4" x="849.7718" y="94.2969"/><text fill="#000000" font-family="sans-serif" font-size="14" lengthAdjust="spacing" textLength="155.5518" x="691.22" y="116.292">Postman / HTTP Client</text></g><!--entity kestrel--><g class="entity" data-entity="kestrel" data-source-line="17" data-uid="ent0008" id="entity_kestrel"><rect fill="#F1F1F1" height="46.2969" rx="2.5" ry="2.5" style="stroke:#181818;stroke-width:0.5;" width="174.9893" x="581.51" y="389.8869"/><rect fill="#F1F1F1" height="10" style="stroke:#181818;stroke-width:0.5;" width="15" x="736.4993" y="394.8869"/><rect fill="#F1F1F1" height="2" style="stroke:#181818;stroke-width:0.5;" width="4" x="734.4993" y="396.8869"/><rect fill="#F1F1F1" height="2" style="stroke:#181818;stroke-width:0.5;" width="4" x="734.4993" y="400.8869"/><text fill="#000000" font-family="sans-serif" font-size="14" lengthAdjust="spacing" textLength="134.9893" x="596.51" y="422.882">Kestrel Web Server</text></g><!--entity memory--><g class="entity" data-entity="memory" data-source-line="27" data-uid="ent0014" id="entity_memory"><rect fill="#F1F1F1" height="55.5938" rx="2.5" ry="2.5" style="stroke:#181818;stroke-width:0.5;" width="164.2168" x="486.89" y="1015.8569"/><polygon fill="#F1F1F1" points="634.1068,1020.8569,634.1068,1034.8569,646.1068,1034.8569,646.1068,1026.8569,640.1068,1020.8569,634.1068,1020.8569" style="stroke:#181818;stroke-width:0.5;"/><line style="stroke:#181818;stroke-width:0.5;" x1="640.1068" x2="640.1068" y1="1020.8569" y2="1026.8569"/><line style="stroke:#181818;stroke-width:0.5;" x1="646.1068" x2="640.1068" y1="1026.8569" y2="1026.8569"/><text fill="#000000" font-family="sans-serif" font-size="14" lengthAdjust="spacing" textLength="134.2168" x="496.89" y="1041.852">In-Memory Storage</text><text fill="#000000" font-family="sans-serif" font-size="14" lengthAdjust="spacing" textLength="80.4932" x="496.89" y="1058.1489">(Productos)</text></g><!--entity ctrl--><g class="entity" data-entity="ctrl" data-source-line="20" data-uid="ent0010" id="entity_ctrl"><rect fill="#F1F1F1" height="46.2969" rx="2.5" ry="2.5" style="stroke:#181818;stroke-width:0.5;" width="116.4668" x="510.77" y="702.5969"/><rect fill="#F1F1F1" height="10" style="stroke:#181818;stroke-width:0.5;" width="15" x="607.2368" y="707.5969"/><rect fill="#F1F1F1" height="2" style="stroke:#181818;stroke-width:0.5;" width="4" x="605.2368" y="709.5969"/><rect fill="#F1F1F1" height="2" style="stroke:#181818;stroke-width:0.5;" width="4" x="605.2368" y="713.5969"/><text fill="#000000" font-family="sans-serif" font-size="14" lengthAdjust="spacing" textLength="76.4668" x="525.77" y="735.592">Controllers</text></g><!--entity svc--><g class="entity" data-entity="svc" data-source-line="21" data-uid="ent0011" id="entity_svc"><rect fill="#F1F1F1" height="46.2969" rx="2.5" ry="2.5" style="stroke:#181818;stroke-width:0.5;" width="99.0352" x="519.48" y="862.7069"/><rect fill="#F1F1F1" height="10" style="stroke:#181818;stroke-width:0.5;" width="15" x="598.5152" y="867.7069"/><rect fill="#F1F1F1" height="2" style="stroke:#181818;stroke-width:0.5;" width="4" x="596.5152" y="869.7069"/><rect fill="#F1F1F1" height="2" style="stroke:#181818;stroke-width:0.5;" width="4" x="596.5152" y="873.7069"/><text fill="#000000" font-family="sans-serif" font-size="14" lengthAdjust="spacing" textLength="59.0352" x="534.48" y="895.702">Services</text></g><!--entity jwt--><g class="entity" data-entity="jwt" data-source-line="22" data-uid="ent0012" id="entity_jwt"><rect fill="#F1F1F1" height="46.2969" rx="2.5" ry="2.5" style="stroke:#181818;stroke-width:0.5;" width="151.6172" x="493.19" y="526.3369"/><rect fill="#F1F1F1" height="10" style="stroke:#181818;stroke-width:0.5;" width="15" x="624.8072" y="531.3369"/><rect fill="#F1F1F1" height="2" style="stroke:#181818;stroke-width:0.5;" width="4" x="622.8072" y="533.3369"/><rect fill="#F1F1F1" height="2" style="stroke:#181818;stroke-width:0.5;" width="4" x="622.8072" y="537.3369"/><text fill="#000000" font-family="sans-serif" font-size="14" lengthAdjust="spacing" textLength="111.6172" x="508.19" y="559.332">JWT Middleware</text></g><!--entity swagger--><g class="entity" data-entity="swagger" data-source-line="24" data-uid="ent0013" id="entity_swagger"><rect fill="#F1F1F1" height="62.5938" rx="2.5" ry="2.5" style="stroke:#181818;stroke-width:0.5;" width="179.5283" x="680.24" y="518.1869"/><rect fill="#F1F1F1" height="10" style="stroke:#181818;stroke-width:0.5;" width="15" x="839.7683" y="523.1869"/><rect fill="#F1F1F1" height="2" style="stroke:#181818;stroke-width:0.5;" width="4" x="837.7683" y="525.1869"/><rect fill="#F1F1F1" height="2" style="stroke:#181818;stroke-width:0.5;" width="4" x="837.7683" y="529.1869"/><text fill="#000000" font-family="sans-serif" font-size="14" lengthAdjust="spacing" textLength="79.8848" x="695.24" y="551.182">Swagger UI</text><text fill="#000000" font-family="sans-serif" font-size="14" lengthAdjust="spacing" textLength="139.5283" x="695.24" y="567.4789">(Solo Development)</text></g><!--entity sqlite_file--><g class="entity" data-entity="sqlite_file" data-source-line="31" data-uid="ent0016" id="entity_sqlite_file"><rect fill="#F1F1F1" height="39.2969" rx="2.5" ry="2.5" style="stroke:#181818;stroke-width:0.5;" width="90.0537" x="942.97" y="1024.0069"/><polygon fill="#F1F1F1" points="1016.0237,1029.0069,1016.0237,1043.0069,1028.0237,1043.0069,1028.0237,1035.0069,1022.0237,1029.0069,1016.0237,1029.0069" style="stroke:#181818;stroke-width:0.5;"/><line style="stroke:#181818;stroke-width:0.5;" x1="1022.0237" x2="1022.0237" y1="1029.0069" y2="1035.0069"/><line style="stroke:#181818;stroke-width:0.5;" x1="1028.0237" x2="1022.0237" y1="1035.0069" y2="1035.0069"/><text fill="#000000" font-family="sans-serif" font-size="14" lengthAdjust="spacing" textLength="60.0537" x="952.97" y="1050.002">users.db</text></g><!--entity users_table--><g class="entity" data-entity="users_table" data-source-line="32" data-uid="ent0017" id="entity_users_table"><rect fill="#F1F1F1" height="32.2969" rx="2.5" ry="2.5" style="stroke:#181818;stroke-width:0.5;" width="98.1748" x="943.91" y="1138.4469"/><rect fill="#F1F1F1" height="32.2969" rx="2.5" ry="2.5" style="stroke:#181818;stroke-width:0.5;" width="98.1748" x="939.91" y="1134.4469"/><text fill="#000000" font-family="sans-serif" font-size="14" lengthAdjust="spacing" textLength="82.1748" x="947.91" y="1155.442">Users Table</text></g><!--entity config--><g class="entity" data-entity="config" data-source-line="37" data-uid="ent0019" id="entity_config"><rect fill="#F1F1F1" height="39.2969" rx="2.5" ry="2.5" style="stroke:#181818;stroke-width:0.5;" width="145.2539" x="32.37" y="706.0969"/><polygon fill="#F1F1F1" points="160.6239,711.0969,160.6239,725.0969,172.6239,725.0969,172.6239,717.0969,166.6239,711.0969,160.6239,711.0969" style="stroke:#181818;stroke-width:0.5;"/><line style="stroke:#181818;stroke-width:0.5;" x1="166.6239" x2="166.6239" y1="711.0969" y2="717.0969"/><line style="stroke:#181818;stroke-width:0.5;" x1="172.6239" x2="166.6239" y1="717.0969" y2="717.0969"/><text fill="#000000" font-family="sans-serif" font-size="14" lengthAdjust="spacing" textLength="115.2539" x="42.37" y="732.092">appsettings.json</text></g><g class="entity" data-entity="GMN20" data-source-line="39" data-uid="ent0021" id="entity_GMN20"><path d="M212.71,667.7769 L212.71,721.7469 L178.12,725.7469 L212.71,729.7469 L212.71,783.7066 A0,0 0 0 0 212.71,783.7066 L389.2974,783.7066 A0,0 0 0 0 389.2974,783.7066 L389.2974,677.7769 L379.2974,667.7769 L212.71,667.7769 A0,0 0 0 0 212.71,667.7769" fill="#FEFFDD" style="stroke:#181818;stroke-width:0.5;"/><path d="M379.2974,667.7769 L379.2974,677.7769 L389.2974,677.7769 L379.2974,667.7769" fill="#FEFFDD" style="stroke:#181818;stroke-width:0.5;"/><text fill="#000000" font-family="sans-serif" font-size="13" lengthAdjust="spacing" textLength="86.4614" x="218.71" y="684.8438">JWT Settings:</text><text fill="#000000" font-family="sans-serif" font-size="13" lengthAdjust="spacing" textLength="33.0396" x="218.71" y="699.9766">- Key</text><text fill="#000000" font-family="sans-serif" font-size="13" lengthAdjust="spacing" textLength="47.7852" x="218.71" y="715.1094">- Issuer</text><text fill="#000000" font-family="sans-serif" font-size="13" lengthAdjust="spacing" textLength="69.2021" x="218.71" y="730.2422">- Audience</text><text fill="#000000" font-family="sans-serif" font-size="13" lengthAdjust="spacing" textLength="4.1323" x="218.71" y="745.375">&#160;</text><text fill="#000000" font-family="sans-serif" font-size="13" lengthAdjust="spacing" textLength="120.8657" x="218.71" y="760.5078">Connection String:</text><text fill="#000000" font-family="sans-serif" font-size="13" lengthAdjust="spacing" textLength="155.5874" x="218.71" y="775.6406">- Data Source=users.db</text></g><!--entity network--><g class="entity" data-entity="network" data-source-line="13" data-uid="ent0005" id="entity_network"><path d="M604.5922,200.6832 C608.3681,193.861 614.0755,194.5359 618.2039,200.302 C622.2117,193.4684 627.0432,193.6533 630.9227,200.422 C634.6599,194.4078 640.0491,194.1691 644.0617,200.1196 C648.3121,192.845 652.9937,192.6941 657.6997,199.6841 C661.4788,192.2194 665.3605,191.7554 670.5944,198.3498 C675.1966,191.754 678.9627,192.7506 682.9601,198.935 C686.6153,192.6848 691.768,193.6643 695.4581,198.8971 C700.0543,192.8879 705.2328,193.2599 709.2428,199.5539 C714.2188,194.2477 720.2983,194.712 723.2038,201.8726 C726.1523,194.2088 732.5479,193.6803 736.8239,200.6358 C745.7618,202.1239 747.7619,208.8434 742.8174,215.8135 C749.9538,223.7631 747.3896,230.8186 736.7993,232.2958 C732.3747,239.8315 727.427,240.785 722.1117,233.1586 C717.6733,238.1222 713.9951,237.8198 710.1005,232.522 C705.9635,238.9548 701.5385,239.0667 696.2046,233.9637 C692.938,239.3092 687.385,240.6549 683.768,234.3372 C680.7786,241.4945 675.4568,241.435 670.8556,235.9886 C665.3548,241.5826 660.9861,240.9789 657.1802,234.1263 C653.172,240.3998 648.5575,240.8795 643.8599,234.8741 C639.3622,241.1917 632.9587,240.7083 630.0768,233.2568 C625.7137,238.3306 621.2698,237.2916 617.9646,232.0184 C614.626,237.778 607.7907,239.1248 604.003,232.5257 C595.3054,228.3376 593.8888,222.9276 601.9147,216.553 C595.3131,209.8127 596.3869,204.9253 604.5922,200.6832" fill="#F1F1F1" style="stroke:#181818;stroke-width:0.5;"/><text fill="#000000" font-family="sans-serif" font-size="14" lengthAdjust="spacing" textLength="117.4277" x="610.29" y="220.582">Red HTTP/HTTPS</text></g><!--link browser to network--><g class="link" data-entity-1="browser" data-entity-2="network" data-source-line="50" data-uid="lnk23" id="link_browser_network"><path d="M586.8,129.9369 C604.55,148.2469 625.3037,169.6589 643.0537,187.9689" fill="none" id="browser-to-network" style="stroke:#181818;stroke-width:1;"/><polygon fill="#181818" points="647.23,192.2769,643.8376,183.0307,643.7498,188.6869,638.0936,188.599,647.23,192.2769" style="stroke:#181818;stroke-width:1;"/></g><!--link postman to network--><g class="link" data-entity-1="postman" data-entity-2="network" data-source-line="51" data-uid="lnk24" id="link_postman_network"><path d="M751.99,129.9369 C734.07,148.2469 713.0967,169.6788 695.1767,187.9888" fill="none" id="postman-to-network" style="stroke:#181818;stroke-width:1;"/><polygon fill="#181818" points="690.98,192.2769,700.1338,188.6426,694.4773,188.7035,694.4164,183.047,690.98,192.2769" style="stroke:#181818;stroke-width:1;"/></g><!--link network to kestrel--><g class="link" data-entity-1="network" data-entity-2="kestrel" data-source-line="52" data-uid="lnk25" id="link_network_kestrel"><path d="M669,239.1469 C669,276.7169 669,345.9969 669,383.5969" fill="none" id="network-to-kestrel" style="stroke:#181818;stroke-width:1;"/><polygon fill="#181818" points="669,389.5969,673,380.5969,669,384.5969,665,380.5969,669,389.5969" style="stroke:#181818;stroke-width:1;"/></g><!--link kestrel to swagger--><g class="link" data-entity-1="kestrel" data-entity-2="swagger" data-source-line="54" data-uid="lnk26" id="link_kestrel_swagger"><path d="M685.91,436.5369 C702.64,458.8169 724.7754,488.2904 743.3754,513.0404" fill="none" id="kestrel-to-swagger" style="stroke:#181818;stroke-width:1;"/><polygon fill="#181818" points="746.98,517.8369,744.7707,508.239,743.9761,513.8398,738.3754,513.0452,746.98,517.8369" style="stroke:#181818;stroke-width:1;"/></g><!--link kestrel to jwt--><g class="link" data-entity-1="kestrel" data-entity-2="jwt" data-source-line="55" data-uid="lnk27" id="link_kestrel_jwt"><path d="M652.26,436.5369 C633.8,461.3569 607.8504,496.2423 589.3704,521.0923" fill="none" id="kestrel-to-jwt" style="stroke:#181818;stroke-width:1;"/><polygon fill="#181818" points="585.79,525.9069,594.3704,521.0719,588.7737,521.8947,587.9509,516.298,585.79,525.9069" style="stroke:#181818;stroke-width:1;"/></g><!--link jwt to ctrl--><g class="link" data-entity-1="jwt" data-entity-2="ctrl" data-source-line="56" data-uid="lnk28" id="link_jwt_ctrl"><path d="M569,572.9069 C569,606.2769 569,662.6469 569,696.1269" fill="none" id="jwt-to-ctrl" style="stroke:#181818;stroke-width:1;"/><polygon fill="#181818" points="569,702.1269,573,693.1269,569,697.1269,565,693.1269,569,702.1269" style="stroke:#181818;stroke-width:1;"/></g><!--link ctrl to svc--><g class="link" data-entity-1="ctrl" data-entity-2="svc" data-source-line="57" data-uid="lnk29" id="link_ctrl_svc"><path d="M569,749.0569 C569,779.1069 569,826.2769 569,856.3969" fill="none" id="ctrl-to-svc" style="stroke:#181818;stroke-width:1;"/><polygon fill="#181818" points="569,862.3969,573,853.3969,569,857.3969,565,853.3969,569,862.3969" style="stroke:#181818;stroke-width:1;"/></g><!--link svc to memory--><g class="link" data-entity-1="svc" data-entity-2="memory" data-source-line="58" data-uid="lnk30" id="link_svc_memory"><path d="M569,909.1769 C569,937.1969 569,979.2269 569,1009.3869" fill="none" id="svc-to-memory" style="stroke:#181818;stroke-width:1;"/><polygon fill="#181818" points="569,1015.3869,573,1006.3869,569,1010.3869,565,1006.3869,569,1015.3869" style="stroke:#181818;stroke-width:1;"/><text fill="#000000" font-family="sans-serif" font-size="13" lengthAdjust="spacing" textLength="65.0127" x="570" y="954.0738">productos</text></g><!--link svc to sqlite_file--><g class="link" data-entity-1="svc" data-entity-2="sqlite_file" data-source-line="59" data-uid="lnk31" id="link_svc_sqlite_file"><path d="M618.97,891.2969 C686.12,898.8869 807.68,918.4569 900,966.0069 C928.28,980.5669 950.8746,1001.712 967.2846,1019.282" fill="none" id="svc-to-sqlite_file" style="stroke:#181818;stroke-width:1;"/><polygon fill="#181818" points="971.38,1023.6669,968.1601,1014.3592,967.9671,1020.0128,962.3136,1019.8198,971.38,1023.6669" style="stroke:#181818;stroke-width:1;"/><text fill="#000000" font-family="sans-serif" font-size="13" lengthAdjust="spacing" textLength="54.9009" x="884.58" y="954.0738">usuarios</text></g><!--link sqlite_file to users_table--><g class="link" data-entity-1="sqlite_file" data-entity-2="users_table" data-source-line="61" data-uid="lnk32" id="link_sqlite_file_users_table"><path d="M988.54,1063.7769 C989.1,1083.7169 989.8025,1108.7292 990.3425,1128.0692" fill="none" id="sqlite_file-to-users_table" style="stroke:#181818;stroke-width:1;"/><polygon fill="#181818" points="990.51,1134.0669,994.2572,1124.9587,990.3704,1129.0688,986.2604,1125.182,990.51,1134.0669" style="stroke:#181818;stroke-width:1;"/></g><!--link config to svc--><g class="link" data-entity-1="config" data-entity-2="svc" data-source-line="62" data-uid="lnk33" id="link_config_svc"><path d="M120.51,745.6069 C136.99,764.3569 164.8,792.4469 195,807.7069 C302.09,861.8369 438.7225,877.6096 513.0925,882.4196" fill="none" id="config-to-svc" style="stroke:#181818;stroke-width:1;"/><polygon fill="#181818" points="519.08,882.8069,510.3569,878.2343,514.0904,882.4842,509.8406,886.2177,519.08,882.8069" style="stroke:#181818;stroke-width:1;"/><text fill="#000000" font-family="sans-serif" font-size="13" lengthAdjust="spacing" textLength="91.9966" x="253.09" y="828.7738">IConfiguration</text></g><!--SRC=[TLDDRzim3BtxLn2-R3qalGu5DY1D1ophKcHrYXwseL0anbKZInub9ok6_lTHyaVSOZ7WH2OV7wN7fw23GRZIeYHH2L2yHbyRZMM3C84LETN8i1HMb5YX3RFL8ilyJjjQS05OnnL_C-3dKiXTIQwnQkwC8xX_r07RZ2E5r4Ol3SEobonBbVcSEzc0USSXNLKxon7uSIFsM0eLYN3p2uI73Rc3HteBN3aVAc7X7Bwiroje6LD1tMPYDsbSeo2_HPLGv_6do2F8OZWuslKRAf3sEdRbZndh88NKplRxQp6pOZMz-Ro6kIE4syO6NU5F-px5Ffprs3VRl4OV24qy3SGcI6cFkpQS3IKrwyDQG_u_wQVAc37_cnvpPmCvOv1y8fU1p2biEgZ45kZtyXJkw_qQbbefWmT1cD1FXv2Tf3s8iaI2kmKhKl38sKzxDAwE9pXhcxMGWU7bI2OewAsG0VA5dIonSlGCHN342Z1TfuZpPsboLSfd8mebWjW87yVu_Pi-skerTSCcybErIIJ-js7WmrOR74sD9PI1v-uXlujeM8kDmLIGgXz2_EvQ7ytix5QN3RsopB6lg6kF8MXR-kcJZuWuebJJcIiWa2uV0xZjE16VE8QYgxuOeXEunkVHryBxPgJi16QDukiWyIWnRzAsXsDbYUd6R5Si81Ik8OaVUvbI6grA-uk7VHSvy0ypeC-wImcJoQVXAdNtxbMi-q-nmVFT8WLxLunZqMZyfdNoSlnfqMnOVjEwzG5SGDtxOqYDfilvnZU2DAUpSJpYnaDjXU-xSDbYc6jKBVi7]--></g></svg>