<svg xmlns="http://www.w3.org/2000/svg" xmlns:xlink="http://www.w3.org/1999/xlink" contentStyleType="text/css" data-diagram-type="CLASS" height="550px" preserveAspectRatio="none" style="width:867px;height:550px;background:#FFFFFF;" version="1.1" viewBox="0 0 867 550" width="867px" zoomAndPan="magnify"><title>Diagrama Entidad-Relacion - ProductManagementAPI</title><defs/><g><g class="title" data-source-line="1"><text fill="#000000" font-family="sans-serif" font-size="14" font-weight="bold" lengthAdjust="spacing" textLength="421.3535" x="215.8402" y="22.9951">Diagrama Entidad-Relacion - ProductManagementAPI</text></g><!--cluster Storage--><g class="cluster" data-entity="Storage" data-source-line="25" data-uid="ent0004" id="cluster_Storage"><path d="M190.17,431.3769 L253.4317,431.3769 A3.75,3.75 0 0 1 255.9317,433.8769 L262.9317,453.6737 L484.17,453.6737 A2.5,2.5 0 0 1 486.67,456.1737 L486.67,541.4669 A2.5,2.5 0 0 1 484.17,543.9669 L190.17,543.9669 A2.5,2.5 0 0 1 187.67,541.4669 L187.67,433.8769 A2.5,2.5 0 0 1 190.17,431.3769" fill="none" style="stroke:#000000;stroke-width:1.5;"/><line style="stroke:#000000;stroke-width:1.5;" x1="187.67" x2="262.9317" y1="453.6737" y2="453.6737"/><text fill="#000000" font-family="sans-serif" font-size="14" font-weight="bold" lengthAdjust="spacing" textLength="62.2617" x="191.67" y="446.372">Storage</text></g><!--cluster DTOs--><g class="cluster" data-entity="DTOs" data-source-line="52" data-uid="ent0015" id="cluster_DTOs"><rect fill="#90EE90" height="147.89" rx="2.5" ry="2.5" style="stroke:#181818;stroke-width:1;" width="537" x="28.67" y="44.2969"/><text fill="#000000" font-family="sans-serif" font-size="14" font-weight="bold" lengthAdjust="spacing" textLength="41.4053" x="276.4674" y="59.292">DTOs</text></g><!--entity sqlite--><g class="entity" data-entity="sqlite" data-source-line="26" data-uid="ent0005" id="entity_sqlite"><path d="M203.18,476.3769 C203.18,466.3769 248.6688,466.3769 248.6688,466.3769 C248.6688,466.3769 294.1575,466.3769 294.1575,476.3769 L294.1575,517.9706 C294.1575,527.9706 248.6688,527.9706 248.6688,527.9706 C248.6688,527.9706 203.18,527.9706 203.18,517.9706 L203.18,476.3769" fill="#F1F1F1" style="stroke:#181818;stroke-width:0.5;"/><path d="M203.18,476.3769 C203.18,486.3769 248.6688,486.3769 248.6688,486.3769 C248.6688,486.3769 294.1575,486.3769 294.1575,476.3769" fill="none" style="stroke:#181818;stroke-width:0.5;"/><text fill="#000000" font-family="sans-serif" font-size="14" lengthAdjust="spacing" textLength="45.6982" x="213.18" y="503.372">SQLite</text><text fill="#000000" font-family="sans-serif" font-size="14" lengthAdjust="spacing" textLength="70.9775" x="213.18" y="519.6689">(users.db)</text></g><!--entity memory--><g class="entity" data-entity="memory" data-source-line="29" data-uid="ent0006" id="entity_memory"><rect fill="#F1F1F1" height="52.5938" rx="35" ry="35" style="stroke:#181818;stroke-width:0.5;" width="141.1328" x="329.11" y="470.8769"/><text fill="#000000" font-family="sans-serif" font-size="14" lengthAdjust="spacing" textLength="74.9902" x="339.11" y="493.872">In-Memory</text><text fill="#000000" font-family="sans-serif" font-size="14" lengthAdjust="spacing" textLength="121.1328" x="339.11" y="510.1689">(List&lt;Producto&gt;)</text></g><!--class LoginRequestDto--><g class="entity" data-entity="LoginRequestDto" data-source-line="53" data-uid="ent0016" id="entity_LoginRequestDto"><rect fill="#F1F1F1" height="80.5938" rx="2.5" ry="2.5" style="stroke:#181818;stroke-width:0.5;" width="152.3467" x="44.5" y="87.4469"/><ellipse cx="59.5" cy="103.4469" fill="#ADD1B2" rx="11" ry="11" style="stroke:#181818;stroke-width:1;"/><path d="M62.4688,109.0875 Q61.8906,109.3844 61.25,109.525 Q60.6094,109.6812 59.9063,109.6812 Q57.4063,109.6812 56.0781,108.0406 Q54.7656,106.3844 54.7656,103.2594 Q54.7656,100.1344 56.0781,98.4781 Q57.4063,96.8219 59.9063,96.8219 Q60.6094,96.8219 61.25,96.9781 Q61.9063,97.1344 62.4688,97.4312 L62.4688,100.15 Q61.8438,99.5719 61.25,99.3062 Q60.6563,99.025 60.0313,99.025 Q58.6875,99.025 58,100.1031 Q57.3125,101.1656 57.3125,103.2594 Q57.3125,105.3531 58,106.4312 Q58.6875,107.4937 60.0313,107.4937 Q60.6563,107.4937 61.25,107.2281 Q61.8438,106.9469 62.4688,106.3687 L62.4688,109.0875 Z " fill="#000000"/><text fill="#000000" font-family="sans-serif" font-size="14" lengthAdjust="spacing" textLength="120.3467" x="73.5" y="108.2936">LoginRequestDto</text><line style="stroke:#181818;stroke-width:0.5;" x1="45.5" x2="195.8467" y1="119.4469" y2="119.4469"/><text fill="#000000" font-family="sans-serif" font-size="14" lengthAdjust="spacing" textLength="71.6133" x="50.5" y="136.442">Username</text><text fill="#000000" font-family="sans-serif" font-size="14" lengthAdjust="spacing" textLength="66.2676" x="50.5" y="152.7389">Password</text><line style="stroke:#181818;stroke-width:0.5;" x1="45.5" x2="195.8467" y1="160.0406" y2="160.0406"/></g><!--class LoginResponseDto--><g class="entity" data-entity="LoginResponseDto" data-source-line="58" data-uid="ent0017" id="entity_LoginResponseDto"><rect fill="#F1F1F1" height="64.2969" rx="2.5" ry="2.5" style="stroke:#181818;stroke-width:0.5;" width="162.7168" x="232.31" y="95.5869"/><ellipse cx="247.31" cy="111.5869" fill="#ADD1B2" rx="11" ry="11" style="stroke:#181818;stroke-width:1;"/><path d="M250.2788,117.2275 Q249.7006,117.5244 249.06,117.665 Q248.4194,117.8212 247.7163,117.8212 Q245.2163,117.8212 243.8881,116.1806 Q242.5756,114.5244 242.5756,111.3994 Q242.5756,108.2744 243.8881,106.6181 Q245.2163,104.9619 247.7163,104.9619 Q248.4194,104.9619 249.06,105.1181 Q249.7163,105.2744 250.2788,105.5712 L250.2788,108.29 Q249.6538,107.7119 249.06,107.4462 Q248.4663,107.165 247.8413,107.165 Q246.4975,107.165 245.81,108.2431 Q245.1225,109.3056 245.1225,111.3994 Q245.1225,113.4931 245.81,114.5712 Q246.4975,115.6337 247.8413,115.6337 Q248.4663,115.6337 249.06,115.3681 Q249.6538,115.0869 250.2788,114.5087 L250.2788,117.2275 Z " fill="#000000"/><text fill="#000000" font-family="sans-serif" font-size="14" lengthAdjust="spacing" textLength="130.7168" x="261.31" y="116.4336">LoginResponseDto</text><line style="stroke:#181818;stroke-width:0.5;" x1="233.31" x2="394.0268" y1="127.5869" y2="127.5869"/><text fill="#000000" font-family="sans-serif" font-size="14" lengthAdjust="spacing" textLength="42.7109" x="238.31" y="144.582">Token</text><line style="stroke:#181818;stroke-width:0.5;" x1="233.31" x2="394.0268" y1="151.8837" y2="151.8837"/></g><!--class ProductoDto--><g class="entity" data-entity="ProductoDto" data-source-line="62" data-uid="ent0018" id="entity_ProductoDto"><rect fill="#F1F1F1" height="96.8906" rx="2.5" ry="2.5" style="stroke:#181818;stroke-width:0.5;" width="119.1104" x="430.12" y="79.2969"/><ellipse cx="445.12" cy="95.2969" fill="#ADD1B2" rx="11" ry="11" style="stroke:#181818;stroke-width:1;"/><path d="M448.0888,100.9375 Q447.5106,101.2344 446.87,101.375 Q446.2294,101.5312 445.5263,101.5312 Q443.0263,101.5312 441.6981,99.8906 Q440.3856,98.2344 440.3856,95.1094 Q440.3856,91.9844 441.6981,90.3281 Q443.0263,88.6719 445.5263,88.6719 Q446.2294,88.6719 446.87,88.8281 Q447.5263,88.9844 448.0888,89.2812 L448.0888,92 Q447.4638,91.4219 446.87,91.1562 Q446.2763,90.875 445.6513,90.875 Q444.3075,90.875 443.62,91.9531 Q442.9325,93.0156 442.9325,95.1094 Q442.9325,97.2031 443.62,98.2812 Q444.3075,99.3437 445.6513,99.3437 Q446.2763,99.3437 446.87,99.0781 Q447.4638,98.7969 448.0888,98.2187 L448.0888,100.9375 Z " fill="#000000"/><text fill="#000000" font-family="sans-serif" font-size="14" lengthAdjust="spacing" textLength="87.1104" x="459.12" y="100.1436">ProductoDto</text><line style="stroke:#181818;stroke-width:0.5;" x1="431.12" x2="548.2304" y1="111.2969" y2="111.2969"/><text fill="#000000" font-family="sans-serif" font-size="14" lengthAdjust="spacing" textLength="48.5693" x="436.12" y="128.292">Codigo</text><text fill="#000000" font-family="sans-serif" font-size="14" lengthAdjust="spacing" textLength="55.9316" x="436.12" y="144.5889">Nombre</text><text fill="#000000" font-family="sans-serif" font-size="14" lengthAdjust="spacing" textLength="42.9639" x="436.12" y="160.8857">Precio</text><line style="stroke:#181818;stroke-width:0.5;" x1="431.12" x2="548.2304" y1="168.1875" y2="168.1875"/></g><!--class user--><g class="entity" data-entity="user" data-source-line="9" data-uid="ent0002" id="entity_user"><rect fill="#F1F1F1" height="113.1875" rx="2.5" ry="2.5" style="stroke:#181818;stroke-width:0.5;" width="181.3467" x="7" y="255.1869"/><ellipse cx="77.4683" cy="271.1869" fill="#ADD1B2" rx="11" ry="11" style="stroke:#181818;stroke-width:1;"/><path d="M81.5776,277.1869 L73.8589,277.1869 L73.8589,264.7963 L81.5776,264.7963 L81.5776,266.9525 L76.312,266.9525 L76.312,269.6244 L81.0776,269.6244 L81.0776,271.7806 L76.312,271.7806 L76.312,275.0306 L81.5776,275.0306 L81.5776,277.1869 Z " fill="#000000"/><text fill="#000000" font-family="sans-serif" font-size="14" lengthAdjust="spacing" textLength="31.9102" x="97.9683" y="276.0336">User</text><line style="stroke:#181818;stroke-width:0.5;" x1="8" x2="187.3467" y1="287.1869" y2="287.1869"/><ellipse cx="18" cy="300.8353" fill="#000000" rx="3" ry="3" style="stroke:#000000;stroke-width:1;"/><text fill="#000000" font-family="sans-serif" font-size="14" font-weight="bold" lengthAdjust="spacing" textLength="15.2305" x="27" y="304.182">Id</text><text fill="#000000" font-family="sans-serif" font-size="14" lengthAdjust="spacing" textLength="66.623" x="46.6807" y="304.182">: int &#171;PK&#187;</text><line style="stroke:#181818;stroke-width:1;" x1="8" x2="187.3467" y1="311.4838" y2="311.4838"/><ellipse cx="18" cy="325.1322" fill="#000000" rx="3" ry="3" style="stroke:#000000;stroke-width:1;"/><text fill="#000000" font-family="sans-serif" font-size="14" lengthAdjust="spacing" textLength="125.4189" x="27" y="328.4789">Username : string</text><ellipse cx="18" cy="341.4291" fill="#000000" rx="3" ry="3" style="stroke:#000000;stroke-width:1;"/><text fill="#000000" font-family="sans-serif" font-size="14" lengthAdjust="spacing" textLength="92.6475" x="27" y="344.7757">Email : string</text><ellipse cx="18" cy="357.7259" fill="#000000" rx="3" ry="3" style="stroke:#000000;stroke-width:1;"/><text fill="#000000" font-family="sans-serif" font-size="14" lengthAdjust="spacing" textLength="155.3467" x="27" y="361.0726">PasswordHash : string</text></g><!--class producto--><g class="entity" data-entity="producto" data-source-line="18" data-uid="ent0003" id="entity_producto"><rect fill="#F1F1F1" height="96.8906" rx="2.5" ry="2.5" style="stroke:#181818;stroke-width:0.5;" width="173.3623" x="420.99" y="263.3369"/><ellipse cx="472.2835" cy="279.3369" fill="#ADD1B2" rx="11" ry="11" style="stroke:#181818;stroke-width:1;"/><path d="M476.3928,285.3369 L468.6741,285.3369 L468.6741,272.9462 L476.3928,272.9462 L476.3928,275.1025 L471.1272,275.1025 L471.1272,277.7744 L475.8928,277.7744 L475.8928,279.9306 L471.1272,279.9306 L471.1272,283.1806 L476.3928,283.1806 L476.3928,285.3369 Z " fill="#000000"/><text fill="#000000" font-family="sans-serif" font-size="14" lengthAdjust="spacing" textLength="62.2754" x="492.7835" y="284.1836">Producto</text><line style="stroke:#181818;stroke-width:0.5;" x1="421.99" x2="593.3523" y1="295.3369" y2="295.3369"/><ellipse cx="431.99" cy="308.9853" fill="#000000" rx="3" ry="3" style="stroke:#000000;stroke-width:1;"/><text fill="#000000" font-family="sans-serif" font-size="14" font-weight="bold" lengthAdjust="spacing" textLength="54.3525" x="440.99" y="312.332">Codigo</text><text fill="#000000" font-family="sans-serif" font-size="14" lengthAdjust="spacing" textLength="88.5596" x="499.7927" y="312.332">: string &#171;PK&#187;</text><line style="stroke:#181818;stroke-width:1;" x1="421.99" x2="593.3523" y1="319.6337" y2="319.6337"/><ellipse cx="431.99" cy="333.2822" fill="#000000" rx="3" ry="3" style="stroke:#000000;stroke-width:1;"/><text fill="#000000" font-family="sans-serif" font-size="14" lengthAdjust="spacing" textLength="109.7373" x="440.99" y="336.6289">Nombre : string</text><ellipse cx="431.99" cy="349.5791" fill="#000000" rx="3" ry="3" style="stroke:#000000;stroke-width:1;"/><text fill="#000000" font-family="sans-serif" font-size="14" lengthAdjust="spacing" textLength="111.7744" x="440.99" y="352.9257">Precio : decimal</text></g><g class="entity" data-entity="GMN7" data-source-line="34" data-uid="ent0008" id="entity_GMN7"><path d="M223.34,261.3769 L223.34,307.7769 L188.64,311.7769 L223.34,315.7769 L223.34,362.1738 A0,0 0 0 0 223.34,362.1738 L386.0133,362.1738 A0,0 0 0 0 386.0133,362.1738 L386.0133,271.3769 L376.0133,261.3769 L223.34,261.3769 A0,0 0 0 0 223.34,261.3769" fill="#FEFFDD" style="stroke:#181818;stroke-width:0.5;"/><path d="M376.0133,261.3769 L376.0133,271.3769 L386.0133,271.3769 L376.0133,261.3769" fill="#FEFFDD" style="stroke:#181818;stroke-width:0.5;"/><text fill="#000000" font-family="sans-serif" font-size="13" font-weight="bold" lengthAdjust="spacing" textLength="95.1069" x="229.34" y="278.4438">Persistencia:</text><text fill="#000000" font-family="sans-serif" font-size="13" lengthAdjust="spacing" textLength="42.4341" x="328.5793" y="278.4438">SQLite</text><text fill="#000000" font-family="sans-serif" font-size="13" font-weight="bold" lengthAdjust="spacing" textLength="45.373" x="229.34" y="293.5766">Tabla:</text><text fill="#000000" font-family="sans-serif" font-size="13" lengthAdjust="spacing" textLength="36.4038" x="278.8454" y="293.5766">Users</text><text fill="#000000" font-family="sans-serif" font-size="13" font-weight="bold" lengthAdjust="spacing" textLength="80.5771" x="229.34" y="308.7094">Seed Data:</text><text fill="#000000" font-family="sans-serif" font-size="13" lengthAdjust="spacing" textLength="127.7466" x="229.34" y="323.8422">- admin / admin123</text><text fill="#000000" font-family="sans-serif" font-size="13" lengthAdjust="spacing" textLength="131.0347" x="229.34" y="338.975">- usuario1 / user123</text><text fill="#000000" font-family="sans-serif" font-size="13" lengthAdjust="spacing" textLength="131.0347" x="229.34" y="354.1078">- usuario2 / user456</text></g><g class="entity" data-entity="GMN10" data-source-line="43" data-uid="ent0011" id="entity_GMN10"><path d="M629.32,284.0769 L629.32,307.7769 L594.7,311.7769 L629.32,315.7769 L629.32,339.4753 A0,0 0 0 0 629.32,339.4753 L860.0339,339.4753 A0,0 0 0 0 860.0339,339.4753 L860.0339,294.0769 L850.0339,284.0769 L629.32,284.0769 A0,0 0 0 0 629.32,284.0769" fill="#FEFFDD" style="stroke:#181818;stroke-width:0.5;"/><path d="M850.0339,284.0769 L850.0339,294.0769 L860.0339,294.0769 L850.0339,284.0769" fill="#FEFFDD" style="stroke:#181818;stroke-width:0.5;"/><text fill="#000000" font-family="sans-serif" font-size="13" font-weight="bold" lengthAdjust="spacing" textLength="95.1069" x="635.32" y="301.1438">Persistencia:</text><text fill="#000000" font-family="sans-serif" font-size="13" lengthAdjust="spacing" textLength="110.4746" x="734.5593" y="301.1438">Solo en memoria</text><text fill="#000000" font-family="sans-serif" font-size="13" font-weight="bold" lengthAdjust="spacing" textLength="69.5703" x="635.32" y="316.2766">Lifecycle:</text><text fill="#000000" font-family="sans-serif" font-size="13" lengthAdjust="spacing" textLength="134.5576" x="709.0226" y="316.2766">Se pierde al reiniciar</text><text fill="#000000" font-family="sans-serif" font-size="13" font-weight="bold" lengthAdjust="spacing" textLength="75.2515" x="635.32" y="331.4094">Singleton:</text><text fill="#000000" font-family="sans-serif" font-size="13" lengthAdjust="spacing" textLength="105.8726" x="714.7038" y="331.4094">ProductoService</text></g><!--link user to sqlite--><g class="link" data-entity-1="user" data-entity-2="sqlite" data-source-line="48" data-uid="lnk13" id="link_user_sqlite"><path codeLine="48" d="M143.8,368.7969 C170.17,400.8169 198.3753,435.0857 220.0553,461.4057" fill="none" id="user-to-sqlite" style="stroke:#181818;stroke-width:1;"/><polygon fill="#181818" points="223.87,466.0369,221.2353,456.547,220.6911,462.1776,215.0604,461.6333,223.87,466.0369" style="stroke:#181818;stroke-width:1;"/><text fill="#000000" font-family="sans-serif" font-size="13" lengthAdjust="spacing" textLength="84.0366" x="178.7" y="411.4438">persistido en</text></g><!--link producto to memory--><g class="link" data-entity-1="producto" data-entity-2="memory" data-source-line="49" data-uid="lnk14" id="link_producto_memory"><path codeLine="49" d="M479.58,360.4869 C458.89,395.6169 434.6043,436.8566 417.8643,465.2866" fill="none" id="producto-to-memory" style="stroke:#181818;stroke-width:1;"/><polygon fill="#181818" points="414.82,470.4569,422.8334,464.731,417.357,466.1483,415.9397,460.6719,414.82,470.4569" style="stroke:#181818;stroke-width:1;"/><text fill="#000000" font-family="sans-serif" font-size="13" lengthAdjust="spacing" textLength="100.1343" x="457.91" y="411.4438">almacenado en</text></g><!--link LoginRequestDto to user--><g class="link" data-entity-1="LoginRequestDto" data-entity-2="user" data-source-line="69" data-uid="lnk19" id="link_LoginRequestDto_user"><path codeLine="69" d="M115.68,168.2369 C112.49,193.5469 109.0426,220.8243 105.5026,248.8243" fill="none" id="LoginRequestDto-to-user" style="stroke:#181818;stroke-width:1;stroke-dasharray:7,7;"/><polygon fill="#181818" points="104.75,254.7769,109.8473,246.3497,105.3772,249.8164,101.9105,245.3462,104.75,254.7769" style="stroke:#181818;stroke-width:1;"/><text fill="#000000" font-family="sans-serif" font-size="13" lengthAdjust="spacing" textLength="61.3628" x="111.55" y="221.2538">autentica</text></g><!--link ProductoDto to producto--><g class="link" data-entity-1="ProductoDto" data-entity-2="producto" data-source-line="70" data-uid="lnk20" id="link_ProductoDto_producto"><path codeLine="70" d="M494.4,176.5669 C497.04,203.2169 499.7207,230.3359 502.3507,256.9859" fill="none" id="ProductoDto-to-producto" style="stroke:#181818;stroke-width:1;stroke-dasharray:7,7;"/><polygon fill="#181818" points="502.94,262.9569,506.0368,253.6075,502.449,257.981,498.0755,254.3932,502.94,262.9569" style="stroke:#181818;stroke-width:1;"/><text fill="#000000" font-family="sans-serif" font-size="13" lengthAdjust="spacing" textLength="103.8477" x="499.67" y="221.2538">crea/representa</text></g><!--SRC=[TLHDRzim3BtxLn3UOMa0fsZtSGY206jJRC7IpMioxB8BOx6E45jo9Nb3KEo_ZxBaV3IRBqx8H_AHZxIJhYAOIImDrWXtoac18dkW2Wkf5MIG6otQmjsZmf9gKkv3FayIkvMgGOu1jaYtW-S4-Bd1ObiQtIfngojjuCT6EWeURGIPOBtXvDlaJvAyxWl2Tqi61ZaPAwstS5fOVbjmz4KIAwGUam9QQ3qu51p2S3WNmo6CGIe7aqd-UJhjF5aM0JvCOKqCiSv8LKRxNOsoUcdCqThVJFKJsit1Tq8r3aJ3OCdTUA8rrTf8F33j8HtRfiSV6Dzg8KlTiGuL_adyYwxNvensReYLOQlWTusL9zVmF5aTI9TE6_wHnbe27QxHUaStovzgu6TdHs9zqN6pJnMR8veJ-PSDEI2Tg-pUTxRZi0NBCkdRceRWhktTFfZ3bUPaHfOR1_gnaocG7aPXIHKInznte1ETArnNdTKhPQDnIIHWnlpP4SO2A6gfu3AyhwxVH7DhMpHINx77LpnpN4V7stVlMI01dkHBghr6_wDxAdH4BUGZ5RkYeWv2q4ZY7GUim91KacFxzfSiNqLEAu_ifxWayqiMTCIfs-iic_QoZA7f3yANJ_QRv35n-cEkLsD12WE65tMs-cgPGhXWDjk4LyQXfm2fTwRmQk4x_sY8cmhw5HLlFYnqATK3FRLatMo_ilxfhsXlw2_bU7LEajX6AqkdMLPwonpF8lgHd8B3bUp_XdCurE_kuB1xBwcFHjFmeU09jSvVPe79SI4Fs4zq38KXl3JK6B8CnkGl]--></g></svg>