<svg xmlns="http://www.w3.org/2000/svg" xmlns:xlink="http://www.w3.org/1999/xlink" contentStyleType="text/css" data-diagram-type="SEQUENCE" height="1623px" preserveAspectRatio="none" style="width:1039px;height:1623px;background:#FFFFFF;" version="1.1" viewBox="0 0 1039 1623" width="1039px" zoomAndPan="magnify"><title>Diagrama de Secuencia - Gestion de Productos</title><defs/><g><text fill="#000000" font-family="sans-serif" font-size="14" font-weight="bold" lengthAdjust="spacing" textLength="370.3232" x="330.7151" y="27.9951">Diagrama de Secuencia - Gestion de Productos</text><g><title>JWT Middleware</title><rect fill="#FFFFFF" height="71.2656" style="stroke:#181818;stroke-width:1;" width="10" x="285.5781" y="223.125"/></g><g><title>JWT Middleware</title><rect fill="#FFFFFF" height="71.2656" style="stroke:#181818;stroke-width:1;" width="10" x="285.5781" y="730.5156"/></g><g><title>JWT Middleware</title><rect fill="#FFFFFF" height="71.2656" style="stroke:#181818;stroke-width:1;" width="10" x="285.5781" y="1134.2422"/></g><g><title>JWT Middleware</title><rect fill="#FFFFFF" height="71.2656" style="stroke:#181818;stroke-width:1;" width="10" x="285.5781" y="1453.7031"/></g><g><title>ProductosController</title><rect fill="#FFFFFF" height="333.5938" style="stroke:#181818;stroke-width:1;" width="10" x="441.3091" y="294.3906"/></g><g><title>ProductosController</title><rect fill="#FFFFFF" height="245.0625" style="stroke:#181818;stroke-width:1;" width="10" x="441.3091" y="801.7813"/></g><g><title>ProductosController</title><rect fill="#FFFFFF" height="160.7969" style="stroke:#181818;stroke-width:1;" width="10" x="441.3091" y="1205.5078"/></g><g><title>ProductoService</title><rect fill="#FFFFFF" height="145.6641" style="stroke:#181818;stroke-width:1;" width="10" x="780.4727" y="438.0547"/></g><g><title>ProductoService</title><rect fill="#FFFFFF" height="87.3984" style="stroke:#181818;stroke-width:1;" width="10" x="780.4727" y="915.1797"/></g><g><title>ProductoService</title><rect fill="#FFFFFF" height="87.3984" style="stroke:#181818;stroke-width:1;" width="10" x="780.4727" y="1234.6406"/></g><g><title>Cliente</title><rect fill="#000000" fill-opacity="0.00000" height="1424.375" width="8" x="28.5718" y="118.5938"/><line style="stroke:#181818;stroke-width:0.5;stroke-dasharray:5,5;" x1="32" x2="32" y1="118.5938" y2="1542.9688"/></g><g><title>JWT Middleware</title><rect fill="#000000" fill-opacity="0.00000" height="1424.375" width="8" x="286.5781" y="118.5938"/><line style="stroke:#181818;stroke-width:0.5;stroke-dasharray:5,5;" x1="289.7695" x2="289.7695" y1="118.5938" y2="1542.9688"/></g><g><title>ProductosController</title><rect fill="#000000" fill-opacity="0.00000" height="1424.375" width="8" x="442.3091" y="118.5938"/><line style="stroke:#181818;stroke-width:0.5;stroke-dasharray:5,5;" x1="445.938" x2="445.938" y1="118.5938" y2="1542.9688"/></g><g><title>ProductoService</title><rect fill="#000000" fill-opacity="0.00000" height="1424.375" width="8" x="781.4727" y="118.5938"/><line style="stroke:#181818;stroke-width:0.5;stroke-dasharray:5,5;" x1="785.4644" x2="785.4644" y1="118.5938" y2="1542.9688"/></g><g><title>List.Producto.</title><rect fill="#000000" fill-opacity="0.00000" height="1424.375" width="8" x="959.6489" y="118.5938"/><line style="stroke:#181818;stroke-width:0.5;stroke-dasharray:5,5;" x1="963.5444" x2="963.5444" y1="118.5938" y2="1542.9688"/></g><g class="participant participant-head" data-participant="client"><text fill="#000000" font-family="sans-serif" font-size="14" lengthAdjust="spacing" textLength="49.1436" x="5" y="115.292">Cliente</text><ellipse cx="32.5718" cy="50.7969" fill="#E2E2F0" rx="8" ry="8" style="stroke:#181818;stroke-width:0.5;"/><path d="M32.5718,58.7969 L32.5718,85.7969 M19.5718,66.7969 L45.5718,66.7969 M32.5718,85.7969 L19.5718,100.7969 M32.5718,85.7969 L45.5718,100.7969" fill="none" style="stroke:#181818;stroke-width:0.5;"/></g><g class="participant participant-tail" data-participant="client"><text fill="#000000" font-family="sans-serif" font-size="14" lengthAdjust="spacing" textLength="49.1436" x="5" y="1554.9639">Cliente</text><ellipse cx="32.5718" cy="1566.7656" fill="#E2E2F0" rx="8" ry="8" style="stroke:#181818;stroke-width:0.5;"/><path d="M32.5718,1574.7656 L32.5718,1601.7656 M19.5718,1582.7656 L45.5718,1582.7656 M32.5718,1601.7656 L19.5718,1616.7656 M32.5718,1601.7656 L45.5718,1616.7656" fill="none" style="stroke:#181818;stroke-width:0.5;"/></g><g class="participant participant-head" data-participant="jwt"><rect fill="#FFFFFF" height="30.2969" rx="2.5" ry="2.5" style="stroke:#000000;stroke-width:0.5;" width="125.6172" x="227.7695" y="87.2969"/><text fill="#000000" font-family="sans-serif" font-size="14" lengthAdjust="spacing" textLength="111.6172" x="234.7695" y="107.292">JWT Middleware</text></g><g class="participant participant-tail" data-participant="jwt"><rect fill="#FFFFFF" height="30.2969" rx="2.5" ry="2.5" style="stroke:#000000;stroke-width:0.5;" width="125.6172" x="227.7695" y="1541.9688"/><text fill="#000000" font-family="sans-serif" font-size="14" lengthAdjust="spacing" textLength="111.6172" x="234.7695" y="1561.9639">JWT Middleware</text></g><g class="participant participant-head" data-participant="ctrl"><rect fill="#FFFFFF" height="30.2969" rx="2.5" ry="2.5" style="stroke:#000000;stroke-width:0.5;" width="152.7422" x="369.938" y="87.2969"/><text fill="#000000" font-family="sans-serif" font-size="14" lengthAdjust="spacing" textLength="138.7422" x="376.938" y="107.292">ProductosController</text></g><g class="participant participant-tail" data-participant="ctrl"><rect fill="#FFFFFF" height="30.2969" rx="2.5" ry="2.5" style="stroke:#000000;stroke-width:0.5;" width="152.7422" x="369.938" y="1541.9688"/><text fill="#000000" font-family="sans-serif" font-size="14" lengthAdjust="spacing" textLength="138.7422" x="376.938" y="1561.9639">ProductosController</text></g><g class="participant participant-head" data-participant="svc"><rect fill="#FFFFFF" height="30.2969" rx="2.5" ry="2.5" style="stroke:#000000;stroke-width:0.5;" width="128.0166" x="721.4644" y="87.2969"/><text fill="#000000" font-family="sans-serif" font-size="14" lengthAdjust="spacing" textLength="114.0166" x="728.4644" y="107.292">ProductoService</text></g><g class="participant participant-tail" data-participant="svc"><rect fill="#FFFFFF" height="30.2969" rx="2.5" ry="2.5" style="stroke:#000000;stroke-width:0.5;" width="128.0166" x="721.4644" y="1541.9688"/><text fill="#000000" font-family="sans-serif" font-size="14" lengthAdjust="spacing" textLength="114.0166" x="728.4644" y="1561.9639">ProductoService</text></g><g class="participant participant-head" data-participant="memory"><rect fill="#E2E2F0" height="46.5938" style="stroke:#181818;stroke-width:0.5;" width="124.209" x="903.5444" y="67"/><rect fill="#E2E2F0" height="46.5938" style="stroke:#181818;stroke-width:0.5;" width="124.209" x="899.5444" y="71"/><text fill="#000000" font-family="sans-serif" font-size="14" lengthAdjust="spacing" textLength="110.209" x="906.5444" y="90.9951">List&lt;Producto&gt;</text><text fill="#000000" font-family="sans-serif" font-size="14" lengthAdjust="spacing" textLength="85.9141" x="918.6919" y="107.292">(In-Memory)</text></g><g class="participant participant-tail" data-participant="memory"><rect fill="#E2E2F0" height="46.5938" style="stroke:#181818;stroke-width:0.5;" width="124.209" x="903.5444" y="1541.9688"/><rect fill="#E2E2F0" height="46.5938" style="stroke:#181818;stroke-width:0.5;" width="124.209" x="899.5444" y="1545.9688"/><text fill="#000000" font-family="sans-serif" font-size="14" lengthAdjust="spacing" textLength="110.209" x="906.5444" y="1565.9639">List&lt;Producto&gt;</text><text fill="#000000" font-family="sans-serif" font-size="14" lengthAdjust="spacing" textLength="85.9141" x="918.6919" y="1582.2607">(In-Memory)</text></g><g><title>JWT Middleware</title><rect fill="#FFFFFF" height="71.2656" style="stroke:#181818;stroke-width:1;" width="10" x="285.5781" y="223.125"/></g><g><title>JWT Middleware</title><rect fill="#FFFFFF" height="71.2656" style="stroke:#181818;stroke-width:1;" width="10" x="285.5781" y="730.5156"/></g><g><title>JWT Middleware</title><rect fill="#FFFFFF" height="71.2656" style="stroke:#181818;stroke-width:1;" width="10" x="285.5781" y="1134.2422"/></g><g><title>JWT Middleware</title><rect fill="#FFFFFF" height="71.2656" style="stroke:#181818;stroke-width:1;" width="10" x="285.5781" y="1453.7031"/></g><g><title>ProductosController</title><rect fill="#FFFFFF" height="333.5938" style="stroke:#181818;stroke-width:1;" width="10" x="441.3091" y="294.3906"/></g><g><title>ProductosController</title><rect fill="#FFFFFF" height="245.0625" style="stroke:#181818;stroke-width:1;" width="10" x="441.3091" y="801.7813"/></g><g><title>ProductosController</title><rect fill="#FFFFFF" height="160.7969" style="stroke:#181818;stroke-width:1;" width="10" x="441.3091" y="1205.5078"/></g><g><title>ProductoService</title><rect fill="#FFFFFF" height="145.6641" style="stroke:#181818;stroke-width:1;" width="10" x="780.4727" y="438.0547"/></g><g><title>ProductoService</title><rect fill="#FFFFFF" height="87.3984" style="stroke:#181818;stroke-width:1;" width="10" x="780.4727" y="915.1797"/></g><g><title>ProductoService</title><rect fill="#FFFFFF" height="87.3984" style="stroke:#181818;stroke-width:1;" width="10" x="780.4727" y="1234.6406"/></g><rect fill="#EEEEEE" height="3" style="stroke:#EEEEEE;stroke-width:1;" width="1032.7534" x="0" y="149.1602"/><line style="stroke:#000000;stroke-width:1;" x1="0" x2="1032.7534" y1="149.1602" y2="149.1602"/><line style="stroke:#000000;stroke-width:1;" x1="0" x2="1032.7534" y1="152.1602" y2="152.1602"/><rect fill="#EEEEEE" height="23.1328" style="stroke:#000000;stroke-width:2;" width="216.4014" x="408.176" y="138.5938"/><text fill="#000000" font-family="sans-serif" font-size="13" font-weight="bold" lengthAdjust="spacing" textLength="197.8755" x="414.176" y="154.6606">Agregar Producto - Exitoso</text><g class="message" data-participant-1="client" data-participant-2="jwt"><polygon fill="#181818" points="273.5781,219.125,283.5781,223.125,273.5781,227.125,277.5781,223.125" style="stroke:#181818;stroke-width:1;"/><line style="stroke:#181818;stroke-width:1;" x1="32.5718" x2="279.5781" y1="223.125" y2="223.125"/><text fill="#000000" font-family="sans-serif" font-size="13" lengthAdjust="spacing" textLength="131.9995" x="39.5718" y="187.7935">POST /api/productos</text><text fill="#000000" font-family="sans-serif" font-size="13" lengthAdjust="spacing" textLength="196.644" x="39.5718" y="202.9263">Authorization: Bearer {token}</text><text fill="#000000" font-family="sans-serif" font-size="13" lengthAdjust="spacing" textLength="167.0005" x="39.5718" y="218.0591">{codigo, nombre, precio}</text></g><g class="message" data-participant-1="jwt" data-participant-2="jwt"><line style="stroke:#181818;stroke-width:1;" x1="295.5781" x2="337.5781" y1="252.2578" y2="252.2578"/><line style="stroke:#181818;stroke-width:1;" x1="337.5781" x2="337.5781" y1="252.2578" y2="265.2578"/><line style="stroke:#181818;stroke-width:1;" x1="296.5781" x2="337.5781" y1="265.2578" y2="265.2578"/><polygon fill="#181818" points="306.5781,261.2578,296.5781,265.2578,306.5781,269.2578,302.5781,265.2578" style="stroke:#181818;stroke-width:1;"/><text fill="#000000" font-family="sans-serif" font-size="13" lengthAdjust="spacing" textLength="118.1997" x="302.5781" y="247.1919">Validar JWT Token</text></g><g class="message" data-participant-1="jwt" data-participant-2="ctrl"><polygon fill="#181818" points="429.3091,290.3906,439.3091,294.3906,429.3091,298.3906,433.3091,294.3906" style="stroke:#181818;stroke-width:1;"/><line style="stroke:#181818;stroke-width:1;" x1="290.5781" x2="435.3091" y1="294.3906" y2="294.3906"/><text fill="#000000" font-family="sans-serif" font-size="13" lengthAdjust="spacing" textLength="126.731" x="297.5781" y="289.3247">Request autorizado</text></g><g class="message" data-participant-1="ctrl" data-participant-2="ctrl"><line style="stroke:#181818;stroke-width:1;" x1="451.3091" x2="493.3091" y1="338.6563" y2="338.6563"/><line style="stroke:#181818;stroke-width:1;" x1="493.3091" x2="493.3091" y1="338.6563" y2="351.6563"/><line style="stroke:#181818;stroke-width:1;" x1="452.3091" x2="493.3091" y1="351.6563" y2="351.6563"/><polygon fill="#181818" points="462.3091,347.6563,452.3091,351.6563,462.3091,355.6563,458.3091,351.6563" style="stroke:#181818;stroke-width:1;"/><text fill="#000000" font-family="sans-serif" font-size="13" lengthAdjust="spacing" textLength="123.2207" x="458.3091" y="318.4575">Validar ModelState</text><text fill="#000000" font-family="sans-serif" font-size="13" lengthAdjust="spacing" textLength="165.9404" x="458.3091" y="333.5903">(ProductoDto validations)</text></g><g class="message" data-participant-1="ctrl" data-participant-2="ctrl"><line style="stroke:#181818;stroke-width:1;" x1="451.3091" x2="493.3091" y1="395.9219" y2="395.9219"/><line style="stroke:#181818;stroke-width:1;" x1="493.3091" x2="493.3091" y1="395.9219" y2="408.9219"/><line style="stroke:#181818;stroke-width:1;" x1="452.3091" x2="493.3091" y1="408.9219" y2="408.9219"/><polygon fill="#181818" points="462.3091,404.9219,452.3091,408.9219,462.3091,412.9219,458.3091,408.9219" style="stroke:#181818;stroke-width:1;"/><text fill="#000000" font-family="sans-serif" font-size="13" lengthAdjust="spacing" textLength="97.6904" x="458.3091" y="375.7231">Crear Producto</text><text fill="#000000" font-family="sans-serif" font-size="13" lengthAdjust="spacing" textLength="124.2935" x="458.3091" y="390.856">desde ProductoDto</text></g><g class="message" data-participant-1="ctrl" data-participant-2="svc"><polygon fill="#181818" points="768.4727,434.0547,778.4727,438.0547,768.4727,442.0547,772.4727,438.0547" style="stroke:#181818;stroke-width:1;"/><line style="stroke:#181818;stroke-width:1;" x1="451.3091" x2="774.4727" y1="438.0547" y2="438.0547"/><text fill="#000000" font-family="sans-serif" font-size="13" lengthAdjust="spacing" textLength="120.4341" x="458.3091" y="432.9888">Agregar(producto)</text></g><g class="message" data-participant-1="svc" data-participant-2="memory"><polygon fill="#181818" points="951.6489,463.1875,961.6489,467.1875,951.6489,471.1875,955.6489,467.1875" style="stroke:#181818;stroke-width:1;"/><line style="stroke:#181818;stroke-width:1;" x1="790.4727" x2="957.6489" y1="467.1875" y2="467.1875"/><text fill="#000000" font-family="sans-serif" font-size="13" lengthAdjust="spacing" textLength="119.3042" x="797.4727" y="462.1216">Buscar por Codigo</text></g><g class="message" data-participant-1="memory" data-participant-2="svc"><polygon fill="#181818" points="801.4727,492.3203,791.4727,496.3203,801.4727,500.3203,797.4727,496.3203" style="stroke:#181818;stroke-width:1;"/><line style="stroke:#181818;stroke-width:1;stroke-dasharray:2,2;" x1="795.4727" x2="962.6489" y1="496.3203" y2="496.3203"/><text fill="#000000" font-family="sans-serif" font-size="13" lengthAdjust="spacing" textLength="60.9819" x="807.4727" y="491.2544">No existe</text></g><g class="message" data-participant-1="svc" data-participant-2="memory"><polygon fill="#181818" points="951.6489,521.4531,961.6489,525.4531,951.6489,529.4531,955.6489,525.4531" style="stroke:#181818;stroke-width:1;"/><line style="stroke:#181818;stroke-width:1;" x1="790.4727" x2="957.6489" y1="525.4531" y2="525.4531"/><text fill="#000000" font-family="sans-serif" font-size="13" lengthAdjust="spacing" textLength="93.7803" x="797.4727" y="520.3872">Add(producto)</text></g><g class="message" data-participant-1="memory" data-participant-2="svc"><polygon fill="#181818" points="801.4727,550.5859,791.4727,554.5859,801.4727,558.5859,797.4727,554.5859" style="stroke:#181818;stroke-width:1;"/><line style="stroke:#181818;stroke-width:1;stroke-dasharray:2,2;" x1="795.4727" x2="962.6489" y1="554.5859" y2="554.5859"/><text fill="#000000" font-family="sans-serif" font-size="13" lengthAdjust="spacing" textLength="18.7573" x="807.4727" y="549.52">OK</text></g><g class="message" data-participant-1="svc" data-participant-2="ctrl"><polygon fill="#181818" points="462.3091,579.7188,452.3091,583.7188,462.3091,587.7188,458.3091,583.7188" style="stroke:#181818;stroke-width:1;"/><line style="stroke:#181818;stroke-width:1;stroke-dasharray:2,2;" x1="456.3091" x2="784.4727" y1="583.7188" y2="583.7188"/><text fill="#000000" font-family="sans-serif" font-size="13" lengthAdjust="spacing" textLength="281.1187" x="468.3091" y="578.6528">(true, "Producto agregado correctamente")</text></g><g class="message" data-participant-1="ctrl" data-participant-2="client"><polygon fill="#181818" points="43.5718,623.9844,33.5718,627.9844,43.5718,631.9844,39.5718,627.9844" style="stroke:#181818;stroke-width:1;"/><line style="stroke:#181818;stroke-width:1;stroke-dasharray:2,2;" x1="37.5718" x2="445.3091" y1="627.9844" y2="627.9844"/><text fill="#000000" font-family="sans-serif" font-size="13" lengthAdjust="spacing" textLength="80.6787" x="49.5718" y="607.7856">201 Created</text><text fill="#000000" font-family="sans-serif" font-size="13" lengthAdjust="spacing" textLength="102.0195" x="49.5718" y="622.9185">Producto object</text></g><rect fill="#EEEEEE" height="3" style="stroke:#EEEEEE;stroke-width:1;" width="1032.7534" x="0" y="656.5508"/><line style="stroke:#000000;stroke-width:1;" x1="0" x2="1032.7534" y1="656.5508" y2="656.5508"/><line style="stroke:#000000;stroke-width:1;" x1="0" x2="1032.7534" y1="659.5508" y2="659.5508"/><rect fill="#EEEEEE" height="23.1328" style="stroke:#000000;stroke-width:2;" width="235.8442" x="398.4546" y="645.9844"/><text fill="#000000" font-family="sans-serif" font-size="13" font-weight="bold" lengthAdjust="spacing" textLength="217.3184" x="404.4546" y="662.0513">Agregar Producto - Duplicado</text><g class="message" data-participant-1="client" data-participant-2="jwt"><polygon fill="#181818" points="273.5781,726.5156,283.5781,730.5156,273.5781,734.5156,277.5781,730.5156" style="stroke:#181818;stroke-width:1;"/><line style="stroke:#181818;stroke-width:1;" x1="32.5718" x2="279.5781" y1="730.5156" y2="730.5156"/><text fill="#000000" font-family="sans-serif" font-size="13" lengthAdjust="spacing" textLength="131.9995" x="39.5718" y="695.1841">POST /api/productos</text><text fill="#000000" font-family="sans-serif" font-size="13" lengthAdjust="spacing" textLength="196.644" x="39.5718" y="710.3169">Authorization: Bearer {token}</text><text fill="#000000" font-family="sans-serif" font-size="13" lengthAdjust="spacing" textLength="234.0063" x="39.5718" y="725.4497">{codigo_existente, nombre, precio}</text></g><g class="message" data-participant-1="jwt" data-participant-2="jwt"><line style="stroke:#181818;stroke-width:1;" x1="295.5781" x2="337.5781" y1="759.6484" y2="759.6484"/><line style="stroke:#181818;stroke-width:1;" x1="337.5781" x2="337.5781" y1="759.6484" y2="772.6484"/><line style="stroke:#181818;stroke-width:1;" x1="296.5781" x2="337.5781" y1="772.6484" y2="772.6484"/><polygon fill="#181818" points="306.5781,768.6484,296.5781,772.6484,306.5781,776.6484,302.5781,772.6484" style="stroke:#181818;stroke-width:1;"/><text fill="#000000" font-family="sans-serif" font-size="13" lengthAdjust="spacing" textLength="118.1997" x="302.5781" y="754.5825">Validar JWT Token</text></g><g class="message" data-participant-1="jwt" data-participant-2="ctrl"><polygon fill="#181818" points="429.3091,797.7813,439.3091,801.7813,429.3091,805.7813,433.3091,801.7813" style="stroke:#181818;stroke-width:1;"/><line style="stroke:#181818;stroke-width:1;" x1="290.5781" x2="435.3091" y1="801.7813" y2="801.7813"/><text fill="#000000" font-family="sans-serif" font-size="13" lengthAdjust="spacing" textLength="126.731" x="297.5781" y="796.7153">Request autorizado</text></g><g class="message" data-participant-1="ctrl" data-participant-2="ctrl"><line style="stroke:#181818;stroke-width:1;" x1="451.3091" x2="493.3091" y1="830.9141" y2="830.9141"/><line style="stroke:#181818;stroke-width:1;" x1="493.3091" x2="493.3091" y1="830.9141" y2="843.9141"/><line style="stroke:#181818;stroke-width:1;" x1="452.3091" x2="493.3091" y1="843.9141" y2="843.9141"/><polygon fill="#181818" points="462.3091,839.9141,452.3091,843.9141,462.3091,847.9141,458.3091,843.9141" style="stroke:#181818;stroke-width:1;"/><text fill="#000000" font-family="sans-serif" font-size="13" lengthAdjust="spacing" textLength="123.2207" x="458.3091" y="825.8481">Validar ModelState</text></g><g class="message" data-participant-1="ctrl" data-participant-2="ctrl"><line style="stroke:#181818;stroke-width:1;" x1="451.3091" x2="493.3091" y1="873.0469" y2="873.0469"/><line style="stroke:#181818;stroke-width:1;" x1="493.3091" x2="493.3091" y1="873.0469" y2="886.0469"/><line style="stroke:#181818;stroke-width:1;" x1="452.3091" x2="493.3091" y1="886.0469" y2="886.0469"/><polygon fill="#181818" points="462.3091,882.0469,452.3091,886.0469,462.3091,890.0469,458.3091,886.0469" style="stroke:#181818;stroke-width:1;"/><text fill="#000000" font-family="sans-serif" font-size="13" lengthAdjust="spacing" textLength="97.6904" x="458.3091" y="867.981">Crear Producto</text></g><g class="message" data-participant-1="ctrl" data-participant-2="svc"><polygon fill="#181818" points="768.4727,911.1797,778.4727,915.1797,768.4727,919.1797,772.4727,915.1797" style="stroke:#181818;stroke-width:1;"/><line style="stroke:#181818;stroke-width:1;" x1="451.3091" x2="774.4727" y1="915.1797" y2="915.1797"/><text fill="#000000" font-family="sans-serif" font-size="13" lengthAdjust="spacing" textLength="120.4341" x="458.3091" y="910.1138">Agregar(producto)</text></g><g class="message" data-participant-1="svc" data-participant-2="memory"><polygon fill="#181818" points="951.6489,940.3125,961.6489,944.3125,951.6489,948.3125,955.6489,944.3125" style="stroke:#181818;stroke-width:1;"/><line style="stroke:#181818;stroke-width:1;" x1="790.4727" x2="957.6489" y1="944.3125" y2="944.3125"/><text fill="#000000" font-family="sans-serif" font-size="13" lengthAdjust="spacing" textLength="119.3042" x="797.4727" y="939.2466">Buscar por Codigo</text></g><g class="message" data-participant-1="memory" data-participant-2="svc"><polygon fill="#181818" points="801.4727,969.4453,791.4727,973.4453,801.4727,977.4453,797.4727,973.4453" style="stroke:#181818;stroke-width:1;"/><line style="stroke:#181818;stroke-width:1;stroke-dasharray:2,2;" x1="795.4727" x2="962.6489" y1="973.4453" y2="973.4453"/><text fill="#000000" font-family="sans-serif" font-size="13" lengthAdjust="spacing" textLength="59.2109" x="807.4727" y="968.3794">Ya existe</text></g><g class="message" data-participant-1="svc" data-participant-2="ctrl"><polygon fill="#181818" points="462.3091,998.5781,452.3091,1002.5781,462.3091,1006.5781,458.3091,1002.5781" style="stroke:#181818;stroke-width:1;"/><line style="stroke:#181818;stroke-width:1;stroke-dasharray:2,2;" x1="456.3091" x2="784.4727" y1="1002.5781" y2="1002.5781"/><text fill="#000000" font-family="sans-serif" font-size="13" lengthAdjust="spacing" textLength="305.1636" x="468.3091" y="997.5122">(false, "Ya existe un producto con ese codigo")</text></g><g class="message" data-participant-1="ctrl" data-participant-2="client"><polygon fill="#181818" points="43.5718,1042.8438,33.5718,1046.8438,43.5718,1050.8438,39.5718,1046.8438" style="stroke:#181818;stroke-width:1;"/><line style="stroke:#181818;stroke-width:1;stroke-dasharray:2,2;" x1="37.5718" x2="445.3091" y1="1046.8438" y2="1046.8438"/><text fill="#000000" font-family="sans-serif" font-size="13" lengthAdjust="spacing" textLength="78.2603" x="49.5718" y="1026.645">409 Conflict</text><text fill="#000000" font-family="sans-serif" font-size="13" lengthAdjust="spacing" textLength="167.0449" x="49.5718" y="1041.7778">{message: "Ya existe..."}</text></g><rect fill="#EEEEEE" height="3" style="stroke:#EEEEEE;stroke-width:1;" width="1032.7534" x="0" y="1075.4102"/><line style="stroke:#000000;stroke-width:1;" x1="0" x2="1032.7534" y1="1075.4102" y2="1075.4102"/><line style="stroke:#000000;stroke-width:1;" x1="0" x2="1032.7534" y1="1078.4102" y2="1078.4102"/><rect fill="#EEEEEE" height="23.1328" style="stroke:#000000;stroke-width:2;" width="230.8931" x="400.9302" y="1064.8438"/><text fill="#000000" font-family="sans-serif" font-size="13" font-weight="bold" lengthAdjust="spacing" textLength="212.3672" x="406.9302" y="1080.9106">Obtener Todos los Productos</text><g class="message" data-participant-1="client" data-participant-2="jwt"><polygon fill="#181818" points="273.5781,1130.2422,283.5781,1134.2422,273.5781,1138.2422,277.5781,1134.2422" style="stroke:#181818;stroke-width:1;"/><line style="stroke:#181818;stroke-width:1;" x1="32.5718" x2="279.5781" y1="1134.2422" y2="1134.2422"/><text fill="#000000" font-family="sans-serif" font-size="13" lengthAdjust="spacing" textLength="123.9634" x="39.5718" y="1114.0435">GET /api/productos</text><text fill="#000000" font-family="sans-serif" font-size="13" lengthAdjust="spacing" textLength="196.644" x="39.5718" y="1129.1763">Authorization: Bearer {token}</text></g><g class="message" data-participant-1="jwt" data-participant-2="jwt"><line style="stroke:#181818;stroke-width:1;" x1="295.5781" x2="337.5781" y1="1163.375" y2="1163.375"/><line style="stroke:#181818;stroke-width:1;" x1="337.5781" x2="337.5781" y1="1163.375" y2="1176.375"/><line style="stroke:#181818;stroke-width:1;" x1="296.5781" x2="337.5781" y1="1176.375" y2="1176.375"/><polygon fill="#181818" points="306.5781,1172.375,296.5781,1176.375,306.5781,1180.375,302.5781,1176.375" style="stroke:#181818;stroke-width:1;"/><text fill="#000000" font-family="sans-serif" font-size="13" lengthAdjust="spacing" textLength="118.1997" x="302.5781" y="1158.3091">Validar JWT Token</text></g><g class="message" data-participant-1="jwt" data-participant-2="ctrl"><polygon fill="#181818" points="429.3091,1201.5078,439.3091,1205.5078,429.3091,1209.5078,433.3091,1205.5078" style="stroke:#181818;stroke-width:1;"/><line style="stroke:#181818;stroke-width:1;" x1="290.5781" x2="435.3091" y1="1205.5078" y2="1205.5078"/><text fill="#000000" font-family="sans-serif" font-size="13" lengthAdjust="spacing" textLength="126.731" x="297.5781" y="1200.4419">Request autorizado</text></g><g class="message" data-participant-1="ctrl" data-participant-2="svc"><polygon fill="#181818" points="768.4727,1230.6406,778.4727,1234.6406,768.4727,1238.6406,772.4727,1234.6406" style="stroke:#181818;stroke-width:1;"/><line style="stroke:#181818;stroke-width:1;" x1="451.3091" x2="774.4727" y1="1234.6406" y2="1234.6406"/><text fill="#000000" font-family="sans-serif" font-size="13" lengthAdjust="spacing" textLength="102.1782" x="458.3091" y="1229.5747">ObtenerTodos()</text></g><g class="message" data-participant-1="svc" data-participant-2="memory"><polygon fill="#181818" points="951.6489,1259.7734,961.6489,1263.7734,951.6489,1267.7734,955.6489,1263.7734" style="stroke:#181818;stroke-width:1;"/><line style="stroke:#181818;stroke-width:1;" x1="790.4727" x2="957.6489" y1="1263.7734" y2="1263.7734"/><text fill="#000000" font-family="sans-serif" font-size="13" lengthAdjust="spacing" textLength="149.1763" x="797.4727" y="1258.7075">Obtener lista completa</text></g><g class="message" data-participant-1="memory" data-participant-2="svc"><polygon fill="#181818" points="801.4727,1288.9063,791.4727,1292.9063,801.4727,1296.9063,797.4727,1292.9063" style="stroke:#181818;stroke-width:1;"/><line style="stroke:#181818;stroke-width:1;stroke-dasharray:2,2;" x1="795.4727" x2="962.6489" y1="1292.9063" y2="1292.9063"/><text fill="#000000" font-family="sans-serif" font-size="13" lengthAdjust="spacing" textLength="102.3369" x="807.4727" y="1287.8403">List&lt;Producto&gt;</text></g><g class="message" data-participant-1="svc" data-participant-2="ctrl"><polygon fill="#181818" points="462.3091,1318.0391,452.3091,1322.0391,462.3091,1326.0391,458.3091,1322.0391" style="stroke:#181818;stroke-width:1;"/><line style="stroke:#181818;stroke-width:1;stroke-dasharray:2,2;" x1="456.3091" x2="784.4727" y1="1322.0391" y2="1322.0391"/><text fill="#000000" font-family="sans-serif" font-size="13" lengthAdjust="spacing" textLength="102.3369" x="468.3091" y="1316.9731">List&lt;Producto&gt;</text></g><g class="message" data-participant-1="ctrl" data-participant-2="client"><polygon fill="#181818" points="43.5718,1362.3047,33.5718,1366.3047,43.5718,1370.3047,39.5718,1366.3047" style="stroke:#181818;stroke-width:1;"/><line style="stroke:#181818;stroke-width:1;stroke-dasharray:2,2;" x1="37.5718" x2="445.3091" y1="1366.3047" y2="1366.3047"/><text fill="#000000" font-family="sans-serif" font-size="13" lengthAdjust="spacing" textLength="47.7026" x="49.5718" y="1346.106">200 OK</text><text fill="#000000" font-family="sans-serif" font-size="13" lengthAdjust="spacing" textLength="205.1753" x="49.5718" y="1361.2388">[{producto1}, {producto2}, ...]</text></g><rect fill="#EEEEEE" height="3" style="stroke:#EEEEEE;stroke-width:1;" width="1032.7534" x="0" y="1394.8711"/><line style="stroke:#000000;stroke-width:1;" x1="0" x2="1032.7534" y1="1394.8711" y2="1394.8711"/><line style="stroke:#000000;stroke-width:1;" x1="0" x2="1032.7534" y1="1397.8711" y2="1397.8711"/><rect fill="#EEEEEE" height="23.1328" style="stroke:#000000;stroke-width:2;" width="189.6333" x="421.5601" y="1384.3047"/><text fill="#000000" font-family="sans-serif" font-size="13" font-weight="bold" lengthAdjust="spacing" textLength="171.1074" x="427.5601" y="1400.3716">Error - Sin Autorizacion</text><g class="message" data-participant-1="client" data-participant-2="jwt"><polygon fill="#181818" points="273.5781,1449.7031,283.5781,1453.7031,273.5781,1457.7031,277.5781,1453.7031" style="stroke:#181818;stroke-width:1;"/><line style="stroke:#181818;stroke-width:1;" x1="32.5718" x2="279.5781" y1="1453.7031" y2="1453.7031"/><text fill="#000000" font-family="sans-serif" font-size="13" lengthAdjust="spacing" textLength="123.9634" x="39.5718" y="1433.5044">GET /api/productos</text><text fill="#000000" font-family="sans-serif" font-size="13" lengthAdjust="spacing" textLength="179.3022" x="39.5718" y="1448.6372">(Sin token o token invalido)</text></g><g class="message" data-participant-1="jwt" data-participant-2="jwt"><line style="stroke:#181818;stroke-width:1;" x1="295.5781" x2="337.5781" y1="1482.8359" y2="1482.8359"/><line style="stroke:#181818;stroke-width:1;" x1="337.5781" x2="337.5781" y1="1482.8359" y2="1495.8359"/><line style="stroke:#181818;stroke-width:1;" x1="296.5781" x2="337.5781" y1="1495.8359" y2="1495.8359"/><polygon fill="#181818" points="306.5781,1491.8359,296.5781,1495.8359,306.5781,1499.8359,302.5781,1495.8359" style="stroke:#181818;stroke-width:1;"/><text fill="#000000" font-family="sans-serif" font-size="13" lengthAdjust="spacing" textLength="118.1997" x="302.5781" y="1477.77">Validar JWT Token</text></g><g class="message" data-participant-1="jwt" data-participant-2="client"><polygon fill="#181818" points="43.5718,1520.9688,33.5718,1524.9688,43.5718,1528.9688,39.5718,1524.9688" style="stroke:#181818;stroke-width:1;"/><line style="stroke:#181818;stroke-width:1;stroke-dasharray:2,2;" x1="37.5718" x2="289.5781" y1="1524.9688" y2="1524.9688"/><text fill="#000000" font-family="sans-serif" font-size="13" lengthAdjust="spacing" textLength="116.2256" x="49.5718" y="1519.9028">401 Unauthorized</text></g><!--SRC=[pLNPRXen57ttLrpn158WY_fIL281YQ8kQQ926rMbgXpxXZWnzjJZ8MaH_zvhpy8GK4kbgYqIC3C-TpldsEELrmWdYayTdt6G22CK6HgXEBJX35Elh0cFBvsLcV0sPIozLoRXX0VwzKgeX1iF2mRq6N1nFtKsCt9ejNLmTQiyvYlMINJvqu4c65ionYcZWw5MQ3m2Jq74IrPFt7XrDOPp9QN61-wm4M1t3qymLNj3QxopMgEBGE6TteuSePihaQTBvuA942J2k2aqtgZKloYHnnFJV6dQvpYpxbih1ipYDMEz7lId3gVSLGGHRQUFYZgnqEinbWy4xUFGCtJXyc8qXdsUgFsaR7bY-fc_jKvzvw5y5mP8SpfOU7kFPZan2s6bcjezC7PsxN0F4eT2sMMWJyqvCHVuOA50LUS3rqfIMu6ySSXJBWT6QFqTVir8NU2PZvMbPHBNybKtaKCMurRnPVvpAr6FFE68fPA34w9X7W6HpzP6zD1XZRA9aPZMF4RXgmZIXW8AbfibQQrLUq4y5b04pdKX_21B1LL8WhiYUQnOQbSftrh0Hz8PDwFxKjOgRKHUl2v2LWCrlSj8cCfTm6F3qeAmZjJoV1OitcZLMOwTvtE6JBbJkd1qS1W9yYWdfafeh-yeJJqyrsMx1K-oH2iHwlzX4tx9EQDP_dCx_jnoVy5V7_cwlsfckU4w3Mwf890PA4kJOmnWIeF6n3jPvjd1S-h3t93cdgIQOPhoANPh5JgTJcEvrJqNroGdAJssqgQWwLiTfblDStRwczxv9xueTce-Mnoj-IjDIo8qySM9_LcYqVDDOTTV3XlgFbdUPRyVq94oCPyM9QE7opseRexeXjJxl5MyK-V8WcqOAGFzWYCHNjcxAjSCaL4diCM_Cl7ihk-1dOLRD-KXl3Uyi0RAfyhz0000]--></g></svg>