<svg xmlns="http://www.w3.org/2000/svg" xmlns:xlink="http://www.w3.org/1999/xlink" contentStyleType="text/css" data-diagram-type="DESCRIPTION" height="645px" preserveAspectRatio="none" style="width:876px;height:645px;background:#FFFFFF;" version="1.1" viewBox="0 0 876 645" width="876px" zoomAndPan="magnify"><title>Diagrama de Casos de Uso - ProductManagementAPI</title><defs/><g><g class="title" data-source-line="1"><text fill="#000000" font-family="sans-serif" font-size="14" font-weight="bold" lengthAdjust="spacing" textLength="416.8076" x="222.8187" y="22.9951">Diagrama de Casos de Uso - ProductManagementAPI</text></g><!--cluster ProductManagementAPI--><g class="cluster" data-entity="ProductManagementAPI" data-source-line="9" data-uid="ent0004" id="cluster_ProductManagementAPI"><rect fill="none" height="433" rx="2.5" ry="2.5" style="stroke:#181818;stroke-width:1;" width="598.4" x="260.51" y="44.2969"/><text fill="#000000" font-family="sans-serif" font-size="14" font-weight="bold" lengthAdjust="spacing" textLength="191.1191" x="464.1504" y="59.292">ProductManagementAPI</text></g><!--cluster Autenticacion--><g class="cluster" data-entity="Autenticacion" data-source-line="11" data-uid="ent0005" id="cluster_Autenticacion"><rect fill="none" height="186" rx="2.5" ry="2.5" style="stroke:#181818;stroke-width:1;" width="209.02" x="284.51" y="267.2969"/><text fill="#000000" font-family="sans-serif" font-size="14" font-weight="bold" lengthAdjust="spacing" textLength="108.876" x="334.582" y="282.292">Autenticacion</text></g><!--cluster Gestion de Productos--><g class="cluster" data-entity="Gestion de Productos" data-source-line="16" data-uid="ent0008" id="cluster_Gestion de Productos"><rect fill="none" height="156" rx="2.5" ry="2.5" style="stroke:#181818;stroke-width:1;" width="185.36" x="296.34" y="87.2969"/><text fill="#000000" font-family="sans-serif" font-size="14" font-weight="bold" lengthAdjust="spacing" textLength="169.374" x="304.333" y="102.292">Gestion de Productos</text></g><!--cluster Sistema--><g class="cluster" data-entity="Sistema" data-source-line="21" data-uid="ent0011" id="cluster_Sistema"><rect fill="none" height="231" rx="2.5" ry="2.5" style="stroke:#181818;stroke-width:1;" width="195.84" x="639.07" y="216.2969"/><text fill="#000000" font-family="sans-serif" font-size="14" font-weight="bold" lengthAdjust="spacing" textLength="63.4375" x="705.2713" y="231.292">Sistema</text></g><!--entity UC1--><g class="entity" data-entity="UC1" data-source-line="12" data-uid="ent0006" id="entity_UC1"><ellipse cx="389.0241" cy="413.2983" fill="#F1F1F1" rx="63.3441" ry="24.0615" style="stroke:#181818;stroke-width:0.5;"/><text fill="#000000" font-family="sans-serif" font-size="14" lengthAdjust="spacing" textLength="93.3857" x="342.3312" y="412.7537">Iniciar Sesion</text><text fill="#000000" font-family="sans-serif" font-size="14" lengthAdjust="spacing" textLength="48.9385" x="364.5548" y="429.0505">(Login)</text></g><!--entity UC2--><g class="entity" data-entity="UC2" data-source-line="13" data-uid="ent0007" id="entity_UC2"><ellipse cx="389.0197" cy="328.296" fill="#F1F1F1" rx="88.5097" ry="25.5292" style="stroke:#181818;stroke-width:0.5;"/><text fill="#000000" font-family="sans-serif" font-size="14" lengthAdjust="spacing" textLength="111.8906" x="333.0744" y="324.0547">Ver Informacion</text><text fill="#000000" font-family="sans-serif" font-size="14" lengthAdjust="spacing" textLength="123.71" x="327.1647" y="340.3516">de Usuario Actual</text></g><!--entity UC3--><g class="entity" data-entity="UC3" data-source-line="17" data-uid="ent0009" id="entity_UC3"><ellipse cx="389.0195" cy="209.2928" fill="#F1F1F1" rx="76.6795" ry="17.7359" style="stroke:#181818;stroke-width:0.5;"/><text fill="#000000" font-family="sans-serif" font-size="14" lengthAdjust="spacing" textLength="122.7803" x="327.6294" y="213.9412">Agregar Producto</text></g><!--entity UC4--><g class="entity" data-entity="UC4" data-source-line="18" data-uid="ent0010" id="entity_UC4"><ellipse cx="389.0175" cy="139.2944" fill="#F1F1F1" rx="72.5875" ry="16.9175" style="stroke:#181818;stroke-width:0.5;"/><text fill="#000000" font-family="sans-serif" font-size="14" lengthAdjust="spacing" textLength="112.8271" x="332.6039" y="143.9428">Listar Productos</text></g><!--entity UC5--><g class="entity" data-entity="UC5" data-source-line="22" data-uid="ent0012" id="entity_UC5"><ellipse cx="736.9894" cy="269.3008" fill="#F1F1F1" rx="78.5694" ry="18.1139" style="stroke:#181818;stroke-width:0.5;"/><text fill="#000000" font-family="sans-serif" font-size="14" lengthAdjust="spacing" textLength="127.292" x="673.3434" y="273.9492">Validar JWT Token</text></g><!--entity UC6--><g class="entity" data-entity="UC6" data-source-line="23" data-uid="ent0013" id="entity_UC6"><ellipse cx="736.9872" cy="341.3003" fill="#F1F1F1" rx="81.9172" ry="18.7834" style="stroke:#181818;stroke-width:0.5;"/><text fill="#000000" font-family="sans-serif" font-size="14" lengthAdjust="spacing" textLength="135.1738" x="669.4002" y="345.9487">Generar JWT Token</text></g><!--entity UC7--><g class="entity" data-entity="UC7" data-source-line="24" data-uid="ent0014" id="entity_UC7"><ellipse cx="736.9931" cy="413.2955" fill="#F1F1F1" rx="78.8431" ry="18.1686" style="stroke:#181818;stroke-width:0.5;"/><text fill="#000000" font-family="sans-serif" font-size="14" lengthAdjust="spacing" textLength="127.9414" x="673.0224" y="417.9439">Hash de Password</text></g><!--entity anon--><g class="entity" data-entity="anon" data-source-line="6" data-uid="ent0002" id="entity_anon"><ellipse cx="36.9907" cy="321.4969" fill="#F1F1F1" rx="8" ry="8" style="stroke:#181818;stroke-width:0.5;"/><path d="M36.9907,329.4969 L36.9907,356.4969 M23.9907,337.4969 L49.9907,337.4969 M36.9907,356.4969 L23.9907,371.4969 M36.9907,356.4969 L49.9907,371.4969" fill="none" style="stroke:#181818;stroke-width:0.5;"/><text fill="#000000" font-family="sans-serif" font-size="14" lengthAdjust="spacing" textLength="53.2041" x="6" y="385.992">Usuario</text><text fill="#000000" font-family="sans-serif" font-size="14" lengthAdjust="spacing" textLength="61.9814" x="6" y="402.2889">Anonimo</text></g><!--entity auth--><g class="entity" data-entity="auth" data-source-line="7" data-uid="ent0003" id="entity_auth"><ellipse cx="171.2466" cy="225.4969" fill="#F1F1F1" rx="8" ry="8" style="stroke:#181818;stroke-width:0.5;"/><path d="M171.2466,233.4969 L171.2466,260.4969 M158.2466,241.4969 L184.2466,241.4969 M171.2466,260.4969 L158.2466,275.4969 M171.2466,260.4969 L184.2466,275.4969" fill="none" style="stroke:#181818;stroke-width:0.5;"/><text fill="#000000" font-family="sans-serif" font-size="14" lengthAdjust="spacing" textLength="53.2041" x="128.98" y="289.992">Usuario</text><text fill="#000000" font-family="sans-serif" font-size="14" lengthAdjust="spacing" textLength="84.5332" x="128.98" y="306.2889">Autenticado</text></g><g class="entity" data-entity="GMN25" data-source-line="48" data-uid="ent0026" id="entity_GMN25"><path d="M625.28,583.5969 L625.28,638.9953 L848.7004,638.9953 L848.7004,593.5969 L838.7004,583.5969 L625.28,583.5969" fill="#FEFFDD" style="stroke:#181818;stroke-width:0.5;"/><path d="M838.7004,583.5969 L838.7004,593.5969 L848.7004,593.5969 L838.7004,583.5969" fill="#FEFFDD" style="stroke:#181818;stroke-width:1;"/><text fill="#000000" font-family="sans-serif" font-size="13" lengthAdjust="spacing" textLength="138.1631" x="631.28" y="600.6638">POST /api/users/login</text><text fill="#000000" font-family="sans-serif" font-size="13" lengthAdjust="spacing" textLength="202.4204" x="631.28" y="615.7966">Requiere: username, password</text><text fill="#000000" font-family="sans-serif" font-size="13" lengthAdjust="spacing" textLength="128.5654" x="631.28" y="630.9294">Retorna: JWT Token</text></g><g class="entity" data-entity="GMN28" data-source-line="54" data-uid="ent0029" id="entity_GMN28"><path d="M604.53,493.5969 L604.53,548.9953 L869.445,548.9953 L869.445,503.5969 L859.445,493.5969 L604.53,493.5969" fill="#FEFFDD" style="stroke:#181818;stroke-width:0.5;"/><path d="M859.445,493.5969 L859.445,503.5969 L869.445,503.5969 L859.445,493.5969" fill="#FEFFDD" style="stroke:#181818;stroke-width:1;"/><text fill="#000000" font-family="sans-serif" font-size="13" lengthAdjust="spacing" textLength="131.9995" x="610.53" y="510.6638">POST /api/productos</text><text fill="#000000" font-family="sans-serif" font-size="13" lengthAdjust="spacing" textLength="217.4453" x="610.53" y="525.7966">Requiere: codigo, nombre, precio</text><text fill="#000000" font-family="sans-serif" font-size="13" lengthAdjust="spacing" textLength="243.915" x="610.53" y="540.9294">Retorna: Producto creado o error 409</text></g><!--link anon to UC1--><g class="link" data-entity-1="anon" data-entity-2="UC1" data-source-line="29" data-uid="lnk15" id="link_anon_UC1"><path d="M68.44,363.9969 C126.66,372.9769 248.6901,391.8023 323.8401,403.3923" fill="none" id="anon-to-UC1" style="stroke:#181818;stroke-width:1;"/><polygon fill="#181818" points="329.77,404.3069,321.4849,398.9818,324.8284,403.5448,320.2655,406.8883,329.77,404.3069" style="stroke:#181818;stroke-width:1;"/></g><!--link auth to UC2--><g class="link" data-entity-1="auth" data-entity-2="UC2" data-source-line="32" data-uid="lnk16" id="link_auth_UC2"><path d="M213.85,275.8269 C245.82,285.4569 284.7051,297.1761 320.7851,308.0461" fill="none" id="auth-to-UC2" style="stroke:#181818;stroke-width:1;"/><polygon fill="#181818" points="326.53,309.7769,319.0665,303.3507,321.7426,308.3345,316.7587,311.0106,326.53,309.7769" style="stroke:#181818;stroke-width:1;"/></g><!--link auth to UC3--><g class="link" data-entity-1="auth" data-entity-2="UC3" data-source-line="33" data-uid="lnk17" id="link_auth_UC3"><path d="M213.85,252.8869 C248.63,244.1769 292.5995,233.1836 330.0395,223.8136" fill="none" id="auth-to-UC3" style="stroke:#181818;stroke-width:1;"/><polygon fill="#181818" points="335.86,222.3569,326.1581,220.6616,331.0096,223.5708,328.1004,228.4222,335.86,222.3569" style="stroke:#181818;stroke-width:1;"/></g><!--link auth to UC4--><g class="link" data-entity-1="auth" data-entity-2="UC4" data-source-line="34" data-uid="lnk18" id="link_auth_UC4"><path d="M205.13,216.9069 C218.26,201.3369 234.54,185.1869 252.51,174.2969 C274.33,161.0769 295.1838,154.0669 319.1138,148.9269" fill="none" id="auth-to-UC4" style="stroke:#181818;stroke-width:1;"/><polygon fill="#181818" points="324.98,147.6669,315.3407,145.6461,320.0915,148.7169,317.0207,153.4677,324.98,147.6669" style="stroke:#181818;stroke-width:1;"/></g><!--reverse link anon to auth--><g class="link" data-entity-1="anon" data-entity-2="auth" data-source-line="37" data-uid="lnk19" id="link_anon_auth"><path d="M82.8957,326.7014 C100.7457,313.7414 109,307.7569 128.52,293.5869" fill="none" id="anon-backto-auth" style="stroke:#181818;stroke-width:1;"/><polygon fill="none" points="68.33,337.2769,86.4209,331.5567,79.3706,321.8462,68.33,337.2769" style="stroke:#181818;stroke-width:1;"/></g><!--link UC1 to UC7--><g class="link" data-entity-1="UC1" data-entity-2="UC7" data-source-line="40" data-uid="lnk20" id="link_UC1_UC7"><path d="M452.68,413.2969 C510.22,413.2969 589.71,413.2969 651.73,413.2969" fill="none" id="UC1-to-UC7" style="stroke:#181818;stroke-width:1;stroke-dasharray:7,7;"/><polygon fill="#181818" points="657.73,413.2969,648.73,409.2969,652.73,413.2969,648.73,417.2969,657.73,413.2969" style="stroke:#181818;stroke-width:1;"/><text fill="#000000" font-family="sans-serif" font-size="13" lengthAdjust="spacing" textLength="63.0068" x="510.53" y="409.3638">&#171;include&#187;</text></g><!--link UC1 to UC6--><g class="link" data-entity-1="UC1" data-entity-2="UC6" data-source-line="41" data-uid="lnk21" id="link_UC1_UC6"><path d="M445.06,401.7669 C465.32,397.5269 488.47,392.6869 509.53,388.2969 C565.55,376.6269 623.4949,364.6049 669.0749,355.1549" fill="none" id="UC1-to-UC6" style="stroke:#181818;stroke-width:1;stroke-dasharray:7,7;"/><polygon fill="#181818" points="674.95,353.9369,665.3254,351.8473,670.0541,354.9519,666.9495,359.6807,674.95,353.9369" style="stroke:#181818;stroke-width:1;"/><text fill="#000000" font-family="sans-serif" font-size="13" lengthAdjust="spacing" textLength="63.0068" x="510.53" y="371.4238">&#171;include&#187;</text></g><!--link UC2 to UC5--><g class="link" data-entity-1="UC2" data-entity-2="UC5" data-source-line="43" data-uid="lnk22" id="link_UC2_UC5"><path d="M465.95,315.3469 C527.91,304.7869 608.5153,291.0348 666.7853,281.1048" fill="none" id="UC2-to-UC5" style="stroke:#181818;stroke-width:1;stroke-dasharray:7,7;"/><polygon fill="#181818" points="672.7,280.0969,663.1559,277.6656,667.7711,280.9368,664.4999,285.552,672.7,280.0969" style="stroke:#181818;stroke-width:1;"/><text fill="#000000" font-family="sans-serif" font-size="13" lengthAdjust="spacing" textLength="63.0068" x="510.53" y="293.0938">&#171;include&#187;</text></g><!--link UC3 to UC5--><g class="link" data-entity-1="UC3" data-entity-2="UC5" data-source-line="44" data-uid="lnk23" id="link_UC3_UC5"><path d="M451.48,219.9569 C513.9,230.7769 604.1983,246.4415 667.1583,257.3615" fill="none" id="UC3-to-UC5" style="stroke:#181818;stroke-width:1;stroke-dasharray:7,7;"/><polygon fill="#181818" points="673.07,258.3869,664.886,252.9077,668.1436,257.5324,663.5188,260.79,673.07,258.3869" style="stroke:#181818;stroke-width:1;"/><text fill="#000000" font-family="sans-serif" font-size="13" lengthAdjust="spacing" textLength="63.0068" x="510.53" y="226.4838">&#171;include&#187;</text></g><!--link UC4 to UC5--><g class="link" data-entity-1="UC4" data-entity-2="UC5" data-source-line="45" data-uid="lnk24" id="link_UC4_UC5"><path d="M435.6,152.6969 C455.91,158.8969 480.05,166.5869 501.53,174.2969 C572.01,199.5869 647.0953,230.9729 693.0753,250.6829" fill="none" id="UC4-to-UC5" style="stroke:#181818;stroke-width:1;stroke-dasharray:7,7;"/><polygon fill="#181818" points="698.59,253.0469,691.8939,245.8245,693.9944,251.0769,688.742,253.1774,698.59,253.0469" style="stroke:#181818;stroke-width:1;"/><text fill="#000000" font-family="sans-serif" font-size="13" lengthAdjust="spacing" textLength="63.0068" x="510.53" y="175.0038">&#171;include&#187;</text></g><!--link UC1 to GMN25--><g class="link" data-entity-1="UC1" data-entity-2="GMN25" data-source-line="48" data-uid="lnk27" id="link_UC1_GMN25"><path d="M404.8,436.8869 C424.86,466.9669 463.55,518.5369 509.53,547.2969 C544.17,568.9669 586.3,583.4669 624.79,593.0969" fill="none" id="UC1-GMN25" style="stroke:#181818;stroke-width:1;stroke-dasharray:7,7;"/></g><!--link UC3 to GMN28--><g class="link" data-entity-1="UC3" data-entity-2="GMN28" data-source-line="54" data-uid="lnk30" id="link_UC3_GMN28"><path d="M428.28,224.8569 C453.77,237.4069 485.43,257.6969 501.53,286.2969 C516.28,312.4869 492.39,396.6169 509.53,421.2969 C533.32,455.5369 571.59,478.1869 609.96,493.1169" fill="none" id="UC3-GMN28" style="stroke:#181818;stroke-width:1;stroke-dasharray:7,7;"/></g><!--SRC=[TLHTRzf047o_Nx7oIrif3YsGH4K82QLIGfMgA43wmilsl9WJzXszEwkgclxtxfdZ8zZuwQoTdPdR7TihNn1yKPXRB14oWdjqneN3mXb8OMfDLad_3JNcL9Bsu-b4Y89M7hm1g_ArXqnPabuPBTn6wIqo5MnHRhXZvlymVoYZpWiI0gKt5fA5gz0gizHZRRGgJGBe0FdS15IULPN4B88glnRYm0X9cyC4_We1_4GRa1ne9FiCPOXFvKYYOyH4AwdGmemSGvRw_PF9bVvGYoxkFpKRNiZ2HA-CBMlIfQw7Ljk6iVGL5h6tM_V-EtFqG2xCB8mwNi6uLcFZt5BEnlQeoDfh8f-KyoT05v7zLlqPWwd4LiaNB5J6J5z_p65kDgGZqqqJ-a2QR0lqjWbzHBUkhulE_JOsYyYxQ8yDleDdAkffaZlESXSH4U81QJggjt41UWoB2469yExfI-_qfH-87icIvjq7RtNyoEt4Xgzf6WFtHevnRZSzmLxW-ZfGtS40XaEbPL5bD1gTL6xFAbpgnj9DewbtiTA_K17QU8gVebaTiZhzFfj31xUgmmkmhbE4EDULP_fLARxp8Ap6QYpfYcEnsqa4y10q3evB5QGp23fDjTwPsdQVlZCjQJALcojcAN_QeCZVi39lzVR91Mc9TmW6o5h-7VG_VZuw-0y0]--></g></svg>